<?xml version="1.0" encoding="utf-8"?>
<!-- Generator: Adobe Illustrator 16.0.4, SVG Export Plug-In . SVG Version: 6.00 Build 0)  -->
<!DOCTYPE svg PUBLIC "-//W3C//DTD SVG 1.1//EN" "http://www.w3.org/Graphics/SVG/1.1/DTD/svg11.dtd">
<svg version="1.1" id="Vrstva_6" xmlns="http://www.w3.org/2000/svg" xmlns:xlink="http://www.w3.org/1999/xlink" x="0px" y="0px"
	 width="351.11px" height="99.513px" viewBox="0 0 351.11 99.513" enable-background="new 0 0 351.11 99.513" xml:space="preserve">
<g>
	<path d="M83.789,17.138c-0.864,0-1.439-0.576-1.439-1.44V1.44c0-0.864,0.575-1.44,1.439-1.44h17.281c0.864,0,1.44,0.576,1.44,1.44
		v14.257c0,0.864-0.577,1.44-1.44,1.44H83.789z M83.789,97.929c-0.864,0-1.439-0.576-1.439-1.44V29.667
		c0-0.864,0.575-1.44,1.439-1.44h17.281c0.864,0,1.44,0.576,1.44,1.44v66.821c0,0.864-0.577,1.44-1.44,1.44H83.789z"/>
	<path d="M141.965,98.793c-15.409,0-21.602-6.769-21.602-22.178V1.44c0-0.864,0.575-1.44,1.439-1.44h17.282
		c0.863,0,1.439,0.576,1.439,1.44v73.59c0,4.753,1.872,6.625,6.049,6.625h3.024c0.864,0,1.439,0.576,1.439,1.44v14.257
		c0,0.864-0.575,1.44-1.439,1.44H141.965z"/>
	<path d="M163.417,79.639c-1.439-4.32-2.448-9.36-2.448-16.561c0-7.345,0.864-12.386,2.305-16.706
		c4.032-12.529,15.121-19.729,29.953-19.729c15.41,0,26.066,7.345,30.102,19.586c1.438,4.608,2.301,9.648,2.301,21.458
		c0,0.863-0.574,1.439-1.582,1.439h-42.195c-0.578,0-0.863,0.288-0.863,0.864c0.141,1.44,0.43,2.736,0.863,3.889
		c1.871,6.048,7.199,9.217,14.402,9.217c6.91,0,11.953-2.448,15.984-6.192c0.719-0.576,1.438-0.721,2.016,0l9.504,8.929
		c0.723,0.575,0.723,1.439,0.145,2.016c-6.625,7.057-16.848,11.665-29.668,11.665C178.394,99.513,167.45,92.168,163.417,79.639z
		 M204.894,55.733c0.574,0,0.863-0.288,0.863-0.864c0-2.16-0.289-3.744-0.723-5.185c-1.582-4.752-5.902-7.633-11.664-7.633
		c-5.758,0-10.082,2.881-11.664,7.633c-0.434,1.44-0.719,3.024-0.719,5.185c0,0.576,0.285,0.864,0.863,0.864H204.894z"/>
	<path d="M264.927,98.793c-16.129,0-22.176-7.201-22.176-23.187V43.924c0-0.576-0.289-0.864-0.867-0.864h-4.32
		c-0.863,0-1.438-0.575-1.438-1.439V29.667c0-0.864,0.574-1.44,1.438-1.44h4.32c0.578,0,0.867-0.288,0.867-0.864V8.641
		c0-0.863,0.574-1.439,1.438-1.439h17.137c0.867,0,1.441,0.576,1.441,1.439v18.722c0,0.576,0.289,0.864,0.863,0.864h8.93
		c0.863,0,1.441,0.576,1.441,1.44V41.62c0,0.864-0.578,1.439-1.441,1.439h-8.93c-0.574,0-0.863,0.288-0.863,0.864v30.819
		c0,5.184,1.73,6.912,6.336,6.912h3.457c0.863,0,1.441,0.576,1.441,1.44v14.257c0,0.864-0.578,1.44-1.441,1.44H264.927z"/>
	<path d="M288.317,79.927c-1.582-5.04-2.301-9.937-2.301-16.849c0-6.913,0.719-11.81,2.301-16.85
		c4.035-12.674,15.555-19.586,30.246-19.586c14.688,0,26.207,6.912,30.242,19.586c1.582,5.04,2.305,9.937,2.305,16.85
		c0,6.912-0.723,11.809-2.305,16.849c-4.035,12.674-15.555,19.586-30.242,19.586C303.872,99.513,292.352,92.601,288.317,79.927z
		 M329.364,75.03c1.008-3.168,1.293-6.048,1.293-11.952c0-5.905-0.285-8.785-1.293-11.953c-1.586-4.896-5.473-7.489-10.801-7.489
		c-5.332,0-9.219,2.593-10.801,7.489c-1.012,3.168-1.297,6.048-1.297,11.953c0,5.904,0.285,8.784,1.297,11.952
		c1.582,4.896,5.469,7.489,10.801,7.489C323.891,82.52,327.778,79.927,329.364,75.03z"/>
	<path d="M65.22,43.352c-3.6-11.09-11.96-16.71-23.62-16.71c-8.39,0-14.04,2.739-17.37,6.83c-0.119,0.11-0.27,0.18-0.439,0.18
		c-0.35,0-0.62-0.28-0.62-0.62V1.441c0-0.87-0.58-1.439-1.44-1.439H1.44C0.57,0.002,0,0.582,0,1.441v7.04
		c0,0.44,0.33,0.8,0.76,0.851v0.01c2.31,0.22,3.9,1.439,4.6,3.709c0.439,1.361,0.65,2.881,0.65,5.971c0,3.1-0.21,4.609-0.65,5.98
		c-0.7,2.199-2.29,3.47-4.6,3.689v0.006C0.33,28.748,0,29.107,0,29.547v8.875c0,0.439,0.33,0.81,0.76,0.859
		c0.03,0.01,0.069,0.01,0.1,0.01c2.25,0.25,3.81,1.461,4.5,3.701c0.439,1.369,0.65,2.879,0.65,5.969c0,3.101-0.21,4.61-0.65,5.98
		c-0.7,2.2-2.29,3.471-4.6,3.689v0.006C0.33,58.688,0,59.047,0,59.487v8.874c0,0.439,0.33,0.811,0.76,0.86v0.01
		c2.31,0.22,3.9,1.431,4.6,3.7c0.439,1.369,0.65,2.88,0.65,5.97c0,3.101-0.21,4.61-0.65,5.979c-0.7,2.201-2.29,3.471-4.6,3.69v0.006
		C0.33,88.627,0,88.987,0,89.428v7.064c0,0.859,0.57,1.439,1.44,1.439h20.29c0.86,0,1.44-0.58,1.44-1.439v-3.361
		c0-0.34,0.271-0.619,0.62-0.619c0.17,0,0.32,0.07,0.439,0.18c3.33,4.08,8.971,6.82,17.37,6.82c11.66,0,20.021-5.76,23.62-16.7
		c1.73-5.479,2.45-10.8,2.45-19.729C67.67,54.002,66.951,48.821,65.22,43.352z M45.92,75.031c-1.58,4.9-5.33,7.49-10.8,7.49
		c-5.33,0-9.071-2.59-10.66-7.49c-0.86-2.74-1.29-5.76-1.29-11.949c0-6.201,0.43-9.221,1.29-11.961
		c1.589-5.039,5.33-7.49,10.66-7.49c5.47,0,9.22,2.451,10.8,7.49c0.86,2.74,1.3,5.76,1.3,11.961
		C47.22,69.271,46.781,72.291,45.92,75.031z"/>
</g>
</svg>
