<?xml version="1.0" encoding="utf-8"?>
<!-- Generator: Adobe Illustrator 16.0.4, SVG Export Plug-In . SVG Version: 6.00 Build 0)  -->
<!DOCTYPE svg PUBLIC "-//W3C//DTD SVG 1.1//EN" "http://www.w3.org/Graphics/SVG/1.1/DTD/svg11.dtd">
<svg version="1.1" id="Vrstva_1" xmlns="http://www.w3.org/2000/svg" xmlns:xlink="http://www.w3.org/1999/xlink" x="0px" y="0px"
	 width="160.24px" height="125.364px" viewBox="0 0 160.24 125.364" enable-background="new 0 0 160.24 125.364"
	 xml:space="preserve">
<g>
	<path fill-rule="evenodd" clip-rule="evenodd" d="M80.845,54.32c14.989,0,27.139-12.162,27.139-27.16S95.834,0,80.845,0
		c-14.99,0-27.142,12.162-27.142,27.16S65.855,54.32,80.845,54.32L80.845,54.32z"/>
	<path fill-rule="evenodd" clip-rule="evenodd" d="M100.863,49.136c-5.174,5.608-14.291,11.219-25.99,11.219
		c-9.078,0-16.894-3.529-21.864-7.454C23.376,56.011,1.34,60.423,1.34,60.423v12.005l157.041-0.016l0.018-24.756
		C158.398,47.657,131.602,47.488,100.863,49.136L100.863,49.136z"/>
	<path fill-rule="evenodd" clip-rule="evenodd" d="M34.118,123.747c-2.796,0.807-6.936,1.617-10.739,1.617
		C10.402,125.364,0,118.323,0,103.956c0-13.504,10.85-20.258,23.378-20.258c4.139,0,6.6,0.52,10.627,1.271v10.617
		c-2.461-0.809-4.979-1.502-7.494-1.502c-6.377,0-11.187,3.521-11.187,10.102c0,6.922,4.472,10.441,10.683,10.441
		c2.74,0,5.37-0.576,8.11-1.559V123.747L34.118,123.747z"/>
	<path fill-rule="evenodd" clip-rule="evenodd" d="M69.577,95.411c-3.358-1.211-7.329-2.018-11.579-2.018
		c-2.348,0-6.432,0.061-6.432,2.654c0,5.254,20.528,0.289,20.528,15.811c0,10.793-10.35,13.506-19.019,13.506
		c-5.761,0-10.515-0.58-16.108-1.906v-10.443c4.027,1.729,8.95,2.652,13.424,2.652c3.523,0,6.711-0.748,6.711-2.768
		c0-5.426-20.526-0.52-20.526-16.16c0-11.078,11.186-13.041,20.078-13.041c4.196,0,8.837,0.52,12.922,1.387V95.411L69.577,95.411z"
		/>
	<path fill-rule="evenodd" clip-rule="evenodd" d="M96.029,125.364c-13.648,0-21.646-7.1-21.646-20.832
		c0-13.504,7.997-20.834,21.646-20.834c13.646,0,21.811,7.33,21.811,20.834C117.84,118.265,109.676,125.364,96.029,125.364
		L96.029,125.364L96.029,125.364z M96.029,115.667c5.928,0,6.096-6.811,6.148-11.135c-0.053-3.752-0.443-11.139-6.148-11.139
		c-5.537,0-5.984,7.387-5.984,11.139C90.045,108.856,90.658,115.667,96.029,115.667L96.029,115.667z"/>
	<path fill-rule="evenodd" clip-rule="evenodd" d="M121.537,84.392h24.551c6.77,0,13.426,2.252,13.426,9.926
		c0,5.541-2.854,8.48-8.055,9.869v0.115c5.428,0.748,8.781,5.135,8.781,9.174c0,10.156-7.941,11.193-16.053,11.193h-22.65V84.392
		L121.537,84.392L121.537,84.392z M135.633,116.362h3.914c2.74,0,5.705-1.039,5.705-4.16c0-3.461-2.797-4.094-5.594-4.094h-4.025
		V116.362L135.633,116.362L135.633,116.362z M135.633,99.798h3.744c2.631,0,5.482-0.807,5.482-3.865c0-3-2.461-3.922-5.146-3.922
		h-4.08V99.798L135.633,99.798z"/>
	<path fill-rule="evenodd" clip-rule="evenodd" d="M7.77,80.772c0,0,4.71,4.049,11.83,4.078c6.729,0.023,11.717-3.32,14.33-6.133
		l-1.139-0.869c0,0-3.413,3.768-9.899,3.701c-6.877-0.07-10.789-4.758-10.789-4.758L7.77,80.772L7.77,80.772z"/>
</g>
</svg>
