<?xml version="1.0" encoding="utf-8"?>
<!-- Generator: Adobe Illustrator 16.0.4, SVG Export Plug-In . SVG Version: 6.00 Build 0)  -->
<!DOCTYPE svg PUBLIC "-//W3C//DTD SVG 1.1//EN" "http://www.w3.org/Graphics/SVG/1.1/DTD/svg11.dtd">
<svg version="1.1" xmlns="http://www.w3.org/2000/svg" xmlns:xlink="http://www.w3.org/1999/xlink" x="0px" y="0px"
	 width="992.398px" height="198.432px" viewBox="0 0 992.398 198.432" enable-background="new 0 0 992.398 198.432"
	 xml:space="preserve">
<g id="_x2D__Přetisk" display="none">
	<path display="inline" fill="#F9A00B" d="M20.07,0c8.24,0,16.02,1.74,22.91,4.82C54,9.75,62.73,18.13,67.38,28.35
		c0.37,0.81,0.71,1.63,1.03,2.46l0.42,1.14l30.32,83.31l16.57,45.53l0.02-0.01c1.99,5.42,7.19,9.3,13.31,9.3l18.352,0.003v26.52
		v1.83l-20.072-0.003c-8.24,0-16.02-1.739-22.9-4.819c-11.02-4.92-19.75-13.3-24.4-23.53c-0.38-0.811-0.72-1.63-1.04-2.47
		c-0.14-0.351-0.27-0.72-0.4-1.091L48.25,83.16L31.69,37.64l-0.02,0.01c-1.99-5.43-7.2-9.3-13.31-9.3L0,28.35V1.83V0L20.07,0z"/>
</g>
<g id="_x2D__Velká_mezera" display="none">
	<g display="inline">
		<path fill="#F9A00B" d="M31.67,37.65l0.02-0.01l13.119,36.062h6.499l16.308-44.789c-0.082-0.187-0.151-0.377-0.236-0.563
			C62.73,18.13,54,9.75,42.98,4.82C36.09,1.74,28.31,0,20.07,0L0,0v1.83v26.52l18.36,0C24.47,28.35,29.68,32.22,31.67,37.65z"/>
		<path fill="#F9A00B" d="M115.74,160.78l-0.02,0.01l-13.125-36.064h-6.507l-16.305,44.797c0.083,0.186,0.161,0.373,0.247,0.558
			c4.65,10.23,13.38,18.61,24.4,23.53c6.88,3.08,14.66,4.819,22.9,4.819l20.072,0.003v-1.83v-26.52l-18.352-0.003
			C122.93,170.08,117.73,166.2,115.74,160.78z"/>
	</g>
</g>
<g id="_x2D__Standart">
	<g>
		<path fill="#000" d="M115.74,160.78l-0.02,0.01l-15.187-41.73h-8.415l-15.401,42.315l1.873,5.145
			c0.13,0.371,0.26,0.74,0.4,1.091c0.32,0.84,0.66,1.659,1.04,2.47c4.65,10.23,13.38,18.61,24.4,23.53
			c6.88,3.08,14.66,4.819,22.9,4.819l20.072,0.003v-1.83v-26.52l-18.352-0.003C122.93,170.08,117.73,166.2,115.74,160.78z"/>
		<path fill="#000" d="M31.67,37.65l0.02-0.01l15.183,41.735h8.405l15.406-42.329L68.83,31.95l-0.42-1.14
			c-0.32-0.83-0.66-1.65-1.03-2.46C62.73,18.13,54,9.75,42.98,4.82C36.09,1.74,28.31,0,20.07,0L0,0v1.83v26.52l18.36,0
			C24.47,28.35,29.68,32.22,31.67,37.65z"/>
	</g>
</g>
<g id="Základ_-">
	<path fill="#000" d="M287.896,42.661c-1.318-0.439-2.859-0.804-4.619-1.1c-1.76-0.292-3.52-0.44-5.279-0.44
		c-3.377,0-6.088,0.588-8.141,1.76c-2.055,1.176-3.668,2.75-4.84,4.73c-1.176,1.98-1.98,4.218-2.42,6.71
		c-0.439,2.496-0.66,4.988-0.66,7.48v11h24.42v26.84h-24.42v82.719h-36.08V99.641h-20.02v-26.84h20.02V62.241
		c0-6.744,0.732-13.162,2.2-19.25c1.465-6.084,3.994-11.439,7.59-16.06c3.593-4.62,8.433-8.285,14.521-11
		c6.084-2.713,13.673-4.07,22.769-4.07c3.08,0,6.123,0.186,9.131,0.55c3.004,0.368,5.754,0.918,8.25,1.65L287.896,42.661z"/>
	<path fill="#000" d="M377.157,182.36v-15.18h-0.441c-1.318,2.496-3.045,4.84-5.17,7.041c-2.127,2.199-4.619,4.107-7.479,5.719
		c-2.861,1.615-6.016,2.932-9.461,3.961c-3.447,1.023-7.078,1.539-10.891,1.539c-7.334,0-13.529-1.32-18.59-3.959
		c-5.059-2.641-9.168-6.051-12.32-10.23c-3.154-4.18-5.428-8.945-6.818-14.301c-1.396-5.352-2.09-10.814-2.09-16.389v-67.76h36.299
		V132.2c0,3.08,0.221,6.016,0.66,8.801c0.439,2.787,1.283,5.279,2.529,7.48c1.246,2.199,2.895,3.926,4.951,5.17
		c2.053,1.248,4.764,1.869,8.139,1.869c6.305,0,11.111-2.344,14.41-7.039c3.301-4.693,4.951-10.193,4.951-16.5v-59.18h36.08V182.36
		H377.157z"/>
	<path fill="#000" d="M510.017,182.36v-59.84c0-3.08-0.258-6.012-0.77-8.799c-0.516-2.785-1.357-5.242-2.531-7.371
		c-1.176-2.125-2.824-3.812-4.949-5.061c-2.127-1.244-4.805-1.869-8.029-1.869c-3.229,0-6.051,0.625-8.471,1.869
		c-2.42,1.248-4.438,2.971-6.051,5.17c-1.615,2.201-2.824,4.73-3.629,7.592c-0.809,2.859-1.211,5.828-1.211,8.908v59.4h-36.299
		V72.801h34.979v15.18h0.441c1.32-2.346,3.041-4.654,5.17-6.93c2.123-2.272,4.619-4.215,7.48-5.83
		c2.859-1.612,5.973-2.933,9.35-3.96c3.371-1.024,6.965-1.54,10.779-1.54c7.332,0,13.564,1.319,18.701,3.96
		c5.131,2.64,9.273,6.05,12.43,10.229c3.152,4.18,5.424,8.984,6.82,14.41c1.391,5.428,2.09,10.855,2.09,16.279v67.76H510.017z"/>
	<path fill="#000" d="M655.536,182.36v-14.299h-0.439c-3.521,5.574-8.547,9.865-15.07,12.869
		c-6.527,3.004-13.459,4.51-20.791,4.51c-8.215,0-15.547-1.615-22-4.84c-6.455-3.225-11.918-7.514-16.389-12.869
		c-4.477-5.354-7.887-11.551-10.23-18.59c-2.348-7.041-3.52-14.373-3.52-22c0-7.625,1.209-14.924,3.629-21.891
		c2.42-6.965,5.865-13.09,10.34-18.371c4.473-5.278,9.9-9.459,16.281-12.538c6.379-3.08,13.529-4.62,21.449-4.62
		c8.064,0,14.885,1.54,20.461,4.62c5.572,3.079,9.898,6.455,12.979,10.119h0.441v-68.42h36.08V182.36H655.536z M654.216,127.36
		c0-3.52-0.625-6.965-1.869-10.34c-1.248-3.371-3.008-6.379-5.281-9.02c-2.275-2.641-5.025-4.764-8.25-6.381
		c-3.227-1.611-6.895-2.42-11-2.42c-4.256,0-7.994,0.809-11.219,2.42c-3.229,1.617-5.941,3.707-8.141,6.271
		c-2.199,2.566-3.85,5.537-4.949,8.91c-1.102,3.375-1.65,6.818-1.65,10.34c0,3.52,0.549,7.004,1.65,10.449
		c1.1,3.447,2.75,6.49,4.949,9.131c2.199,2.639,4.912,4.768,8.141,6.379c3.225,1.615,6.963,2.42,11.219,2.42
		c4.105,0,7.773-0.805,11-2.42c3.225-1.611,5.975-3.74,8.25-6.379c2.273-2.641,4.033-5.645,5.281-9.021
		C653.591,134.329,654.216,130.879,654.216,127.36z"/>
	<path fill="#000" d="M717.959,182.36V16.041h36.74V182.36H717.959z"/>
	<path fill="#000" d="M823.236,37.821c0,2.788-0.549,5.39-1.65,7.81c-1.1,2.421-2.566,4.511-4.398,6.271
		c-1.836,1.76-4.037,3.155-6.602,4.18c-2.566,1.028-5.244,1.54-8.029,1.54c-5.867,0-10.779-1.942-14.74-5.83
		c-3.959-3.884-5.939-8.542-5.939-13.97c0-2.64,0.512-5.17,1.539-7.59c1.025-2.42,2.492-4.51,4.4-6.271
		c1.904-1.76,4.105-3.189,6.6-4.29c2.492-1.1,5.205-1.649,8.141-1.649c2.785,0,5.463,0.516,8.029,1.54
		c2.564,1.027,4.766,2.42,6.602,4.18c1.832,1.76,3.299,3.851,4.398,6.271C822.688,32.431,823.236,35.037,823.236,37.821z
		 M784.516,182.36V72.801h36.08V182.36H784.516z"/>
	<path fill="#000" d="M992.398,99.641v-26.84h-25.74v-28.82h-35.42v28.82h-38.523v-11c0-2.492,0.221-4.984,0.66-7.48
		c0.439-2.492,1.244-4.729,2.42-6.71c1.172-1.98,2.785-3.555,4.84-4.73c2.053-1.172,4.764-1.76,8.141-1.76
		c1.76,0,3.52,0.148,5.279,0.44c1.76,0.296,3.301,0.66,4.619,1.1l2.422-28.6c-2.496-0.732-5.246-1.282-8.25-1.65
		c-3.008-0.364-6.051-0.55-9.131-0.55c-9.096,0-16.686,1.357-22.77,4.07c-6.088,2.715-10.928,6.38-14.521,11
		s-6.125,9.976-7.59,16.06c-1.467,6.088-2.199,12.506-2.199,19.25v10.561h-20.02v26.84h20.02v82.719h36.08V99.641h38.742v46.32
		c0,5.881,0.66,11.213,1.98,15.99c1.32,4.779,3.482,8.896,6.49,12.352c3.004,3.457,7.002,6.105,11.99,7.939
		c4.984,1.836,11.145,2.758,18.48,2.758c3.811,0,7.623-0.33,11.439-0.99c3.812-0.66,6.965-1.43,9.459-2.311l-0.439-26.398
		c-1.32,0.586-2.971,1.027-4.949,1.318c-1.98,0.297-3.852,0.441-5.611,0.441c-5.135,0-8.689-1.287-10.67-3.865
		c-1.979-2.578-2.969-6.441-2.969-11.594V99.641H992.398z"/>
	<path fill="#000" d="M127.33,0c-8.24,0-16.02,1.74-22.91,4.82c-11.02,4.93-19.75,13.31-24.4,23.53
		c-0.37,0.81-0.71,1.63-1.03,2.46l-0.42,1.14L59.248,85.04H31.178v28.346h17.753l-0.682,1.873l-16.57,45.53l-0.02-0.01
		c-1.99,5.42-7.19,9.3-13.31,9.3L0,170.083v28.35l20.07-0.003c8.24,0,16.02-1.739,22.9-4.819c11.02-4.92,19.75-13.3,24.4-23.53
		c0.38-0.811,0.72-1.63,1.04-2.47c0.14-0.351,0.27-0.72,0.4-1.091l19.338-53.133h28.07V85.04H98.465l0.685-1.88l16.56-45.52
		l0.02,0.01c1.99-5.43,7.2-9.3,13.31-9.3l18.362,0V0L127.33,0z"/>
</g>
</svg>
