<?xml version="1.0" encoding="utf-8"?>
<!-- Generator: Adobe Illustrator 19.2.0, SVG Export Plug-In . SVG Version: 6.00 Build 0)  -->
<svg version="1.0" id="Layer_1" xmlns="http://www.w3.org/2000/svg" xmlns:xlink="http://www.w3.org/1999/xlink" x="0px" y="0px"
	 viewBox="0 0 150 58" style="enable-background:new 0 0 150 58;" xml:space="preserve">
<style type="text/css">
	.st0{fill:#000;}
</style>
<path class="st0" d="M149.1,35.1c-0.4-0.3-1-0.3-1.4,0.1c-0.1,0.1-7.2,7.9-13.2,7.9c-0.9,0-1.6-0.3-2.1-0.9c-1-1.3-0.8-3.9-0.5-5.4
	c5.6-0.6,11.7-6.9,11.7-11.1c0-1.1-0.4-1.9-1.1-2.5c-0.7-0.6-1.7-0.9-3-0.9c-2.9,0-5.5,1.4-7.5,3.1l6.9-14c0.2-0.5,0-1.1-0.5-1.3
	c-0.5-0.2-1.1,0-1.3,0.5L126.9,31l-0.1,0.3l-0.3,0.6c-2.8,4.8-9.6,11.1-15.5,11.1c-2.3,0-3.5-1.4-3.5-4.4c0-5.9,4.8-14.2,9.5-14.2
	c1.3,0,2.2,0.3,2.7,0.9c0.6,0.8,0.5,1.8,0.5,1.8c0,0.5,0.4,1,0.9,1.1c0.5,0,1-0.4,1.1-0.9c0,0,0.2-1.9-1-3.3
	c-0.9-1.1-2.3-1.6-4.2-1.6c-4.6,0-8.5,5.1-10.4,10.4c0,0,0,0,0,0c-1.6,3.6-5.7,10.4-9.8,10.4c-0.9,0-1.2-0.4-1.4-0.6
	c-0.8-1.1-0.3-4,0.2-5.5c0,0,0-0.1,0-0.1c1.1-2.1,2.1-4.3,3-6.3c1-2.1,1.8-3.9,2.5-4.9c0.3-0.4,0.2-1.1-0.2-1.4s-1.1-0.2-1.4,0.2
	c-0.1,0.2-0.3,0.5-0.5,0.8c-0.1-0.5-0.4-1.1-0.7-1.5c-0.9-1.1-2.3-1.7-4.1-1.7c-4.6,0-8.8,4.3-11.2,9.2c0,0,0,0,0,0
	c-1.3,2.5-6.2,5.5-13.6,8.6c3.3-6.2,7-13.8,11-22.2c1-2.1,2-4.2,3-6.2c0.2-0.4,0.2-0.8-0.1-1.1c-0.2-0.3-0.6-0.4-1-0.3
	C71.2,13.3,63.8,18,61,23.5c-1.7,3.3,0.4,5.5,1.7,6.3c0.5,0.2,1.1,0.1,1.4-0.4c0.2-0.5,0.1-1.1-0.4-1.4c-0.4-0.2-2.1-1.4-0.9-3.7
	c2.3-4.6,8.6-8.7,18-11.7c-0.7,1.4-1.3,2.8-2,4.2c-3.6,7.7-7.9,16.7-12.1,24.2c-1.2,0.4-2.5,0.9-3.9,1.4c-8.6,3-13.2,9-12.5,12.8
	c0.3,1.7,1.7,2.8,3.8,2.8c3.9,0,8.5-5.9,14-15.3c4.5-1.8,9.8-4.2,13.3-6.8c-0.3,1.2-0.4,2.3-0.4,3.4c0,1.7,0.4,3,1.1,4
	c0.8,1.1,2.1,1.7,3.7,1.7c2.9,0,5.3-1.7,7.3-4.1c0.1,1,0.3,2,0.8,2.7c0.5,0.6,1.4,1.4,3,1.4c3.5,0,6.6-3.3,8.7-6.3
	c0,1.8,0.4,3.3,1.2,4.3c0.9,1.3,2.4,2,4.2,2c4.1,0,8.4-2.5,11.8-5.6l-2,4c-0.2,0.5,0,1.1,0.5,1.3c0.1,0.1,0.3,0.1,0.4,0.1
	c0.3,0,0.7-0.2,0.9-0.6l5.8-11.7l0,0l0.2-0.3c0.1-0.1,4.9-7.9,10.9-7.9c0.8,0,1.4,0.1,1.7,0.4c0.2,0.1,0.4,0.3,0.4,0.9
	c0,3.1-5.7,9.1-10.5,9.1c-0.5,0-0.9,0.3-1,0.7c-0.1,0.5-1.3,5.2,0.7,7.8c0.6,0.8,1.7,1.7,3.7,1.7c6.9,0,14.4-8.2,14.7-8.4
	C149.5,36.1,149.5,35.5,149.1,35.1z M54,56c-1.6,0-1.8-0.9-1.8-1.2c-0.4-2.2,3-7.7,11.2-10.6c0.5-0.2,1.1-0.4,1.7-0.6
	C60.9,50.8,56.9,56,54,56z M85.8,43c-0.9,0-1.6-0.3-2.1-0.9c-0.5-0.6-0.7-1.6-0.7-2.8c0-2,0.7-4.4,1.8-6.8c0.1-0.2,0.2-0.3,0.2-0.5
	c2.1-4.2,5.6-7.9,9.3-7.9c1.2,0,2,0.3,2.3,1c0.7,0.9,0.7,2.8,0,5.2l-0.1,0.4C94,36.2,90.7,43,85.8,43z"/>
<g>
	<path class="st0" d="M49.7,32.3l-8-8c-0.1-0.1-0.2-0.2-0.3-0.2C41.3,24,41.1,24,41,24c0,0,0,0,0,0h-8c-0.6,0-1,0.4-1,1
		c0,3.9-3.1,7-7,7c-3.9,0-7-3.1-7-7c0-0.6-0.4-1-1-1H9c0,0,0,0,0,0c-0.1,0-0.3,0-0.4,0.1c-0.1,0.1-0.2,0.1-0.3,0.2l-8,8
		c-0.4,0.4-0.4,1,0,1.4l8,8C8.5,41.9,8.7,42,9,42c0.3,0,0.5-0.1,0.7-0.3l2.3-2.3c0,0.5,0,1,0,1.6v12c0,0,0,0,0,0v4c0,0.6,0.4,1,1,1
		h24c0.6,0,1-0.4,1-1V41c0-0.5,0-1.1,0-1.6l2.3,2.3c0.2,0.2,0.5,0.3,0.7,0.3c0.3,0,0.5-0.1,0.7-0.3l8-8
		C50.1,33.3,50.1,32.7,49.7,32.3z M37.9,26c-0.5,1.5-1.3,4.3-1.6,8.8L32,30.6c1-1.3,1.7-2.9,1.9-4.6H37.9z M18,30.6l-4.2,4.2
		c-0.4-4.5-1.1-7.3-1.6-8.8h3.9C16.3,27.7,16.9,29.3,18,30.6z M9,39.6L2.4,33l7-7H10c0.5,1.1,1.6,4.4,1.9,10.7L9,39.6z M25,42.4
		l11,11V56H14v-2.6L25,42.4z M36,41v9.6L25.7,40.3c-0.4-0.4-1-0.4-1.4,0L14,50.6V41c0-1.3,0-2.4-0.1-3.5l5.5-5.5
		c1.5,1.2,3.5,2,5.6,2c2.1,0,4.1-0.7,5.6-2l5.5,5.5C36,38.6,36,39.7,36,41z M40,26h0.6l7,7L41,39.6l-2.9-2.9
		C38.5,30.4,39.6,27.1,40,26z"/>
	<path class="st0" d="M16,17L16,17C16,17,16,17.1,16,17c0,0.2,0,0.3,0.1,0.4c0.1,0.1,0.1,0.2,0.2,0.3l4,4c0,0,0,0,0,0l4,4
		c0.2,0.2,0.5,0.3,0.7,0.3c0.3,0,0.5-0.1,0.7-0.3l4-4c0,0,0,0,0,0l4-4c0.1-0.1,0.2-0.2,0.2-0.3C34,17.3,34,17.1,34,17V9c0-5-4-9-9-9
		c-5,0-9,4-9,9c0,0,0,0,0,0s0,0,0,0V17C16,17,16,17,16,17z M32,16.6l-2,2V13c0-0.6-0.4-1-1-1c-0.6,0-1,0.4-1,1v7.6l-2,2V12.2
		c0-0.6-0.4-1-1-1c-0.6,0-1,0.4-1,1v10.4l-2-2V13c0-0.6-0.4-1-1-1c-0.6,0-1,0.4-1,1v5.6l-2-2V13c0-1.4,3-3,7-3c4,0,7,1.6,7,3V16.6z
		 M25,2c3.9,0,7,3.1,7,7v0.8C30.4,8.7,27.9,8,25,8s-5.4,0.7-7,1.8V9c0,0,0,0,0,0s0,0,0,0C18,5.1,21.1,2,25,2z"/>
</g>
</svg>
