<svg xmlns="http://www.w3.org/2000/svg" xmlns:xlink="http://www.w3.org/1999/xlink" width="176" height="35.5" viewBox="0 0 176 35.5">
  <path fill="#000" d="M168.838,25.807 C164.763,25.807 161.752,22.704 161.752,18.920 L161.752,18.870 C161.752,15.061 164.789,11.908 168.889,11.908 C172.989,11.908 176.000,15.010 176.000,18.820 L176.000,18.870 C176.000,22.654 172.963,25.807 168.838,25.807 ZM172.938,18.870 C172.938,16.524 171.242,14.581 168.838,14.581 C166.383,14.581 164.814,16.498 164.814,18.820 L164.814,18.870 C164.814,21.190 166.510,23.133 168.889,23.133 C171.369,23.133 172.938,21.216 172.938,18.920 L172.938,18.870 ZM156.236,17.937 C156.236,15.867 155.198,14.682 153.376,14.682 C151.604,14.682 150.364,15.918 150.364,17.987 L150.364,25.504 L147.302,25.504 L147.302,12.185 L150.364,12.185 L150.364,14.228 C151.225,12.992 152.465,11.908 154.540,11.908 C157.552,11.908 159.298,13.925 159.298,17.003 L159.298,25.504 L156.236,25.504 L156.236,17.937 ZM140.621,7.241 L143.912,7.241 L143.912,10.141 L140.621,10.141 L140.621,7.241 ZM134.371,21.342 C134.371,22.527 134.978,23.006 136.016,23.006 C136.699,23.006 137.307,22.855 137.914,22.553 L137.914,25.050 C137.155,25.479 136.320,25.731 135.155,25.731 C132.903,25.731 131.309,24.747 131.309,21.821 L131.309,14.809 L129.613,14.809 L129.613,12.185 L131.309,12.185 L131.309,8.527 L134.371,8.527 L134.371,12.185 L137.965,12.185 L137.965,14.809 L134.371,14.809 L134.371,21.342 ZM124.426,17.937 C124.426,15.867 123.388,14.682 121.566,14.682 C119.795,14.682 118.555,15.918 118.555,17.987 L118.555,25.504 L115.492,25.504 L115.492,12.185 L118.555,12.185 L118.555,14.228 C119.415,12.992 120.655,11.908 122.730,11.908 C125.742,11.908 127.488,13.925 127.488,17.003 L127.488,25.504 L124.426,25.504 L124.426,17.937 ZM103.042,19.929 C103.371,22.099 104.915,23.309 106.889,23.309 C108.382,23.309 109.445,22.754 110.508,21.720 L112.305,23.309 C111.039,24.823 109.293,25.807 106.838,25.807 C102.966,25.807 99.980,23.006 99.980,18.895 L99.980,18.845 C99.980,15.036 102.688,11.908 106.509,11.908 C110.761,11.908 112.912,15.238 112.912,19.072 C112.912,19.349 112.887,19.627 112.861,19.929 L103.042,19.929 ZM106.484,14.405 C104.611,14.405 103.295,15.843 103.017,17.911 L109.875,17.911 C109.673,15.944 108.509,14.405 106.484,14.405 ZM94.894,21.342 C94.894,22.527 95.501,23.006 96.539,23.006 C97.222,23.006 97.830,22.855 98.437,22.553 L98.437,25.050 C97.677,25.479 96.842,25.731 95.678,25.731 C93.426,25.731 91.832,24.747 91.832,21.821 L91.832,14.809 L90.136,14.809 L90.136,12.185 L91.832,12.185 L91.832,8.527 L94.894,8.527 L94.894,12.185 L98.487,12.185 L98.487,14.809 L94.894,14.809 L94.894,21.342 ZM84.949,17.937 C84.949,15.867 83.911,14.682 82.089,14.682 C80.318,14.682 79.078,15.918 79.078,17.987 L79.078,25.504 L76.015,25.504 L76.015,12.185 L79.078,12.185 L79.078,14.228 C79.938,12.992 81.178,11.908 83.253,11.908 C86.265,11.908 88.011,13.925 88.011,17.003 L88.011,25.504 L84.949,25.504 L84.949,17.937 ZM66.247,25.807 C62.173,25.807 59.161,22.704 59.161,18.920 L59.161,18.870 C59.161,15.061 62.198,11.908 66.298,11.908 C70.398,11.908 73.409,15.010 73.409,18.820 L73.409,18.870 C73.409,22.654 70.372,25.807 66.247,25.807 ZM70.347,18.870 C70.347,16.524 68.652,14.581 66.247,14.581 C63.792,14.581 62.223,16.498 62.223,18.820 L62.223,18.870 C62.223,21.190 63.919,23.133 66.298,23.133 C68.778,23.133 70.347,21.216 70.347,18.920 L70.347,18.870 ZM55.062,25.504 L49.014,17.558 L46.255,20.383 L46.255,25.504 L43.143,25.504 L43.143,7.846 L46.255,7.846 L46.255,16.726 L54.683,7.846 L58.530,7.846 L51.140,15.439 L58.859,25.504 L55.062,25.504 ZM17.809,35.513 C12.891,35.513 8.439,33.526 5.216,30.314 C1.993,27.102 0.000,22.664 0.000,17.762 C0.000,7.959 7.973,0.011 17.809,0.011 C22.726,0.011 27.179,1.998 30.402,5.210 C33.625,8.423 35.618,12.860 35.618,17.762 C35.618,27.566 27.644,35.513 17.809,35.513 ZM26.530,10.774 L26.121,10.055 L25.712,9.336 C25.712,9.336 25.712,9.336 25.712,9.336 C25.520,8.998 25.108,8.914 24.798,9.150 L20.573,12.369 L15.784,16.018 L13.543,14.311 L11.865,13.032 C11.555,12.795 11.144,12.879 10.951,13.218 L10.548,13.928 L10.144,14.637 C9.952,14.976 10.050,15.444 10.363,15.677 L12.789,17.491 L15.216,19.305 C15.216,19.305 15.217,19.305 15.217,19.305 C15.530,19.538 16.040,19.537 16.352,19.303 L21.332,15.559 L26.313,11.816 L26.313,11.816 C26.624,11.581 26.722,11.112 26.530,10.774 ZM27.349,22.555 C27.349,21.816 26.748,21.217 26.007,21.217 L9.610,21.217 C8.869,21.217 8.268,21.816 8.268,22.555 C8.268,23.294 8.869,23.893 9.610,23.893 L26.007,23.893 C26.748,23.893 27.349,23.294 27.349,22.555 ZM143.810,25.504 L140.748,25.504 L140.748,12.185 L143.810,12.185 L143.810,25.504 Z" />
</svg>
