<svg xmlns="http://www.w3.org/2000/svg" viewBox="0 0 355.64 80.86"><defs><style>.cls-1{fill:#1d1d1b;}</style></defs><title>loono-logo</title><g id="Layer_2" data-name="Layer 2"><g id="Vrstva_1" data-name="Vrstva 1"><path d="M36.16,42.66C30,41.43,26,36.75,22,32.2c-4.55-5.29-9.25-10.75-17.38-11a39.68,39.68,0,0,0,31.5,58.18Z"/><path d="M23.62,30.94C28.07,36.1,32.27,41,39.32,41h.32C46.78,41,51,36.08,55.53,30.89c4.7-5.41,9.58-11,18.06-11.66a39.7,39.7,0,0,0-67.86.08C14.15,20,19,25.53,23.62,30.94Z"/><path d="M74.67,21.13c-8.2.26-13,5.73-17.56,11-3.82,4.41-7.77,8.93-13.64,10.36V79.36a39.68,39.68,0,0,0,31.2-58.23Z"/><path d="M41.41,42.88c-.35,0-.71.06-1.07.07v0H38.62v0l-.41,0V79.51c.49,0,1,0,1.48,0s1.15,0,1.72,0Z"/><path class="cls-1" d="M101.05,0V79.73H96.61V0Z"/><path class="cls-1" d="M143.24,24.68a25.58,25.58,0,0,1,19.91,8.76,27.74,27.74,0,0,1,7.27,19.22,28.81,28.81,0,0,1-6.59,18.54,25.25,25.25,0,0,1-20.59,9.66q-12.62,0-20.47-9.21a28.75,28.75,0,0,1-.45-37.19Q130.27,24.68,143.24,24.68Zm0,52.2a20.63,20.63,0,0,0,17.18-8.41A25.2,25.2,0,0,0,166,52.66a24.2,24.2,0,0,0-6.14-16.38,22.16,22.16,0,0,0-33-.45,24.35,24.35,0,0,0-6.43,16.83,25,25,0,0,0,5.69,16.15A21.13,21.13,0,0,0,143.24,76.88Z"/><path class="cls-1" d="M208.25,24.68a25.56,25.56,0,0,1,19.9,8.76,27.75,27.75,0,0,1,7.28,19.22,28.76,28.76,0,0,1-6.6,18.54,25.23,25.23,0,0,1-20.58,9.66q-12.63,0-20.47-9.21a28.74,28.74,0,0,1-.46-37.19Q195.29,24.68,208.25,24.68Zm0,52.2a20.61,20.61,0,0,0,17.17-8.41A25.2,25.2,0,0,0,231,52.66a24.15,24.15,0,0,0-6.14-16.38,22.16,22.16,0,0,0-33-.45,24.39,24.39,0,0,0-6.42,16.83,25,25,0,0,0,5.68,16.15A21.15,21.15,0,0,0,208.25,76.88Z"/><path class="cls-1" d="M251.24,79.73H246.8V46.18A23.08,23.08,0,0,1,250.89,33q5.69-8.29,16.72-8.3,9.43,0,15.7,5.69Q290,36.51,290,46.63v33.1h-4.44V47.31a20,20,0,0,0-3.75-11.94q-4.77-6.7-13.53-6.71a16.11,16.11,0,0,0-12.06,5.23,17.45,17.45,0,0,0-5,12.51Z"/><path class="cls-1" d="M328.46,24.68a25.54,25.54,0,0,1,19.9,8.76,27.75,27.75,0,0,1,7.28,19.22,28.81,28.81,0,0,1-6.59,18.54,25.26,25.26,0,0,1-20.59,9.66q-12.63,0-20.47-9.21a28.77,28.77,0,0,1-.46-37.19Q315.5,24.68,328.46,24.68Zm0,52.2a20.61,20.61,0,0,0,17.17-8.41,25.15,25.15,0,0,0,5.58-15.81,24.16,24.16,0,0,0-6.15-16.38,22.14,22.14,0,0,0-33-.45,24.35,24.35,0,0,0-6.43,16.83,25,25,0,0,0,5.69,16.15A21.12,21.12,0,0,0,328.46,76.88Z"/></g></g></svg>