<?xml version="1.0" encoding="utf-8"?>
<!-- Generator: Adobe Illustrator 17.0.0, SVG Export Plug-In . SVG Version: 6.00 Build 0)  -->
<!DOCTYPE svg PUBLIC "-//W3C//DTD SVG 1.0//EN" "http://www.w3.org/TR/2001/REC-SVG-20010904/DTD/svg10.dtd">
<svg version="1.0" id="Vrstva_1" xmlns="http://www.w3.org/2000/svg" xmlns:xlink="http://www.w3.org/1999/xlink" x="0px" y="0px"
	 width="175.409px" height="40.281px" viewBox="0 0 175.409 40.281" enable-background="new 0 0 175.409 40.281"
	 xml:space="preserve">
<g>
	<path fill="#000" d="M57.399,36.436v-3.132c-1.62,1.835-4.59,3.78-9.018,3.78c-5.887,0-8.587-3.402-8.587-8.155V10.352h8.317
		v15.121c0,3.186,1.62,4.266,4.32,4.266c2.376,0,3.996-1.295,4.968-2.538V10.352h8.316v26.084H57.399z"/>
	<path fill="#000" d="M81.218,16.401c-3.618,0-5.022,2.159-5.346,4.05h10.746C86.402,18.615,85.052,16.401,81.218,16.401
		 M67.393,23.367c0-7.561,5.671-13.663,13.825-13.663c7.722,0,13.339,5.671,13.339,14.527v1.89H75.98
		c0.594,2.323,2.753,4.267,6.534,4.267c1.836,0,4.86-0.811,6.372-2.215l3.619,5.455c-2.593,2.322-6.913,3.457-10.909,3.457
		C73.549,37.085,67.393,31.846,67.393,23.367"/>
	<path fill="#000" d="M109.466,16.401c-3.618,0-5.022,2.159-5.346,4.05h10.746C114.65,18.615,113.3,16.401,109.466,16.401
		 M95.641,23.367c0-7.561,5.671-13.663,13.825-13.663c7.723,0,13.339,5.671,13.339,14.527v1.89h-18.578
		c0.594,2.323,2.754,4.267,6.535,4.267c1.836,0,4.86-0.811,6.372-2.215l3.619,5.455c-2.593,2.322-6.913,3.457-10.909,3.457
		C101.797,37.085,95.641,31.846,95.641,23.367"/>
	<path fill="#000" d="M141.87,36.436V21.369c0-3.187-1.674-4.32-4.267-4.32c-2.483,0-4.104,1.349-5.076,2.537v16.85h-8.317
		V10.352h8.317v3.186c1.566-1.836,4.645-3.834,9.072-3.834c5.887,0,8.588,3.456,8.588,8.263v18.469H141.87z"/>
	<path fill="#000" d="M151.324,33.034l3.456-5.94c1.944,1.728,6.102,3.51,9.181,3.51c2.484,0,3.51-0.702,3.51-1.837
		c0-3.239-15.176,0.109-15.176-10.476c0-4.591,3.997-8.587,11.18-8.587c4.428,0,8.1,1.404,10.908,3.457l-3.186,5.886
		c-1.566-1.512-4.537-2.862-7.669-2.862c-1.944,0-3.239,0.756-3.239,1.782c0,2.862,15.12-0.108,15.12,10.585
		c0,4.968-4.374,8.533-11.826,8.533C158.884,37.085,154.078,35.518,151.324,33.034"/>
	<path fill="#000" d="M18.631,29.055c-5.757,0-10.423-4.667-10.423-10.424S12.874,8.208,18.631,8.208
		c5.757,0,10.423,4.666,10.423,10.423S24.388,29.055,18.631,29.055 M18.631,0C8.341,0,0,8.341,0,18.631s8.341,18.631,18.631,18.631
		c10.29,0,18.631-8.341,18.631-18.631S28.921,0,18.631,0"/>
	
		<rect x="23.506" y="18.582" transform="matrix(-0.7758 0.631 -0.631 -0.7758 67.2234 34.9485)" fill="#000" width="7.794" height="21.669"/>
</g>
<g>
</g>
<g>
</g>
<g>
</g>
<g>
</g>
<g>
</g>
<g>
</g>
<g>
</g>
<g>
</g>
<g>
</g>
<g>
</g>
<g>
</g>
<g>
</g>
<g>
</g>
<g>
</g>
<g>
</g>
</svg>
