<?xml version="1.0" standalone="no"?>
<svg xmlns="http://www.w3.org/2000/svg" version="1.1" width="255" height="255">
	<!-- Created with https://api.qrserver.com (QR Code API, see goQR.me/api for information) -->
	<title>QR Code</title>
	<desc>BEGIN:VCARD
VERSION:2.1
FN:Jan Antonin Kolar
N:Kolar;Jan Antonin
TEL;WORK;VOICE:+420 775 272 827
EMAIL;WORK;INTERNET:jan@statusquack.com
URL:https://statusquack.com
ORG:Status Quack
END:VCARD
</desc>
	<rect style="fill:rgb(255, 255, 255);fill-opacity:1" x="0" y="0" width="255" height="255" />
	<g id="elements">
		<path style="fill:rgb(17, 17, 68)" d="M 5,5 l 5,0 0,5 -5,0 z M 10,5 l 5,0 0,5 -5,0 z M 15,5 l 5,0 0,5 -5,0 z M 20,5 l 5,0 0,5 -5,0 z M 25,5 l 5,0 0,5 -5,0 z M 30,5 l 5,0 0,5 -5,0 z M 35,5 l 5,0 0,5 -5,0 z M 50,5 l 5,0 0,5 -5,0 z M 60,5 l 5,0 0,5 -5,0 z M 65,5 l 5,0 0,5 -5,0 z M 80,5 l 5,0 0,5 -5,0 z M 85,5 l 5,0 0,5 -5,0 z M 95,5 l 5,0 0,5 -5,0 z M 100,5 l 5,0 0,5 -5,0 z M 105,5 l 5,0 0,5 -5,0 z M 120,5 l 5,0 0,5 -5,0 z M 125,5 l 5,0 0,5 -5,0 z M 145,5 l 5,0 0,5 -5,0 z M 150,5 l 5,0 0,5 -5,0 z M 160,5 l 5,0 0,5 -5,0 z M 180,5 l 5,0 0,5 -5,0 z M 190,5 l 5,0 0,5 -5,0 z M 205,5 l 5,0 0,5 -5,0 z M 215,5 l 5,0 0,5 -5,0 z M 220,5 l 5,0 0,5 -5,0 z M 225,5 l 5,0 0,5 -5,0 z M 230,5 l 5,0 0,5 -5,0 z M 235,5 l 5,0 0,5 -5,0 z M 240,5 l 5,0 0,5 -5,0 z M 245,5 l 5,0 0,5 -5,0 z M 5,10 l 5,0 0,5 -5,0 z M 35,10 l 5,0 0,5 -5,0 z M 45,10 l 5,0 0,5 -5,0 z M 50,10 l 5,0 0,5 -5,0 z M 60,10 l 5,0 0,5 -5,0 z M 65,10 l 5,0 0,5 -5,0 z M 70,10 l 5,0 0,5 -5,0 z M 105,10 l 5,0 0,5 -5,0 z M 110,10 l 5,0 0,5 -5,0 z M 120,10 l 5,0 0,5 -5,0 z M 125,10 l 5,0 0,5 -5,0 z M 130,10 l 5,0 0,5 -5,0 z M 140,10 l 5,0 0,5 -5,0 z M 145,10 l 5,0 0,5 -5,0 z M 150,10 l 5,0 0,5 -5,0 z M 155,10 l 5,0 0,5 -5,0 z M 165,10 l 5,0 0,5 -5,0 z M 175,10 l 5,0 0,5 -5,0 z M 190,10 l 5,0 0,5 -5,0 z M 195,10 l 5,0 0,5 -5,0 z M 200,10 l 5,0 0,5 -5,0 z M 205,10 l 5,0 0,5 -5,0 z M 215,10 l 5,0 0,5 -5,0 z M 245,10 l 5,0 0,5 -5,0 z M 5,15 l 5,0 0,5 -5,0 z M 15,15 l 5,0 0,5 -5,0 z M 20,15 l 5,0 0,5 -5,0 z M 25,15 l 5,0 0,5 -5,0 z M 35,15 l 5,0 0,5 -5,0 z M 60,15 l 5,0 0,5 -5,0 z M 65,15 l 5,0 0,5 -5,0 z M 80,15 l 5,0 0,5 -5,0 z M 90,15 l 5,0 0,5 -5,0 z M 100,15 l 5,0 0,5 -5,0 z M 110,15 l 5,0 0,5 -5,0 z M 120,15 l 5,0 0,5 -5,0 z M 125,15 l 5,0 0,5 -5,0 z M 130,15 l 5,0 0,5 -5,0 z M 135,15 l 5,0 0,5 -5,0 z M 140,15 l 5,0 0,5 -5,0 z M 145,15 l 5,0 0,5 -5,0 z M 160,15 l 5,0 0,5 -5,0 z M 165,15 l 5,0 0,5 -5,0 z M 175,15 l 5,0 0,5 -5,0 z M 200,15 l 5,0 0,5 -5,0 z M 205,15 l 5,0 0,5 -5,0 z M 215,15 l 5,0 0,5 -5,0 z M 225,15 l 5,0 0,5 -5,0 z M 230,15 l 5,0 0,5 -5,0 z M 235,15 l 5,0 0,5 -5,0 z M 245,15 l 5,0 0,5 -5,0 z M 5,20 l 5,0 0,5 -5,0 z M 15,20 l 5,0 0,5 -5,0 z M 20,20 l 5,0 0,5 -5,0 z M 25,20 l 5,0 0,5 -5,0 z M 35,20 l 5,0 0,5 -5,0 z M 45,20 l 5,0 0,5 -5,0 z M 50,20 l 5,0 0,5 -5,0 z M 95,20 l 5,0 0,5 -5,0 z M 105,20 l 5,0 0,5 -5,0 z M 110,20 l 5,0 0,5 -5,0 z M 115,20 l 5,0 0,5 -5,0 z M 135,20 l 5,0 0,5 -5,0 z M 175,20 l 5,0 0,5 -5,0 z M 180,20 l 5,0 0,5 -5,0 z M 185,20 l 5,0 0,5 -5,0 z M 200,20 l 5,0 0,5 -5,0 z M 215,20 l 5,0 0,5 -5,0 z M 225,20 l 5,0 0,5 -5,0 z M 230,20 l 5,0 0,5 -5,0 z M 235,20 l 5,0 0,5 -5,0 z M 245,20 l 5,0 0,5 -5,0 z M 5,25 l 5,0 0,5 -5,0 z M 15,25 l 5,0 0,5 -5,0 z M 20,25 l 5,0 0,5 -5,0 z M 25,25 l 5,0 0,5 -5,0 z M 35,25 l 5,0 0,5 -5,0 z M 85,25 l 5,0 0,5 -5,0 z M 95,25 l 5,0 0,5 -5,0 z M 105,25 l 5,0 0,5 -5,0 z M 110,25 l 5,0 0,5 -5,0 z M 115,25 l 5,0 0,5 -5,0 z M 120,25 l 5,0 0,5 -5,0 z M 125,25 l 5,0 0,5 -5,0 z M 130,25 l 5,0 0,5 -5,0 z M 135,25 l 5,0 0,5 -5,0 z M 150,25 l 5,0 0,5 -5,0 z M 155,25 l 5,0 0,5 -5,0 z M 165,25 l 5,0 0,5 -5,0 z M 185,25 l 5,0 0,5 -5,0 z M 215,25 l 5,0 0,5 -5,0 z M 225,25 l 5,0 0,5 -5,0 z M 230,25 l 5,0 0,5 -5,0 z M 235,25 l 5,0 0,5 -5,0 z M 245,25 l 5,0 0,5 -5,0 z M 5,30 l 5,0 0,5 -5,0 z M 35,30 l 5,0 0,5 -5,0 z M 45,30 l 5,0 0,5 -5,0 z M 65,30 l 5,0 0,5 -5,0 z M 70,30 l 5,0 0,5 -5,0 z M 80,30 l 5,0 0,5 -5,0 z M 100,30 l 5,0 0,5 -5,0 z M 105,30 l 5,0 0,5 -5,0 z M 110,30 l 5,0 0,5 -5,0 z M 115,30 l 5,0 0,5 -5,0 z M 135,30 l 5,0 0,5 -5,0 z M 140,30 l 5,0 0,5 -5,0 z M 155,30 l 5,0 0,5 -5,0 z M 160,30 l 5,0 0,5 -5,0 z M 165,30 l 5,0 0,5 -5,0 z M 170,30 l 5,0 0,5 -5,0 z M 175,30 l 5,0 0,5 -5,0 z M 180,30 l 5,0 0,5 -5,0 z M 185,30 l 5,0 0,5 -5,0 z M 195,30 l 5,0 0,5 -5,0 z M 215,30 l 5,0 0,5 -5,0 z M 245,30 l 5,0 0,5 -5,0 z M 5,35 l 5,0 0,5 -5,0 z M 10,35 l 5,0 0,5 -5,0 z M 15,35 l 5,0 0,5 -5,0 z M 20,35 l 5,0 0,5 -5,0 z M 25,35 l 5,0 0,5 -5,0 z M 30,35 l 5,0 0,5 -5,0 z M 35,35 l 5,0 0,5 -5,0 z M 45,35 l 5,0 0,5 -5,0 z M 55,35 l 5,0 0,5 -5,0 z M 65,35 l 5,0 0,5 -5,0 z M 75,35 l 5,0 0,5 -5,0 z M 85,35 l 5,0 0,5 -5,0 z M 95,35 l 5,0 0,5 -5,0 z M 105,35 l 5,0 0,5 -5,0 z M 115,35 l 5,0 0,5 -5,0 z M 125,35 l 5,0 0,5 -5,0 z M 135,35 l 5,0 0,5 -5,0 z M 145,35 l 5,0 0,5 -5,0 z M 155,35 l 5,0 0,5 -5,0 z M 165,35 l 5,0 0,5 -5,0 z M 175,35 l 5,0 0,5 -5,0 z M 185,35 l 5,0 0,5 -5,0 z M 195,35 l 5,0 0,5 -5,0 z M 205,35 l 5,0 0,5 -5,0 z M 215,35 l 5,0 0,5 -5,0 z M 220,35 l 5,0 0,5 -5,0 z M 225,35 l 5,0 0,5 -5,0 z M 230,35 l 5,0 0,5 -5,0 z M 235,35 l 5,0 0,5 -5,0 z M 240,35 l 5,0 0,5 -5,0 z M 245,35 l 5,0 0,5 -5,0 z M 65,40 l 5,0 0,5 -5,0 z M 70,40 l 5,0 0,5 -5,0 z M 105,40 l 5,0 0,5 -5,0 z M 115,40 l 5,0 0,5 -5,0 z M 135,40 l 5,0 0,5 -5,0 z M 140,40 l 5,0 0,5 -5,0 z M 155,40 l 5,0 0,5 -5,0 z M 160,40 l 5,0 0,5 -5,0 z M 170,40 l 5,0 0,5 -5,0 z M 175,40 l 5,0 0,5 -5,0 z M 180,40 l 5,0 0,5 -5,0 z M 185,40 l 5,0 0,5 -5,0 z M 200,40 l 5,0 0,5 -5,0 z M 5,45 l 5,0 0,5 -5,0 z M 10,45 l 5,0 0,5 -5,0 z M 15,45 l 5,0 0,5 -5,0 z M 20,45 l 5,0 0,5 -5,0 z M 25,45 l 5,0 0,5 -5,0 z M 35,45 l 5,0 0,5 -5,0 z M 40,45 l 5,0 0,5 -5,0 z M 45,45 l 5,0 0,5 -5,0 z M 50,45 l 5,0 0,5 -5,0 z M 55,45 l 5,0 0,5 -5,0 z M 80,45 l 5,0 0,5 -5,0 z M 105,45 l 5,0 0,5 -5,0 z M 115,45 l 5,0 0,5 -5,0 z M 120,45 l 5,0 0,5 -5,0 z M 125,45 l 5,0 0,5 -5,0 z M 130,45 l 5,0 0,5 -5,0 z M 135,45 l 5,0 0,5 -5,0 z M 140,45 l 5,0 0,5 -5,0 z M 150,45 l 5,0 0,5 -5,0 z M 155,45 l 5,0 0,5 -5,0 z M 165,45 l 5,0 0,5 -5,0 z M 175,45 l 5,0 0,5 -5,0 z M 185,45 l 5,0 0,5 -5,0 z M 190,45 l 5,0 0,5 -5,0 z M 195,45 l 5,0 0,5 -5,0 z M 200,45 l 5,0 0,5 -5,0 z M 205,45 l 5,0 0,5 -5,0 z M 210,45 l 5,0 0,5 -5,0 z M 220,45 l 5,0 0,5 -5,0 z M 230,45 l 5,0 0,5 -5,0 z M 240,45 l 5,0 0,5 -5,0 z M 5,50 l 5,0 0,5 -5,0 z M 10,50 l 5,0 0,5 -5,0 z M 15,50 l 5,0 0,5 -5,0 z M 20,50 l 5,0 0,5 -5,0 z M 30,50 l 5,0 0,5 -5,0 z M 50,50 l 5,0 0,5 -5,0 z M 55,50 l 5,0 0,5 -5,0 z M 60,50 l 5,0 0,5 -5,0 z M 65,50 l 5,0 0,5 -5,0 z M 80,50 l 5,0 0,5 -5,0 z M 85,50 l 5,0 0,5 -5,0 z M 95,50 l 5,0 0,5 -5,0 z M 100,50 l 5,0 0,5 -5,0 z M 115,50 l 5,0 0,5 -5,0 z M 130,50 l 5,0 0,5 -5,0 z M 145,50 l 5,0 0,5 -5,0 z M 150,50 l 5,0 0,5 -5,0 z M 155,50 l 5,0 0,5 -5,0 z M 160,50 l 5,0 0,5 -5,0 z M 165,50 l 5,0 0,5 -5,0 z M 180,50 l 5,0 0,5 -5,0 z M 200,50 l 5,0 0,5 -5,0 z M 205,50 l 5,0 0,5 -5,0 z M 210,50 l 5,0 0,5 -5,0 z M 215,50 l 5,0 0,5 -5,0 z M 225,50 l 5,0 0,5 -5,0 z M 235,50 l 5,0 0,5 -5,0 z M 240,50 l 5,0 0,5 -5,0 z M 245,50 l 5,0 0,5 -5,0 z M 25,55 l 5,0 0,5 -5,0 z M 30,55 l 5,0 0,5 -5,0 z M 35,55 l 5,0 0,5 -5,0 z M 40,55 l 5,0 0,5 -5,0 z M 55,55 l 5,0 0,5 -5,0 z M 60,55 l 5,0 0,5 -5,0 z M 85,55 l 5,0 0,5 -5,0 z M 100,55 l 5,0 0,5 -5,0 z M 105,55 l 5,0 0,5 -5,0 z M 110,55 l 5,0 0,5 -5,0 z M 130,55 l 5,0 0,5 -5,0 z M 135,55 l 5,0 0,5 -5,0 z M 140,55 l 5,0 0,5 -5,0 z M 145,55 l 5,0 0,5 -5,0 z M 150,55 l 5,0 0,5 -5,0 z M 170,55 l 5,0 0,5 -5,0 z M 175,55 l 5,0 0,5 -5,0 z M 185,55 l 5,0 0,5 -5,0 z M 205,55 l 5,0 0,5 -5,0 z M 210,55 l 5,0 0,5 -5,0 z M 5,60 l 5,0 0,5 -5,0 z M 10,60 l 5,0 0,5 -5,0 z M 30,60 l 5,0 0,5 -5,0 z M 45,60 l 5,0 0,5 -5,0 z M 65,60 l 5,0 0,5 -5,0 z M 70,60 l 5,0 0,5 -5,0 z M 80,60 l 5,0 0,5 -5,0 z M 85,60 l 5,0 0,5 -5,0 z M 90,60 l 5,0 0,5 -5,0 z M 105,60 l 5,0 0,5 -5,0 z M 110,60 l 5,0 0,5 -5,0 z M 125,60 l 5,0 0,5 -5,0 z M 135,60 l 5,0 0,5 -5,0 z M 140,60 l 5,0 0,5 -5,0 z M 175,60 l 5,0 0,5 -5,0 z M 180,60 l 5,0 0,5 -5,0 z M 195,60 l 5,0 0,5 -5,0 z M 200,60 l 5,0 0,5 -5,0 z M 205,60 l 5,0 0,5 -5,0 z M 215,60 l 5,0 0,5 -5,0 z M 225,60 l 5,0 0,5 -5,0 z M 235,60 l 5,0 0,5 -5,0 z M 245,60 l 5,0 0,5 -5,0 z M 10,65 l 5,0 0,5 -5,0 z M 20,65 l 5,0 0,5 -5,0 z M 30,65 l 5,0 0,5 -5,0 z M 35,65 l 5,0 0,5 -5,0 z M 40,65 l 5,0 0,5 -5,0 z M 50,65 l 5,0 0,5 -5,0 z M 85,65 l 5,0 0,5 -5,0 z M 95,65 l 5,0 0,5 -5,0 z M 115,65 l 5,0 0,5 -5,0 z M 120,65 l 5,0 0,5 -5,0 z M 125,65 l 5,0 0,5 -5,0 z M 130,65 l 5,0 0,5 -5,0 z M 135,65 l 5,0 0,5 -5,0 z M 150,65 l 5,0 0,5 -5,0 z M 160,65 l 5,0 0,5 -5,0 z M 170,65 l 5,0 0,5 -5,0 z M 175,65 l 5,0 0,5 -5,0 z M 180,65 l 5,0 0,5 -5,0 z M 185,65 l 5,0 0,5 -5,0 z M 195,65 l 5,0 0,5 -5,0 z M 205,65 l 5,0 0,5 -5,0 z M 215,65 l 5,0 0,5 -5,0 z M 220,65 l 5,0 0,5 -5,0 z M 230,65 l 5,0 0,5 -5,0 z M 235,65 l 5,0 0,5 -5,0 z M 240,65 l 5,0 0,5 -5,0 z M 245,65 l 5,0 0,5 -5,0 z M 5,70 l 5,0 0,5 -5,0 z M 10,70 l 5,0 0,5 -5,0 z M 40,70 l 5,0 0,5 -5,0 z M 50,70 l 5,0 0,5 -5,0 z M 55,70 l 5,0 0,5 -5,0 z M 65,70 l 5,0 0,5 -5,0 z M 90,70 l 5,0 0,5 -5,0 z M 95,70 l 5,0 0,5 -5,0 z M 105,70 l 5,0 0,5 -5,0 z M 110,70 l 5,0 0,5 -5,0 z M 115,70 l 5,0 0,5 -5,0 z M 125,70 l 5,0 0,5 -5,0 z M 130,70 l 5,0 0,5 -5,0 z M 140,70 l 5,0 0,5 -5,0 z M 150,70 l 5,0 0,5 -5,0 z M 155,70 l 5,0 0,5 -5,0 z M 165,70 l 5,0 0,5 -5,0 z M 190,70 l 5,0 0,5 -5,0 z M 200,70 l 5,0 0,5 -5,0 z M 210,70 l 5,0 0,5 -5,0 z M 215,70 l 5,0 0,5 -5,0 z M 220,70 l 5,0 0,5 -5,0 z M 225,70 l 5,0 0,5 -5,0 z M 230,70 l 5,0 0,5 -5,0 z M 245,70 l 5,0 0,5 -5,0 z M 15,75 l 5,0 0,5 -5,0 z M 20,75 l 5,0 0,5 -5,0 z M 35,75 l 5,0 0,5 -5,0 z M 85,75 l 5,0 0,5 -5,0 z M 105,75 l 5,0 0,5 -5,0 z M 120,75 l 5,0 0,5 -5,0 z M 125,75 l 5,0 0,5 -5,0 z M 130,75 l 5,0 0,5 -5,0 z M 140,75 l 5,0 0,5 -5,0 z M 165,75 l 5,0 0,5 -5,0 z M 170,75 l 5,0 0,5 -5,0 z M 175,75 l 5,0 0,5 -5,0 z M 180,75 l 5,0 0,5 -5,0 z M 200,75 l 5,0 0,5 -5,0 z M 220,75 l 5,0 0,5 -5,0 z M 230,75 l 5,0 0,5 -5,0 z M 235,75 l 5,0 0,5 -5,0 z M 245,75 l 5,0 0,5 -5,0 z M 15,80 l 5,0 0,5 -5,0 z M 30,80 l 5,0 0,5 -5,0 z M 55,80 l 5,0 0,5 -5,0 z M 70,80 l 5,0 0,5 -5,0 z M 75,80 l 5,0 0,5 -5,0 z M 90,80 l 5,0 0,5 -5,0 z M 115,80 l 5,0 0,5 -5,0 z M 120,80 l 5,0 0,5 -5,0 z M 130,80 l 5,0 0,5 -5,0 z M 140,80 l 5,0 0,5 -5,0 z M 145,80 l 5,0 0,5 -5,0 z M 170,80 l 5,0 0,5 -5,0 z M 175,80 l 5,0 0,5 -5,0 z M 180,80 l 5,0 0,5 -5,0 z M 195,80 l 5,0 0,5 -5,0 z M 210,80 l 5,0 0,5 -5,0 z M 215,80 l 5,0 0,5 -5,0 z M 220,80 l 5,0 0,5 -5,0 z M 235,80 l 5,0 0,5 -5,0 z M 240,80 l 5,0 0,5 -5,0 z M 245,80 l 5,0 0,5 -5,0 z M 5,85 l 5,0 0,5 -5,0 z M 25,85 l 5,0 0,5 -5,0 z M 35,85 l 5,0 0,5 -5,0 z M 40,85 l 5,0 0,5 -5,0 z M 55,85 l 5,0 0,5 -5,0 z M 65,85 l 5,0 0,5 -5,0 z M 80,85 l 5,0 0,5 -5,0 z M 120,85 l 5,0 0,5 -5,0 z M 125,85 l 5,0 0,5 -5,0 z M 140,85 l 5,0 0,5 -5,0 z M 145,85 l 5,0 0,5 -5,0 z M 150,85 l 5,0 0,5 -5,0 z M 155,85 l 5,0 0,5 -5,0 z M 165,85 l 5,0 0,5 -5,0 z M 170,85 l 5,0 0,5 -5,0 z M 180,85 l 5,0 0,5 -5,0 z M 185,85 l 5,0 0,5 -5,0 z M 190,85 l 5,0 0,5 -5,0 z M 195,85 l 5,0 0,5 -5,0 z M 220,85 l 5,0 0,5 -5,0 z M 230,85 l 5,0 0,5 -5,0 z M 240,85 l 5,0 0,5 -5,0 z M 245,85 l 5,0 0,5 -5,0 z M 5,90 l 5,0 0,5 -5,0 z M 10,90 l 5,0 0,5 -5,0 z M 15,90 l 5,0 0,5 -5,0 z M 25,90 l 5,0 0,5 -5,0 z M 40,90 l 5,0 0,5 -5,0 z M 85,90 l 5,0 0,5 -5,0 z M 95,90 l 5,0 0,5 -5,0 z M 105,90 l 5,0 0,5 -5,0 z M 110,90 l 5,0 0,5 -5,0 z M 115,90 l 5,0 0,5 -5,0 z M 130,90 l 5,0 0,5 -5,0 z M 145,90 l 5,0 0,5 -5,0 z M 150,90 l 5,0 0,5 -5,0 z M 155,90 l 5,0 0,5 -5,0 z M 160,90 l 5,0 0,5 -5,0 z M 165,90 l 5,0 0,5 -5,0 z M 180,90 l 5,0 0,5 -5,0 z M 185,90 l 5,0 0,5 -5,0 z M 195,90 l 5,0 0,5 -5,0 z M 200,90 l 5,0 0,5 -5,0 z M 205,90 l 5,0 0,5 -5,0 z M 215,90 l 5,0 0,5 -5,0 z M 225,90 l 5,0 0,5 -5,0 z M 230,90 l 5,0 0,5 -5,0 z M 235,90 l 5,0 0,5 -5,0 z M 240,90 l 5,0 0,5 -5,0 z M 245,90 l 5,0 0,5 -5,0 z M 5,95 l 5,0 0,5 -5,0 z M 10,95 l 5,0 0,5 -5,0 z M 15,95 l 5,0 0,5 -5,0 z M 20,95 l 5,0 0,5 -5,0 z M 25,95 l 5,0 0,5 -5,0 z M 30,95 l 5,0 0,5 -5,0 z M 35,95 l 5,0 0,5 -5,0 z M 45,95 l 5,0 0,5 -5,0 z M 50,95 l 5,0 0,5 -5,0 z M 55,95 l 5,0 0,5 -5,0 z M 75,95 l 5,0 0,5 -5,0 z M 100,95 l 5,0 0,5 -5,0 z M 115,95 l 5,0 0,5 -5,0 z M 125,95 l 5,0 0,5 -5,0 z M 135,95 l 5,0 0,5 -5,0 z M 140,95 l 5,0 0,5 -5,0 z M 145,95 l 5,0 0,5 -5,0 z M 150,95 l 5,0 0,5 -5,0 z M 195,95 l 5,0 0,5 -5,0 z M 205,95 l 5,0 0,5 -5,0 z M 220,95 l 5,0 0,5 -5,0 z M 235,95 l 5,0 0,5 -5,0 z M 240,95 l 5,0 0,5 -5,0 z M 5,100 l 5,0 0,5 -5,0 z M 15,100 l 5,0 0,5 -5,0 z M 20,100 l 5,0 0,5 -5,0 z M 25,100 l 5,0 0,5 -5,0 z M 30,100 l 5,0 0,5 -5,0 z M 40,100 l 5,0 0,5 -5,0 z M 55,100 l 5,0 0,5 -5,0 z M 60,100 l 5,0 0,5 -5,0 z M 75,100 l 5,0 0,5 -5,0 z M 85,100 l 5,0 0,5 -5,0 z M 90,100 l 5,0 0,5 -5,0 z M 100,100 l 5,0 0,5 -5,0 z M 120,100 l 5,0 0,5 -5,0 z M 125,100 l 5,0 0,5 -5,0 z M 135,100 l 5,0 0,5 -5,0 z M 140,100 l 5,0 0,5 -5,0 z M 145,100 l 5,0 0,5 -5,0 z M 150,100 l 5,0 0,5 -5,0 z M 170,100 l 5,0 0,5 -5,0 z M 175,100 l 5,0 0,5 -5,0 z M 190,100 l 5,0 0,5 -5,0 z M 200,100 l 5,0 0,5 -5,0 z M 210,100 l 5,0 0,5 -5,0 z M 215,100 l 5,0 0,5 -5,0 z M 220,100 l 5,0 0,5 -5,0 z M 235,100 l 5,0 0,5 -5,0 z M 240,100 l 5,0 0,5 -5,0 z M 5,105 l 5,0 0,5 -5,0 z M 20,105 l 5,0 0,5 -5,0 z M 35,105 l 5,0 0,5 -5,0 z M 45,105 l 5,0 0,5 -5,0 z M 50,105 l 5,0 0,5 -5,0 z M 80,105 l 5,0 0,5 -5,0 z M 85,105 l 5,0 0,5 -5,0 z M 90,105 l 5,0 0,5 -5,0 z M 95,105 l 5,0 0,5 -5,0 z M 120,105 l 5,0 0,5 -5,0 z M 125,105 l 5,0 0,5 -5,0 z M 130,105 l 5,0 0,5 -5,0 z M 140,105 l 5,0 0,5 -5,0 z M 150,105 l 5,0 0,5 -5,0 z M 180,105 l 5,0 0,5 -5,0 z M 185,105 l 5,0 0,5 -5,0 z M 195,105 l 5,0 0,5 -5,0 z M 235,105 l 5,0 0,5 -5,0 z M 245,105 l 5,0 0,5 -5,0 z M 15,110 l 5,0 0,5 -5,0 z M 25,110 l 5,0 0,5 -5,0 z M 45,110 l 5,0 0,5 -5,0 z M 55,110 l 5,0 0,5 -5,0 z M 85,110 l 5,0 0,5 -5,0 z M 90,110 l 5,0 0,5 -5,0 z M 95,110 l 5,0 0,5 -5,0 z M 110,110 l 5,0 0,5 -5,0 z M 130,110 l 5,0 0,5 -5,0 z M 140,110 l 5,0 0,5 -5,0 z M 145,110 l 5,0 0,5 -5,0 z M 150,110 l 5,0 0,5 -5,0 z M 155,110 l 5,0 0,5 -5,0 z M 165,110 l 5,0 0,5 -5,0 z M 180,110 l 5,0 0,5 -5,0 z M 185,110 l 5,0 0,5 -5,0 z M 190,110 l 5,0 0,5 -5,0 z M 200,110 l 5,0 0,5 -5,0 z M 210,110 l 5,0 0,5 -5,0 z M 235,110 l 5,0 0,5 -5,0 z M 245,110 l 5,0 0,5 -5,0 z M 10,115 l 5,0 0,5 -5,0 z M 25,115 l 5,0 0,5 -5,0 z M 30,115 l 5,0 0,5 -5,0 z M 35,115 l 5,0 0,5 -5,0 z M 40,115 l 5,0 0,5 -5,0 z M 45,115 l 5,0 0,5 -5,0 z M 50,115 l 5,0 0,5 -5,0 z M 55,115 l 5,0 0,5 -5,0 z M 85,115 l 5,0 0,5 -5,0 z M 90,115 l 5,0 0,5 -5,0 z M 95,115 l 5,0 0,5 -5,0 z M 100,115 l 5,0 0,5 -5,0 z M 115,115 l 5,0 0,5 -5,0 z M 120,115 l 5,0 0,5 -5,0 z M 125,115 l 5,0 0,5 -5,0 z M 130,115 l 5,0 0,5 -5,0 z M 135,115 l 5,0 0,5 -5,0 z M 145,115 l 5,0 0,5 -5,0 z M 170,115 l 5,0 0,5 -5,0 z M 175,115 l 5,0 0,5 -5,0 z M 185,115 l 5,0 0,5 -5,0 z M 200,115 l 5,0 0,5 -5,0 z M 205,115 l 5,0 0,5 -5,0 z M 210,115 l 5,0 0,5 -5,0 z M 215,115 l 5,0 0,5 -5,0 z M 220,115 l 5,0 0,5 -5,0 z M 225,115 l 5,0 0,5 -5,0 z M 230,115 l 5,0 0,5 -5,0 z M 235,115 l 5,0 0,5 -5,0 z M 240,115 l 5,0 0,5 -5,0 z M 5,120 l 5,0 0,5 -5,0 z M 15,120 l 5,0 0,5 -5,0 z M 20,120 l 5,0 0,5 -5,0 z M 25,120 l 5,0 0,5 -5,0 z M 45,120 l 5,0 0,5 -5,0 z M 55,120 l 5,0 0,5 -5,0 z M 65,120 l 5,0 0,5 -5,0 z M 75,120 l 5,0 0,5 -5,0 z M 85,120 l 5,0 0,5 -5,0 z M 105,120 l 5,0 0,5 -5,0 z M 110,120 l 5,0 0,5 -5,0 z M 115,120 l 5,0 0,5 -5,0 z M 135,120 l 5,0 0,5 -5,0 z M 140,120 l 5,0 0,5 -5,0 z M 165,120 l 5,0 0,5 -5,0 z M 170,120 l 5,0 0,5 -5,0 z M 180,120 l 5,0 0,5 -5,0 z M 185,120 l 5,0 0,5 -5,0 z M 200,120 l 5,0 0,5 -5,0 z M 205,120 l 5,0 0,5 -5,0 z M 225,120 l 5,0 0,5 -5,0 z M 235,120 l 5,0 0,5 -5,0 z M 240,120 l 5,0 0,5 -5,0 z M 245,120 l 5,0 0,5 -5,0 z M 10,125 l 5,0 0,5 -5,0 z M 15,125 l 5,0 0,5 -5,0 z M 25,125 l 5,0 0,5 -5,0 z M 35,125 l 5,0 0,5 -5,0 z M 45,125 l 5,0 0,5 -5,0 z M 50,125 l 5,0 0,5 -5,0 z M 75,125 l 5,0 0,5 -5,0 z M 85,125 l 5,0 0,5 -5,0 z M 95,125 l 5,0 0,5 -5,0 z M 100,125 l 5,0 0,5 -5,0 z M 105,125 l 5,0 0,5 -5,0 z M 115,125 l 5,0 0,5 -5,0 z M 125,125 l 5,0 0,5 -5,0 z M 135,125 l 5,0 0,5 -5,0 z M 140,125 l 5,0 0,5 -5,0 z M 145,125 l 5,0 0,5 -5,0 z M 150,125 l 5,0 0,5 -5,0 z M 165,125 l 5,0 0,5 -5,0 z M 170,125 l 5,0 0,5 -5,0 z M 175,125 l 5,0 0,5 -5,0 z M 180,125 l 5,0 0,5 -5,0 z M 185,125 l 5,0 0,5 -5,0 z M 190,125 l 5,0 0,5 -5,0 z M 195,125 l 5,0 0,5 -5,0 z M 200,125 l 5,0 0,5 -5,0 z M 205,125 l 5,0 0,5 -5,0 z M 215,125 l 5,0 0,5 -5,0 z M 225,125 l 5,0 0,5 -5,0 z M 230,125 l 5,0 0,5 -5,0 z M 240,125 l 5,0 0,5 -5,0 z M 245,125 l 5,0 0,5 -5,0 z M 5,130 l 5,0 0,5 -5,0 z M 10,130 l 5,0 0,5 -5,0 z M 15,130 l 5,0 0,5 -5,0 z M 25,130 l 5,0 0,5 -5,0 z M 45,130 l 5,0 0,5 -5,0 z M 60,130 l 5,0 0,5 -5,0 z M 70,130 l 5,0 0,5 -5,0 z M 80,130 l 5,0 0,5 -5,0 z M 95,130 l 5,0 0,5 -5,0 z M 105,130 l 5,0 0,5 -5,0 z M 110,130 l 5,0 0,5 -5,0 z M 115,130 l 5,0 0,5 -5,0 z M 135,130 l 5,0 0,5 -5,0 z M 145,130 l 5,0 0,5 -5,0 z M 160,130 l 5,0 0,5 -5,0 z M 165,130 l 5,0 0,5 -5,0 z M 170,130 l 5,0 0,5 -5,0 z M 175,130 l 5,0 0,5 -5,0 z M 180,130 l 5,0 0,5 -5,0 z M 195,130 l 5,0 0,5 -5,0 z M 200,130 l 5,0 0,5 -5,0 z M 205,130 l 5,0 0,5 -5,0 z M 225,130 l 5,0 0,5 -5,0 z M 230,130 l 5,0 0,5 -5,0 z M 235,130 l 5,0 0,5 -5,0 z M 240,130 l 5,0 0,5 -5,0 z M 245,130 l 5,0 0,5 -5,0 z M 5,135 l 5,0 0,5 -5,0 z M 10,135 l 5,0 0,5 -5,0 z M 20,135 l 5,0 0,5 -5,0 z M 25,135 l 5,0 0,5 -5,0 z M 30,135 l 5,0 0,5 -5,0 z M 35,135 l 5,0 0,5 -5,0 z M 40,135 l 5,0 0,5 -5,0 z M 45,135 l 5,0 0,5 -5,0 z M 50,135 l 5,0 0,5 -5,0 z M 70,135 l 5,0 0,5 -5,0 z M 75,135 l 5,0 0,5 -5,0 z M 110,135 l 5,0 0,5 -5,0 z M 115,135 l 5,0 0,5 -5,0 z M 120,135 l 5,0 0,5 -5,0 z M 125,135 l 5,0 0,5 -5,0 z M 130,135 l 5,0 0,5 -5,0 z M 135,135 l 5,0 0,5 -5,0 z M 140,135 l 5,0 0,5 -5,0 z M 145,135 l 5,0 0,5 -5,0 z M 150,135 l 5,0 0,5 -5,0 z M 155,135 l 5,0 0,5 -5,0 z M 170,135 l 5,0 0,5 -5,0 z M 175,135 l 5,0 0,5 -5,0 z M 195,135 l 5,0 0,5 -5,0 z M 200,135 l 5,0 0,5 -5,0 z M 205,135 l 5,0 0,5 -5,0 z M 210,135 l 5,0 0,5 -5,0 z M 215,135 l 5,0 0,5 -5,0 z M 220,135 l 5,0 0,5 -5,0 z M 225,135 l 5,0 0,5 -5,0 z M 240,135 l 5,0 0,5 -5,0 z M 5,140 l 5,0 0,5 -5,0 z M 15,140 l 5,0 0,5 -5,0 z M 20,140 l 5,0 0,5 -5,0 z M 25,140 l 5,0 0,5 -5,0 z M 30,140 l 5,0 0,5 -5,0 z M 55,140 l 5,0 0,5 -5,0 z M 65,140 l 5,0 0,5 -5,0 z M 75,140 l 5,0 0,5 -5,0 z M 80,140 l 5,0 0,5 -5,0 z M 95,140 l 5,0 0,5 -5,0 z M 110,140 l 5,0 0,5 -5,0 z M 115,140 l 5,0 0,5 -5,0 z M 130,140 l 5,0 0,5 -5,0 z M 135,140 l 5,0 0,5 -5,0 z M 140,140 l 5,0 0,5 -5,0 z M 145,140 l 5,0 0,5 -5,0 z M 150,140 l 5,0 0,5 -5,0 z M 160,140 l 5,0 0,5 -5,0 z M 165,140 l 5,0 0,5 -5,0 z M 175,140 l 5,0 0,5 -5,0 z M 185,140 l 5,0 0,5 -5,0 z M 190,140 l 5,0 0,5 -5,0 z M 195,140 l 5,0 0,5 -5,0 z M 200,140 l 5,0 0,5 -5,0 z M 210,140 l 5,0 0,5 -5,0 z M 215,140 l 5,0 0,5 -5,0 z M 225,140 l 5,0 0,5 -5,0 z M 235,140 l 5,0 0,5 -5,0 z M 240,140 l 5,0 0,5 -5,0 z M 245,140 l 5,0 0,5 -5,0 z M 5,145 l 5,0 0,5 -5,0 z M 15,145 l 5,0 0,5 -5,0 z M 20,145 l 5,0 0,5 -5,0 z M 25,145 l 5,0 0,5 -5,0 z M 35,145 l 5,0 0,5 -5,0 z M 50,145 l 5,0 0,5 -5,0 z M 55,145 l 5,0 0,5 -5,0 z M 70,145 l 5,0 0,5 -5,0 z M 75,145 l 5,0 0,5 -5,0 z M 80,145 l 5,0 0,5 -5,0 z M 85,145 l 5,0 0,5 -5,0 z M 90,145 l 5,0 0,5 -5,0 z M 95,145 l 5,0 0,5 -5,0 z M 100,145 l 5,0 0,5 -5,0 z M 115,145 l 5,0 0,5 -5,0 z M 120,145 l 5,0 0,5 -5,0 z M 125,145 l 5,0 0,5 -5,0 z M 130,145 l 5,0 0,5 -5,0 z M 135,145 l 5,0 0,5 -5,0 z M 155,145 l 5,0 0,5 -5,0 z M 160,145 l 5,0 0,5 -5,0 z M 170,145 l 5,0 0,5 -5,0 z M 175,145 l 5,0 0,5 -5,0 z M 180,145 l 5,0 0,5 -5,0 z M 185,145 l 5,0 0,5 -5,0 z M 195,145 l 5,0 0,5 -5,0 z M 200,145 l 5,0 0,5 -5,0 z M 215,145 l 5,0 0,5 -5,0 z M 220,145 l 5,0 0,5 -5,0 z M 240,145 l 5,0 0,5 -5,0 z M 245,145 l 5,0 0,5 -5,0 z M 10,150 l 5,0 0,5 -5,0 z M 15,150 l 5,0 0,5 -5,0 z M 20,150 l 5,0 0,5 -5,0 z M 50,150 l 5,0 0,5 -5,0 z M 55,150 l 5,0 0,5 -5,0 z M 80,150 l 5,0 0,5 -5,0 z M 85,150 l 5,0 0,5 -5,0 z M 90,150 l 5,0 0,5 -5,0 z M 95,150 l 5,0 0,5 -5,0 z M 105,150 l 5,0 0,5 -5,0 z M 110,150 l 5,0 0,5 -5,0 z M 115,150 l 5,0 0,5 -5,0 z M 120,150 l 5,0 0,5 -5,0 z M 125,150 l 5,0 0,5 -5,0 z M 130,150 l 5,0 0,5 -5,0 z M 135,150 l 5,0 0,5 -5,0 z M 150,150 l 5,0 0,5 -5,0 z M 155,150 l 5,0 0,5 -5,0 z M 160,150 l 5,0 0,5 -5,0 z M 170,150 l 5,0 0,5 -5,0 z M 185,150 l 5,0 0,5 -5,0 z M 220,150 l 5,0 0,5 -5,0 z M 225,150 l 5,0 0,5 -5,0 z M 230,150 l 5,0 0,5 -5,0 z M 235,150 l 5,0 0,5 -5,0 z M 240,150 l 5,0 0,5 -5,0 z M 245,150 l 5,0 0,5 -5,0 z M 10,155 l 5,0 0,5 -5,0 z M 15,155 l 5,0 0,5 -5,0 z M 35,155 l 5,0 0,5 -5,0 z M 50,155 l 5,0 0,5 -5,0 z M 90,155 l 5,0 0,5 -5,0 z M 95,155 l 5,0 0,5 -5,0 z M 100,155 l 5,0 0,5 -5,0 z M 105,155 l 5,0 0,5 -5,0 z M 110,155 l 5,0 0,5 -5,0 z M 115,155 l 5,0 0,5 -5,0 z M 125,155 l 5,0 0,5 -5,0 z M 130,155 l 5,0 0,5 -5,0 z M 140,155 l 5,0 0,5 -5,0 z M 170,155 l 5,0 0,5 -5,0 z M 175,155 l 5,0 0,5 -5,0 z M 185,155 l 5,0 0,5 -5,0 z M 190,155 l 5,0 0,5 -5,0 z M 195,155 l 5,0 0,5 -5,0 z M 200,155 l 5,0 0,5 -5,0 z M 205,155 l 5,0 0,5 -5,0 z M 215,155 l 5,0 0,5 -5,0 z M 230,155 l 5,0 0,5 -5,0 z M 240,155 l 5,0 0,5 -5,0 z M 5,160 l 5,0 0,5 -5,0 z M 15,160 l 5,0 0,5 -5,0 z M 20,160 l 5,0 0,5 -5,0 z M 45,160 l 5,0 0,5 -5,0 z M 50,160 l 5,0 0,5 -5,0 z M 60,160 l 5,0 0,5 -5,0 z M 70,160 l 5,0 0,5 -5,0 z M 90,160 l 5,0 0,5 -5,0 z M 95,160 l 5,0 0,5 -5,0 z M 105,160 l 5,0 0,5 -5,0 z M 135,160 l 5,0 0,5 -5,0 z M 165,160 l 5,0 0,5 -5,0 z M 170,160 l 5,0 0,5 -5,0 z M 175,160 l 5,0 0,5 -5,0 z M 180,160 l 5,0 0,5 -5,0 z M 185,160 l 5,0 0,5 -5,0 z M 195,160 l 5,0 0,5 -5,0 z M 200,160 l 5,0 0,5 -5,0 z M 215,160 l 5,0 0,5 -5,0 z M 220,160 l 5,0 0,5 -5,0 z M 225,160 l 5,0 0,5 -5,0 z M 230,160 l 5,0 0,5 -5,0 z M 240,160 l 5,0 0,5 -5,0 z M 5,165 l 5,0 0,5 -5,0 z M 25,165 l 5,0 0,5 -5,0 z M 35,165 l 5,0 0,5 -5,0 z M 45,165 l 5,0 0,5 -5,0 z M 60,165 l 5,0 0,5 -5,0 z M 65,165 l 5,0 0,5 -5,0 z M 70,165 l 5,0 0,5 -5,0 z M 85,165 l 5,0 0,5 -5,0 z M 105,165 l 5,0 0,5 -5,0 z M 125,165 l 5,0 0,5 -5,0 z M 140,165 l 5,0 0,5 -5,0 z M 145,165 l 5,0 0,5 -5,0 z M 150,165 l 5,0 0,5 -5,0 z M 165,165 l 5,0 0,5 -5,0 z M 170,165 l 5,0 0,5 -5,0 z M 175,165 l 5,0 0,5 -5,0 z M 185,165 l 5,0 0,5 -5,0 z M 190,165 l 5,0 0,5 -5,0 z M 195,165 l 5,0 0,5 -5,0 z M 200,165 l 5,0 0,5 -5,0 z M 240,165 l 5,0 0,5 -5,0 z M 10,170 l 5,0 0,5 -5,0 z M 20,170 l 5,0 0,5 -5,0 z M 25,170 l 5,0 0,5 -5,0 z M 30,170 l 5,0 0,5 -5,0 z M 50,170 l 5,0 0,5 -5,0 z M 55,170 l 5,0 0,5 -5,0 z M 60,170 l 5,0 0,5 -5,0 z M 70,170 l 5,0 0,5 -5,0 z M 80,170 l 5,0 0,5 -5,0 z M 85,170 l 5,0 0,5 -5,0 z M 115,170 l 5,0 0,5 -5,0 z M 125,170 l 5,0 0,5 -5,0 z M 130,170 l 5,0 0,5 -5,0 z M 135,170 l 5,0 0,5 -5,0 z M 145,170 l 5,0 0,5 -5,0 z M 160,170 l 5,0 0,5 -5,0 z M 165,170 l 5,0 0,5 -5,0 z M 170,170 l 5,0 0,5 -5,0 z M 175,170 l 5,0 0,5 -5,0 z M 180,170 l 5,0 0,5 -5,0 z M 195,170 l 5,0 0,5 -5,0 z M 210,170 l 5,0 0,5 -5,0 z M 225,170 l 5,0 0,5 -5,0 z M 235,170 l 5,0 0,5 -5,0 z M 240,170 l 5,0 0,5 -5,0 z M 245,170 l 5,0 0,5 -5,0 z M 10,175 l 5,0 0,5 -5,0 z M 20,175 l 5,0 0,5 -5,0 z M 30,175 l 5,0 0,5 -5,0 z M 35,175 l 5,0 0,5 -5,0 z M 50,175 l 5,0 0,5 -5,0 z M 60,175 l 5,0 0,5 -5,0 z M 80,175 l 5,0 0,5 -5,0 z M 85,175 l 5,0 0,5 -5,0 z M 95,175 l 5,0 0,5 -5,0 z M 100,175 l 5,0 0,5 -5,0 z M 105,175 l 5,0 0,5 -5,0 z M 140,175 l 5,0 0,5 -5,0 z M 145,175 l 5,0 0,5 -5,0 z M 190,175 l 5,0 0,5 -5,0 z M 200,175 l 5,0 0,5 -5,0 z M 205,175 l 5,0 0,5 -5,0 z M 210,175 l 5,0 0,5 -5,0 z M 215,175 l 5,0 0,5 -5,0 z M 225,175 l 5,0 0,5 -5,0 z M 240,175 l 5,0 0,5 -5,0 z M 10,180 l 5,0 0,5 -5,0 z M 15,180 l 5,0 0,5 -5,0 z M 25,180 l 5,0 0,5 -5,0 z M 45,180 l 5,0 0,5 -5,0 z M 50,180 l 5,0 0,5 -5,0 z M 55,180 l 5,0 0,5 -5,0 z M 60,180 l 5,0 0,5 -5,0 z M 65,180 l 5,0 0,5 -5,0 z M 70,180 l 5,0 0,5 -5,0 z M 80,180 l 5,0 0,5 -5,0 z M 90,180 l 5,0 0,5 -5,0 z M 95,180 l 5,0 0,5 -5,0 z M 105,180 l 5,0 0,5 -5,0 z M 120,180 l 5,0 0,5 -5,0 z M 130,180 l 5,0 0,5 -5,0 z M 140,180 l 5,0 0,5 -5,0 z M 145,180 l 5,0 0,5 -5,0 z M 155,180 l 5,0 0,5 -5,0 z M 165,180 l 5,0 0,5 -5,0 z M 170,180 l 5,0 0,5 -5,0 z M 195,180 l 5,0 0,5 -5,0 z M 205,180 l 5,0 0,5 -5,0 z M 215,180 l 5,0 0,5 -5,0 z M 230,180 l 5,0 0,5 -5,0 z M 5,185 l 5,0 0,5 -5,0 z M 10,185 l 5,0 0,5 -5,0 z M 15,185 l 5,0 0,5 -5,0 z M 20,185 l 5,0 0,5 -5,0 z M 35,185 l 5,0 0,5 -5,0 z M 40,185 l 5,0 0,5 -5,0 z M 45,185 l 5,0 0,5 -5,0 z M 55,185 l 5,0 0,5 -5,0 z M 65,185 l 5,0 0,5 -5,0 z M 85,185 l 5,0 0,5 -5,0 z M 95,185 l 5,0 0,5 -5,0 z M 105,185 l 5,0 0,5 -5,0 z M 115,185 l 5,0 0,5 -5,0 z M 130,185 l 5,0 0,5 -5,0 z M 135,185 l 5,0 0,5 -5,0 z M 150,185 l 5,0 0,5 -5,0 z M 155,185 l 5,0 0,5 -5,0 z M 160,185 l 5,0 0,5 -5,0 z M 170,185 l 5,0 0,5 -5,0 z M 185,185 l 5,0 0,5 -5,0 z M 195,185 l 5,0 0,5 -5,0 z M 200,185 l 5,0 0,5 -5,0 z M 205,185 l 5,0 0,5 -5,0 z M 220,185 l 5,0 0,5 -5,0 z M 225,185 l 5,0 0,5 -5,0 z M 235,185 l 5,0 0,5 -5,0 z M 240,185 l 5,0 0,5 -5,0 z M 5,190 l 5,0 0,5 -5,0 z M 20,190 l 5,0 0,5 -5,0 z M 30,190 l 5,0 0,5 -5,0 z M 40,190 l 5,0 0,5 -5,0 z M 50,190 l 5,0 0,5 -5,0 z M 55,190 l 5,0 0,5 -5,0 z M 60,190 l 5,0 0,5 -5,0 z M 70,190 l 5,0 0,5 -5,0 z M 95,190 l 5,0 0,5 -5,0 z M 105,190 l 5,0 0,5 -5,0 z M 110,190 l 5,0 0,5 -5,0 z M 115,190 l 5,0 0,5 -5,0 z M 120,190 l 5,0 0,5 -5,0 z M 125,190 l 5,0 0,5 -5,0 z M 135,190 l 5,0 0,5 -5,0 z M 140,190 l 5,0 0,5 -5,0 z M 145,190 l 5,0 0,5 -5,0 z M 150,190 l 5,0 0,5 -5,0 z M 155,190 l 5,0 0,5 -5,0 z M 190,190 l 5,0 0,5 -5,0 z M 210,190 l 5,0 0,5 -5,0 z M 230,190 l 5,0 0,5 -5,0 z M 240,190 l 5,0 0,5 -5,0 z M 245,190 l 5,0 0,5 -5,0 z M 10,195 l 5,0 0,5 -5,0 z M 30,195 l 5,0 0,5 -5,0 z M 35,195 l 5,0 0,5 -5,0 z M 40,195 l 5,0 0,5 -5,0 z M 45,195 l 5,0 0,5 -5,0 z M 50,195 l 5,0 0,5 -5,0 z M 55,195 l 5,0 0,5 -5,0 z M 80,195 l 5,0 0,5 -5,0 z M 85,195 l 5,0 0,5 -5,0 z M 90,195 l 5,0 0,5 -5,0 z M 100,195 l 5,0 0,5 -5,0 z M 105,195 l 5,0 0,5 -5,0 z M 110,195 l 5,0 0,5 -5,0 z M 115,195 l 5,0 0,5 -5,0 z M 120,195 l 5,0 0,5 -5,0 z M 130,195 l 5,0 0,5 -5,0 z M 140,195 l 5,0 0,5 -5,0 z M 145,195 l 5,0 0,5 -5,0 z M 150,195 l 5,0 0,5 -5,0 z M 160,195 l 5,0 0,5 -5,0 z M 165,195 l 5,0 0,5 -5,0 z M 170,195 l 5,0 0,5 -5,0 z M 180,195 l 5,0 0,5 -5,0 z M 210,195 l 5,0 0,5 -5,0 z M 215,195 l 5,0 0,5 -5,0 z M 220,195 l 5,0 0,5 -5,0 z M 230,195 l 5,0 0,5 -5,0 z M 235,195 l 5,0 0,5 -5,0 z M 10,200 l 5,0 0,5 -5,0 z M 15,200 l 5,0 0,5 -5,0 z M 20,200 l 5,0 0,5 -5,0 z M 55,200 l 5,0 0,5 -5,0 z M 60,200 l 5,0 0,5 -5,0 z M 70,200 l 5,0 0,5 -5,0 z M 75,200 l 5,0 0,5 -5,0 z M 80,200 l 5,0 0,5 -5,0 z M 85,200 l 5,0 0,5 -5,0 z M 95,200 l 5,0 0,5 -5,0 z M 110,200 l 5,0 0,5 -5,0 z M 115,200 l 5,0 0,5 -5,0 z M 135,200 l 5,0 0,5 -5,0 z M 140,200 l 5,0 0,5 -5,0 z M 145,200 l 5,0 0,5 -5,0 z M 155,200 l 5,0 0,5 -5,0 z M 170,200 l 5,0 0,5 -5,0 z M 185,200 l 5,0 0,5 -5,0 z M 195,200 l 5,0 0,5 -5,0 z M 205,200 l 5,0 0,5 -5,0 z M 210,200 l 5,0 0,5 -5,0 z M 215,200 l 5,0 0,5 -5,0 z M 225,200 l 5,0 0,5 -5,0 z M 235,200 l 5,0 0,5 -5,0 z M 240,200 l 5,0 0,5 -5,0 z M 245,200 l 5,0 0,5 -5,0 z M 5,205 l 5,0 0,5 -5,0 z M 10,205 l 5,0 0,5 -5,0 z M 15,205 l 5,0 0,5 -5,0 z M 35,205 l 5,0 0,5 -5,0 z M 50,205 l 5,0 0,5 -5,0 z M 55,205 l 5,0 0,5 -5,0 z M 60,205 l 5,0 0,5 -5,0 z M 65,205 l 5,0 0,5 -5,0 z M 70,205 l 5,0 0,5 -5,0 z M 85,205 l 5,0 0,5 -5,0 z M 100,205 l 5,0 0,5 -5,0 z M 105,205 l 5,0 0,5 -5,0 z M 110,205 l 5,0 0,5 -5,0 z M 115,205 l 5,0 0,5 -5,0 z M 120,205 l 5,0 0,5 -5,0 z M 125,205 l 5,0 0,5 -5,0 z M 130,205 l 5,0 0,5 -5,0 z M 135,205 l 5,0 0,5 -5,0 z M 140,205 l 5,0 0,5 -5,0 z M 145,205 l 5,0 0,5 -5,0 z M 150,205 l 5,0 0,5 -5,0 z M 160,205 l 5,0 0,5 -5,0 z M 170,205 l 5,0 0,5 -5,0 z M 175,205 l 5,0 0,5 -5,0 z M 185,205 l 5,0 0,5 -5,0 z M 190,205 l 5,0 0,5 -5,0 z M 195,205 l 5,0 0,5 -5,0 z M 205,205 l 5,0 0,5 -5,0 z M 210,205 l 5,0 0,5 -5,0 z M 215,205 l 5,0 0,5 -5,0 z M 220,205 l 5,0 0,5 -5,0 z M 225,205 l 5,0 0,5 -5,0 z M 240,205 l 5,0 0,5 -5,0 z M 245,205 l 5,0 0,5 -5,0 z M 45,210 l 5,0 0,5 -5,0 z M 55,210 l 5,0 0,5 -5,0 z M 60,210 l 5,0 0,5 -5,0 z M 65,210 l 5,0 0,5 -5,0 z M 70,210 l 5,0 0,5 -5,0 z M 80,210 l 5,0 0,5 -5,0 z M 90,210 l 5,0 0,5 -5,0 z M 115,210 l 5,0 0,5 -5,0 z M 135,210 l 5,0 0,5 -5,0 z M 145,210 l 5,0 0,5 -5,0 z M 155,210 l 5,0 0,5 -5,0 z M 160,210 l 5,0 0,5 -5,0 z M 165,210 l 5,0 0,5 -5,0 z M 180,210 l 5,0 0,5 -5,0 z M 195,210 l 5,0 0,5 -5,0 z M 200,210 l 5,0 0,5 -5,0 z M 205,210 l 5,0 0,5 -5,0 z M 225,210 l 5,0 0,5 -5,0 z M 245,210 l 5,0 0,5 -5,0 z M 5,215 l 5,0 0,5 -5,0 z M 10,215 l 5,0 0,5 -5,0 z M 15,215 l 5,0 0,5 -5,0 z M 20,215 l 5,0 0,5 -5,0 z M 25,215 l 5,0 0,5 -5,0 z M 30,215 l 5,0 0,5 -5,0 z M 35,215 l 5,0 0,5 -5,0 z M 45,215 l 5,0 0,5 -5,0 z M 55,215 l 5,0 0,5 -5,0 z M 70,215 l 5,0 0,5 -5,0 z M 75,215 l 5,0 0,5 -5,0 z M 80,215 l 5,0 0,5 -5,0 z M 95,215 l 5,0 0,5 -5,0 z M 100,215 l 5,0 0,5 -5,0 z M 105,215 l 5,0 0,5 -5,0 z M 115,215 l 5,0 0,5 -5,0 z M 125,215 l 5,0 0,5 -5,0 z M 135,215 l 5,0 0,5 -5,0 z M 140,215 l 5,0 0,5 -5,0 z M 155,215 l 5,0 0,5 -5,0 z M 170,215 l 5,0 0,5 -5,0 z M 175,215 l 5,0 0,5 -5,0 z M 205,215 l 5,0 0,5 -5,0 z M 215,215 l 5,0 0,5 -5,0 z M 225,215 l 5,0 0,5 -5,0 z M 245,215 l 5,0 0,5 -5,0 z M 5,220 l 5,0 0,5 -5,0 z M 35,220 l 5,0 0,5 -5,0 z M 50,220 l 5,0 0,5 -5,0 z M 65,220 l 5,0 0,5 -5,0 z M 75,220 l 5,0 0,5 -5,0 z M 80,220 l 5,0 0,5 -5,0 z M 105,220 l 5,0 0,5 -5,0 z M 110,220 l 5,0 0,5 -5,0 z M 115,220 l 5,0 0,5 -5,0 z M 135,220 l 5,0 0,5 -5,0 z M 140,220 l 5,0 0,5 -5,0 z M 155,220 l 5,0 0,5 -5,0 z M 165,220 l 5,0 0,5 -5,0 z M 170,220 l 5,0 0,5 -5,0 z M 175,220 l 5,0 0,5 -5,0 z M 195,220 l 5,0 0,5 -5,0 z M 205,220 l 5,0 0,5 -5,0 z M 225,220 l 5,0 0,5 -5,0 z M 230,220 l 5,0 0,5 -5,0 z M 240,220 l 5,0 0,5 -5,0 z M 5,225 l 5,0 0,5 -5,0 z M 15,225 l 5,0 0,5 -5,0 z M 20,225 l 5,0 0,5 -5,0 z M 25,225 l 5,0 0,5 -5,0 z M 35,225 l 5,0 0,5 -5,0 z M 45,225 l 5,0 0,5 -5,0 z M 50,225 l 5,0 0,5 -5,0 z M 55,225 l 5,0 0,5 -5,0 z M 60,225 l 5,0 0,5 -5,0 z M 65,225 l 5,0 0,5 -5,0 z M 70,225 l 5,0 0,5 -5,0 z M 75,225 l 5,0 0,5 -5,0 z M 80,225 l 5,0 0,5 -5,0 z M 85,225 l 5,0 0,5 -5,0 z M 90,225 l 5,0 0,5 -5,0 z M 95,225 l 5,0 0,5 -5,0 z M 105,225 l 5,0 0,5 -5,0 z M 110,225 l 5,0 0,5 -5,0 z M 115,225 l 5,0 0,5 -5,0 z M 120,225 l 5,0 0,5 -5,0 z M 125,225 l 5,0 0,5 -5,0 z M 130,225 l 5,0 0,5 -5,0 z M 135,225 l 5,0 0,5 -5,0 z M 160,225 l 5,0 0,5 -5,0 z M 175,225 l 5,0 0,5 -5,0 z M 180,225 l 5,0 0,5 -5,0 z M 185,225 l 5,0 0,5 -5,0 z M 195,225 l 5,0 0,5 -5,0 z M 200,225 l 5,0 0,5 -5,0 z M 205,225 l 5,0 0,5 -5,0 z M 210,225 l 5,0 0,5 -5,0 z M 215,225 l 5,0 0,5 -5,0 z M 220,225 l 5,0 0,5 -5,0 z M 225,225 l 5,0 0,5 -5,0 z M 230,225 l 5,0 0,5 -5,0 z M 245,225 l 5,0 0,5 -5,0 z M 5,230 l 5,0 0,5 -5,0 z M 15,230 l 5,0 0,5 -5,0 z M 20,230 l 5,0 0,5 -5,0 z M 25,230 l 5,0 0,5 -5,0 z M 35,230 l 5,0 0,5 -5,0 z M 45,230 l 5,0 0,5 -5,0 z M 50,230 l 5,0 0,5 -5,0 z M 55,230 l 5,0 0,5 -5,0 z M 65,230 l 5,0 0,5 -5,0 z M 90,230 l 5,0 0,5 -5,0 z M 95,230 l 5,0 0,5 -5,0 z M 105,230 l 5,0 0,5 -5,0 z M 110,230 l 5,0 0,5 -5,0 z M 135,230 l 5,0 0,5 -5,0 z M 145,230 l 5,0 0,5 -5,0 z M 155,230 l 5,0 0,5 -5,0 z M 160,230 l 5,0 0,5 -5,0 z M 165,230 l 5,0 0,5 -5,0 z M 180,230 l 5,0 0,5 -5,0 z M 185,230 l 5,0 0,5 -5,0 z M 190,230 l 5,0 0,5 -5,0 z M 200,230 l 5,0 0,5 -5,0 z M 215,230 l 5,0 0,5 -5,0 z M 230,230 l 5,0 0,5 -5,0 z M 245,230 l 5,0 0,5 -5,0 z M 5,235 l 5,0 0,5 -5,0 z M 15,235 l 5,0 0,5 -5,0 z M 20,235 l 5,0 0,5 -5,0 z M 25,235 l 5,0 0,5 -5,0 z M 35,235 l 5,0 0,5 -5,0 z M 45,235 l 5,0 0,5 -5,0 z M 50,235 l 5,0 0,5 -5,0 z M 60,235 l 5,0 0,5 -5,0 z M 65,235 l 5,0 0,5 -5,0 z M 80,235 l 5,0 0,5 -5,0 z M 90,235 l 5,0 0,5 -5,0 z M 95,235 l 5,0 0,5 -5,0 z M 100,235 l 5,0 0,5 -5,0 z M 105,235 l 5,0 0,5 -5,0 z M 110,235 l 5,0 0,5 -5,0 z M 120,235 l 5,0 0,5 -5,0 z M 125,235 l 5,0 0,5 -5,0 z M 130,235 l 5,0 0,5 -5,0 z M 135,235 l 5,0 0,5 -5,0 z M 140,235 l 5,0 0,5 -5,0 z M 145,235 l 5,0 0,5 -5,0 z M 150,235 l 5,0 0,5 -5,0 z M 160,235 l 5,0 0,5 -5,0 z M 165,235 l 5,0 0,5 -5,0 z M 170,235 l 5,0 0,5 -5,0 z M 175,235 l 5,0 0,5 -5,0 z M 185,235 l 5,0 0,5 -5,0 z M 195,235 l 5,0 0,5 -5,0 z M 200,235 l 5,0 0,5 -5,0 z M 220,235 l 5,0 0,5 -5,0 z M 230,235 l 5,0 0,5 -5,0 z M 245,235 l 5,0 0,5 -5,0 z M 5,240 l 5,0 0,5 -5,0 z M 35,240 l 5,0 0,5 -5,0 z M 45,240 l 5,0 0,5 -5,0 z M 50,240 l 5,0 0,5 -5,0 z M 55,240 l 5,0 0,5 -5,0 z M 65,240 l 5,0 0,5 -5,0 z M 105,240 l 5,0 0,5 -5,0 z M 110,240 l 5,0 0,5 -5,0 z M 115,240 l 5,0 0,5 -5,0 z M 120,240 l 5,0 0,5 -5,0 z M 125,240 l 5,0 0,5 -5,0 z M 130,240 l 5,0 0,5 -5,0 z M 140,240 l 5,0 0,5 -5,0 z M 145,240 l 5,0 0,5 -5,0 z M 160,240 l 5,0 0,5 -5,0 z M 170,240 l 5,0 0,5 -5,0 z M 195,240 l 5,0 0,5 -5,0 z M 205,240 l 5,0 0,5 -5,0 z M 5,245 l 5,0 0,5 -5,0 z M 10,245 l 5,0 0,5 -5,0 z M 15,245 l 5,0 0,5 -5,0 z M 20,245 l 5,0 0,5 -5,0 z M 25,245 l 5,0 0,5 -5,0 z M 30,245 l 5,0 0,5 -5,0 z M 35,245 l 5,0 0,5 -5,0 z M 45,245 l 5,0 0,5 -5,0 z M 55,245 l 5,0 0,5 -5,0 z M 60,245 l 5,0 0,5 -5,0 z M 65,245 l 5,0 0,5 -5,0 z M 70,245 l 5,0 0,5 -5,0 z M 90,245 l 5,0 0,5 -5,0 z M 95,245 l 5,0 0,5 -5,0 z M 130,245 l 5,0 0,5 -5,0 z M 135,245 l 5,0 0,5 -5,0 z M 140,245 l 5,0 0,5 -5,0 z M 145,245 l 5,0 0,5 -5,0 z M 150,245 l 5,0 0,5 -5,0 z M 160,245 l 5,0 0,5 -5,0 z M 165,245 l 5,0 0,5 -5,0 z M 190,245 l 5,0 0,5 -5,0 z M 195,245 l 5,0 0,5 -5,0 z M 200,245 l 5,0 0,5 -5,0 z M 215,245 l 5,0 0,5 -5,0 z M 230,245 l 5,0 0,5 -5,0 z M 235,245 l 5,0 0,5 -5,0 z M 245,245 l 5,0 0,5 -5,0 z " />
	</g>
</svg>
