<?xml version="1.0" standalone="no"?>
<svg xmlns="http://www.w3.org/2000/svg" version="1.1" width="220" height="220">
	<!-- Created with https://api.qrserver.com (QR Code API, see goQR.me/api for information) -->
	<title>QR Code</title>
	<desc>BEGIN:VCARD
VERSION:2.1
FN:Jiri Zlatohlavek
N:Zlatohlavek;Jiri
TITLE:Experience Designer
TEL;HOME;VOICE:+420602155715
EMAIL;HOME;INTERNET:jiri@statusquack.com
URL:https://statusquack.com
ORG:Status Quack
END:VCARD
</desc>
	<rect style="fill:rgb(255, 255, 255);fill-opacity:1" x="0" y="0" width="220" height="220" />
	<g id="elements">
		<path style="fill:rgb(17, 17, 68)" d="M 4,4 l 4,0 0,4 -4,0 z M 8,4 l 4,0 0,4 -4,0 z M 12,4 l 4,0 0,4 -4,0 z M 16,4 l 4,0 0,4 -4,0 z M 20,4 l 4,0 0,4 -4,0 z M 24,4 l 4,0 0,4 -4,0 z M 28,4 l 4,0 0,4 -4,0 z M 40,4 l 4,0 0,4 -4,0 z M 44,4 l 4,0 0,4 -4,0 z M 56,4 l 4,0 0,4 -4,0 z M 64,4 l 4,0 0,4 -4,0 z M 76,4 l 4,0 0,4 -4,0 z M 80,4 l 4,0 0,4 -4,0 z M 84,4 l 4,0 0,4 -4,0 z M 88,4 l 4,0 0,4 -4,0 z M 92,4 l 4,0 0,4 -4,0 z M 100,4 l 4,0 0,4 -4,0 z M 108,4 l 4,0 0,4 -4,0 z M 112,4 l 4,0 0,4 -4,0 z M 116,4 l 4,0 0,4 -4,0 z M 120,4 l 4,0 0,4 -4,0 z M 124,4 l 4,0 0,4 -4,0 z M 144,4 l 4,0 0,4 -4,0 z M 152,4 l 4,0 0,4 -4,0 z M 160,4 l 4,0 0,4 -4,0 z M 168,4 l 4,0 0,4 -4,0 z M 172,4 l 4,0 0,4 -4,0 z M 188,4 l 4,0 0,4 -4,0 z M 192,4 l 4,0 0,4 -4,0 z M 196,4 l 4,0 0,4 -4,0 z M 200,4 l 4,0 0,4 -4,0 z M 204,4 l 4,0 0,4 -4,0 z M 208,4 l 4,0 0,4 -4,0 z M 212,4 l 4,0 0,4 -4,0 z M 4,8 l 4,0 0,4 -4,0 z M 28,8 l 4,0 0,4 -4,0 z M 36,8 l 4,0 0,4 -4,0 z M 44,8 l 4,0 0,4 -4,0 z M 48,8 l 4,0 0,4 -4,0 z M 52,8 l 4,0 0,4 -4,0 z M 76,8 l 4,0 0,4 -4,0 z M 84,8 l 4,0 0,4 -4,0 z M 92,8 l 4,0 0,4 -4,0 z M 100,8 l 4,0 0,4 -4,0 z M 108,8 l 4,0 0,4 -4,0 z M 124,8 l 4,0 0,4 -4,0 z M 128,8 l 4,0 0,4 -4,0 z M 136,8 l 4,0 0,4 -4,0 z M 140,8 l 4,0 0,4 -4,0 z M 144,8 l 4,0 0,4 -4,0 z M 156,8 l 4,0 0,4 -4,0 z M 160,8 l 4,0 0,4 -4,0 z M 164,8 l 4,0 0,4 -4,0 z M 172,8 l 4,0 0,4 -4,0 z M 176,8 l 4,0 0,4 -4,0 z M 188,8 l 4,0 0,4 -4,0 z M 212,8 l 4,0 0,4 -4,0 z M 4,12 l 4,0 0,4 -4,0 z M 12,12 l 4,0 0,4 -4,0 z M 16,12 l 4,0 0,4 -4,0 z M 20,12 l 4,0 0,4 -4,0 z M 28,12 l 4,0 0,4 -4,0 z M 64,12 l 4,0 0,4 -4,0 z M 76,12 l 4,0 0,4 -4,0 z M 80,12 l 4,0 0,4 -4,0 z M 84,12 l 4,0 0,4 -4,0 z M 88,12 l 4,0 0,4 -4,0 z M 92,12 l 4,0 0,4 -4,0 z M 100,12 l 4,0 0,4 -4,0 z M 124,12 l 4,0 0,4 -4,0 z M 128,12 l 4,0 0,4 -4,0 z M 132,12 l 4,0 0,4 -4,0 z M 144,12 l 4,0 0,4 -4,0 z M 148,12 l 4,0 0,4 -4,0 z M 152,12 l 4,0 0,4 -4,0 z M 164,12 l 4,0 0,4 -4,0 z M 176,12 l 4,0 0,4 -4,0 z M 188,12 l 4,0 0,4 -4,0 z M 196,12 l 4,0 0,4 -4,0 z M 200,12 l 4,0 0,4 -4,0 z M 204,12 l 4,0 0,4 -4,0 z M 212,12 l 4,0 0,4 -4,0 z M 4,16 l 4,0 0,4 -4,0 z M 12,16 l 4,0 0,4 -4,0 z M 16,16 l 4,0 0,4 -4,0 z M 20,16 l 4,0 0,4 -4,0 z M 28,16 l 4,0 0,4 -4,0 z M 36,16 l 4,0 0,4 -4,0 z M 76,16 l 4,0 0,4 -4,0 z M 84,16 l 4,0 0,4 -4,0 z M 104,16 l 4,0 0,4 -4,0 z M 108,16 l 4,0 0,4 -4,0 z M 112,16 l 4,0 0,4 -4,0 z M 116,16 l 4,0 0,4 -4,0 z M 120,16 l 4,0 0,4 -4,0 z M 124,16 l 4,0 0,4 -4,0 z M 140,16 l 4,0 0,4 -4,0 z M 156,16 l 4,0 0,4 -4,0 z M 160,16 l 4,0 0,4 -4,0 z M 164,16 l 4,0 0,4 -4,0 z M 172,16 l 4,0 0,4 -4,0 z M 180,16 l 4,0 0,4 -4,0 z M 188,16 l 4,0 0,4 -4,0 z M 196,16 l 4,0 0,4 -4,0 z M 200,16 l 4,0 0,4 -4,0 z M 204,16 l 4,0 0,4 -4,0 z M 212,16 l 4,0 0,4 -4,0 z M 4,20 l 4,0 0,4 -4,0 z M 12,20 l 4,0 0,4 -4,0 z M 16,20 l 4,0 0,4 -4,0 z M 20,20 l 4,0 0,4 -4,0 z M 28,20 l 4,0 0,4 -4,0 z M 40,20 l 4,0 0,4 -4,0 z M 52,20 l 4,0 0,4 -4,0 z M 56,20 l 4,0 0,4 -4,0 z M 60,20 l 4,0 0,4 -4,0 z M 68,20 l 4,0 0,4 -4,0 z M 72,20 l 4,0 0,4 -4,0 z M 88,20 l 4,0 0,4 -4,0 z M 92,20 l 4,0 0,4 -4,0 z M 96,20 l 4,0 0,4 -4,0 z M 100,20 l 4,0 0,4 -4,0 z M 104,20 l 4,0 0,4 -4,0 z M 108,20 l 4,0 0,4 -4,0 z M 112,20 l 4,0 0,4 -4,0 z M 116,20 l 4,0 0,4 -4,0 z M 128,20 l 4,0 0,4 -4,0 z M 132,20 l 4,0 0,4 -4,0 z M 136,20 l 4,0 0,4 -4,0 z M 140,20 l 4,0 0,4 -4,0 z M 144,20 l 4,0 0,4 -4,0 z M 156,20 l 4,0 0,4 -4,0 z M 164,20 l 4,0 0,4 -4,0 z M 168,20 l 4,0 0,4 -4,0 z M 172,20 l 4,0 0,4 -4,0 z M 188,20 l 4,0 0,4 -4,0 z M 196,20 l 4,0 0,4 -4,0 z M 200,20 l 4,0 0,4 -4,0 z M 204,20 l 4,0 0,4 -4,0 z M 212,20 l 4,0 0,4 -4,0 z M 4,24 l 4,0 0,4 -4,0 z M 28,24 l 4,0 0,4 -4,0 z M 36,24 l 4,0 0,4 -4,0 z M 40,24 l 4,0 0,4 -4,0 z M 44,24 l 4,0 0,4 -4,0 z M 48,24 l 4,0 0,4 -4,0 z M 56,24 l 4,0 0,4 -4,0 z M 60,24 l 4,0 0,4 -4,0 z M 64,24 l 4,0 0,4 -4,0 z M 68,24 l 4,0 0,4 -4,0 z M 76,24 l 4,0 0,4 -4,0 z M 80,24 l 4,0 0,4 -4,0 z M 84,24 l 4,0 0,4 -4,0 z M 100,24 l 4,0 0,4 -4,0 z M 116,24 l 4,0 0,4 -4,0 z M 120,24 l 4,0 0,4 -4,0 z M 128,24 l 4,0 0,4 -4,0 z M 140,24 l 4,0 0,4 -4,0 z M 144,24 l 4,0 0,4 -4,0 z M 148,24 l 4,0 0,4 -4,0 z M 168,24 l 4,0 0,4 -4,0 z M 172,24 l 4,0 0,4 -4,0 z M 188,24 l 4,0 0,4 -4,0 z M 212,24 l 4,0 0,4 -4,0 z M 4,28 l 4,0 0,4 -4,0 z M 8,28 l 4,0 0,4 -4,0 z M 12,28 l 4,0 0,4 -4,0 z M 16,28 l 4,0 0,4 -4,0 z M 20,28 l 4,0 0,4 -4,0 z M 24,28 l 4,0 0,4 -4,0 z M 28,28 l 4,0 0,4 -4,0 z M 36,28 l 4,0 0,4 -4,0 z M 44,28 l 4,0 0,4 -4,0 z M 52,28 l 4,0 0,4 -4,0 z M 60,28 l 4,0 0,4 -4,0 z M 68,28 l 4,0 0,4 -4,0 z M 76,28 l 4,0 0,4 -4,0 z M 84,28 l 4,0 0,4 -4,0 z M 92,28 l 4,0 0,4 -4,0 z M 100,28 l 4,0 0,4 -4,0 z M 108,28 l 4,0 0,4 -4,0 z M 116,28 l 4,0 0,4 -4,0 z M 124,28 l 4,0 0,4 -4,0 z M 132,28 l 4,0 0,4 -4,0 z M 140,28 l 4,0 0,4 -4,0 z M 148,28 l 4,0 0,4 -4,0 z M 156,28 l 4,0 0,4 -4,0 z M 164,28 l 4,0 0,4 -4,0 z M 172,28 l 4,0 0,4 -4,0 z M 180,28 l 4,0 0,4 -4,0 z M 188,28 l 4,0 0,4 -4,0 z M 192,28 l 4,0 0,4 -4,0 z M 196,28 l 4,0 0,4 -4,0 z M 200,28 l 4,0 0,4 -4,0 z M 204,28 l 4,0 0,4 -4,0 z M 208,28 l 4,0 0,4 -4,0 z M 212,28 l 4,0 0,4 -4,0 z M 60,32 l 4,0 0,4 -4,0 z M 64,32 l 4,0 0,4 -4,0 z M 72,32 l 4,0 0,4 -4,0 z M 76,32 l 4,0 0,4 -4,0 z M 84,32 l 4,0 0,4 -4,0 z M 96,32 l 4,0 0,4 -4,0 z M 100,32 l 4,0 0,4 -4,0 z M 116,32 l 4,0 0,4 -4,0 z M 128,32 l 4,0 0,4 -4,0 z M 136,32 l 4,0 0,4 -4,0 z M 140,32 l 4,0 0,4 -4,0 z M 152,32 l 4,0 0,4 -4,0 z M 156,32 l 4,0 0,4 -4,0 z M 160,32 l 4,0 0,4 -4,0 z M 164,32 l 4,0 0,4 -4,0 z M 168,32 l 4,0 0,4 -4,0 z M 180,32 l 4,0 0,4 -4,0 z M 4,36 l 4,0 0,4 -4,0 z M 8,36 l 4,0 0,4 -4,0 z M 12,36 l 4,0 0,4 -4,0 z M 16,36 l 4,0 0,4 -4,0 z M 20,36 l 4,0 0,4 -4,0 z M 28,36 l 4,0 0,4 -4,0 z M 32,36 l 4,0 0,4 -4,0 z M 36,36 l 4,0 0,4 -4,0 z M 40,36 l 4,0 0,4 -4,0 z M 48,36 l 4,0 0,4 -4,0 z M 52,36 l 4,0 0,4 -4,0 z M 56,36 l 4,0 0,4 -4,0 z M 60,36 l 4,0 0,4 -4,0 z M 64,36 l 4,0 0,4 -4,0 z M 76,36 l 4,0 0,4 -4,0 z M 80,36 l 4,0 0,4 -4,0 z M 96,36 l 4,0 0,4 -4,0 z M 100,36 l 4,0 0,4 -4,0 z M 104,36 l 4,0 0,4 -4,0 z M 108,36 l 4,0 0,4 -4,0 z M 112,36 l 4,0 0,4 -4,0 z M 116,36 l 4,0 0,4 -4,0 z M 120,36 l 4,0 0,4 -4,0 z M 124,36 l 4,0 0,4 -4,0 z M 128,36 l 4,0 0,4 -4,0 z M 136,36 l 4,0 0,4 -4,0 z M 144,36 l 4,0 0,4 -4,0 z M 148,36 l 4,0 0,4 -4,0 z M 184,36 l 4,0 0,4 -4,0 z M 192,36 l 4,0 0,4 -4,0 z M 200,36 l 4,0 0,4 -4,0 z M 208,36 l 4,0 0,4 -4,0 z M 4,40 l 4,0 0,4 -4,0 z M 12,40 l 4,0 0,4 -4,0 z M 16,40 l 4,0 0,4 -4,0 z M 32,40 l 4,0 0,4 -4,0 z M 36,40 l 4,0 0,4 -4,0 z M 44,40 l 4,0 0,4 -4,0 z M 48,40 l 4,0 0,4 -4,0 z M 52,40 l 4,0 0,4 -4,0 z M 68,40 l 4,0 0,4 -4,0 z M 72,40 l 4,0 0,4 -4,0 z M 76,40 l 4,0 0,4 -4,0 z M 88,40 l 4,0 0,4 -4,0 z M 96,40 l 4,0 0,4 -4,0 z M 100,40 l 4,0 0,4 -4,0 z M 104,40 l 4,0 0,4 -4,0 z M 116,40 l 4,0 0,4 -4,0 z M 120,40 l 4,0 0,4 -4,0 z M 124,40 l 4,0 0,4 -4,0 z M 132,40 l 4,0 0,4 -4,0 z M 148,40 l 4,0 0,4 -4,0 z M 152,40 l 4,0 0,4 -4,0 z M 164,40 l 4,0 0,4 -4,0 z M 172,40 l 4,0 0,4 -4,0 z M 176,40 l 4,0 0,4 -4,0 z M 188,40 l 4,0 0,4 -4,0 z M 200,40 l 4,0 0,4 -4,0 z M 204,40 l 4,0 0,4 -4,0 z M 208,40 l 4,0 0,4 -4,0 z M 212,40 l 4,0 0,4 -4,0 z M 4,44 l 4,0 0,4 -4,0 z M 8,44 l 4,0 0,4 -4,0 z M 12,44 l 4,0 0,4 -4,0 z M 16,44 l 4,0 0,4 -4,0 z M 20,44 l 4,0 0,4 -4,0 z M 24,44 l 4,0 0,4 -4,0 z M 28,44 l 4,0 0,4 -4,0 z M 36,44 l 4,0 0,4 -4,0 z M 52,44 l 4,0 0,4 -4,0 z M 64,44 l 4,0 0,4 -4,0 z M 68,44 l 4,0 0,4 -4,0 z M 72,44 l 4,0 0,4 -4,0 z M 80,44 l 4,0 0,4 -4,0 z M 96,44 l 4,0 0,4 -4,0 z M 100,44 l 4,0 0,4 -4,0 z M 104,44 l 4,0 0,4 -4,0 z M 112,44 l 4,0 0,4 -4,0 z M 116,44 l 4,0 0,4 -4,0 z M 120,44 l 4,0 0,4 -4,0 z M 124,44 l 4,0 0,4 -4,0 z M 132,44 l 4,0 0,4 -4,0 z M 136,44 l 4,0 0,4 -4,0 z M 140,44 l 4,0 0,4 -4,0 z M 144,44 l 4,0 0,4 -4,0 z M 148,44 l 4,0 0,4 -4,0 z M 156,44 l 4,0 0,4 -4,0 z M 164,44 l 4,0 0,4 -4,0 z M 168,44 l 4,0 0,4 -4,0 z M 180,44 l 4,0 0,4 -4,0 z M 192,44 l 4,0 0,4 -4,0 z M 196,44 l 4,0 0,4 -4,0 z M 200,44 l 4,0 0,4 -4,0 z M 212,44 l 4,0 0,4 -4,0 z M 4,48 l 4,0 0,4 -4,0 z M 24,48 l 4,0 0,4 -4,0 z M 32,48 l 4,0 0,4 -4,0 z M 40,48 l 4,0 0,4 -4,0 z M 52,48 l 4,0 0,4 -4,0 z M 68,48 l 4,0 0,4 -4,0 z M 72,48 l 4,0 0,4 -4,0 z M 76,48 l 4,0 0,4 -4,0 z M 100,48 l 4,0 0,4 -4,0 z M 104,48 l 4,0 0,4 -4,0 z M 112,48 l 4,0 0,4 -4,0 z M 120,48 l 4,0 0,4 -4,0 z M 124,48 l 4,0 0,4 -4,0 z M 128,48 l 4,0 0,4 -4,0 z M 136,48 l 4,0 0,4 -4,0 z M 140,48 l 4,0 0,4 -4,0 z M 144,48 l 4,0 0,4 -4,0 z M 148,48 l 4,0 0,4 -4,0 z M 152,48 l 4,0 0,4 -4,0 z M 164,48 l 4,0 0,4 -4,0 z M 172,48 l 4,0 0,4 -4,0 z M 176,48 l 4,0 0,4 -4,0 z M 16,52 l 4,0 0,4 -4,0 z M 20,52 l 4,0 0,4 -4,0 z M 28,52 l 4,0 0,4 -4,0 z M 68,52 l 4,0 0,4 -4,0 z M 80,52 l 4,0 0,4 -4,0 z M 84,52 l 4,0 0,4 -4,0 z M 96,52 l 4,0 0,4 -4,0 z M 100,52 l 4,0 0,4 -4,0 z M 108,52 l 4,0 0,4 -4,0 z M 112,52 l 4,0 0,4 -4,0 z M 120,52 l 4,0 0,4 -4,0 z M 132,52 l 4,0 0,4 -4,0 z M 148,52 l 4,0 0,4 -4,0 z M 152,52 l 4,0 0,4 -4,0 z M 160,52 l 4,0 0,4 -4,0 z M 164,52 l 4,0 0,4 -4,0 z M 172,52 l 4,0 0,4 -4,0 z M 176,52 l 4,0 0,4 -4,0 z M 180,52 l 4,0 0,4 -4,0 z M 188,52 l 4,0 0,4 -4,0 z M 196,52 l 4,0 0,4 -4,0 z M 200,52 l 4,0 0,4 -4,0 z M 204,52 l 4,0 0,4 -4,0 z M 212,52 l 4,0 0,4 -4,0 z M 8,56 l 4,0 0,4 -4,0 z M 20,56 l 4,0 0,4 -4,0 z M 24,56 l 4,0 0,4 -4,0 z M 40,56 l 4,0 0,4 -4,0 z M 44,56 l 4,0 0,4 -4,0 z M 48,56 l 4,0 0,4 -4,0 z M 52,56 l 4,0 0,4 -4,0 z M 60,56 l 4,0 0,4 -4,0 z M 64,56 l 4,0 0,4 -4,0 z M 68,56 l 4,0 0,4 -4,0 z M 76,56 l 4,0 0,4 -4,0 z M 92,56 l 4,0 0,4 -4,0 z M 96,56 l 4,0 0,4 -4,0 z M 100,56 l 4,0 0,4 -4,0 z M 108,56 l 4,0 0,4 -4,0 z M 112,56 l 4,0 0,4 -4,0 z M 116,56 l 4,0 0,4 -4,0 z M 128,56 l 4,0 0,4 -4,0 z M 136,56 l 4,0 0,4 -4,0 z M 140,56 l 4,0 0,4 -4,0 z M 144,56 l 4,0 0,4 -4,0 z M 148,56 l 4,0 0,4 -4,0 z M 180,56 l 4,0 0,4 -4,0 z M 192,56 l 4,0 0,4 -4,0 z M 196,56 l 4,0 0,4 -4,0 z M 204,56 l 4,0 0,4 -4,0 z M 212,56 l 4,0 0,4 -4,0 z M 16,60 l 4,0 0,4 -4,0 z M 28,60 l 4,0 0,4 -4,0 z M 40,60 l 4,0 0,4 -4,0 z M 52,60 l 4,0 0,4 -4,0 z M 68,60 l 4,0 0,4 -4,0 z M 72,60 l 4,0 0,4 -4,0 z M 80,60 l 4,0 0,4 -4,0 z M 108,60 l 4,0 0,4 -4,0 z M 120,60 l 4,0 0,4 -4,0 z M 128,60 l 4,0 0,4 -4,0 z M 140,60 l 4,0 0,4 -4,0 z M 144,60 l 4,0 0,4 -4,0 z M 156,60 l 4,0 0,4 -4,0 z M 160,60 l 4,0 0,4 -4,0 z M 168,60 l 4,0 0,4 -4,0 z M 176,60 l 4,0 0,4 -4,0 z M 184,60 l 4,0 0,4 -4,0 z M 188,60 l 4,0 0,4 -4,0 z M 192,60 l 4,0 0,4 -4,0 z M 196,60 l 4,0 0,4 -4,0 z M 200,60 l 4,0 0,4 -4,0 z M 204,60 l 4,0 0,4 -4,0 z M 208,60 l 4,0 0,4 -4,0 z M 12,64 l 4,0 0,4 -4,0 z M 20,64 l 4,0 0,4 -4,0 z M 32,64 l 4,0 0,4 -4,0 z M 56,64 l 4,0 0,4 -4,0 z M 64,64 l 4,0 0,4 -4,0 z M 68,64 l 4,0 0,4 -4,0 z M 80,64 l 4,0 0,4 -4,0 z M 88,64 l 4,0 0,4 -4,0 z M 92,64 l 4,0 0,4 -4,0 z M 96,64 l 4,0 0,4 -4,0 z M 100,64 l 4,0 0,4 -4,0 z M 108,64 l 4,0 0,4 -4,0 z M 112,64 l 4,0 0,4 -4,0 z M 116,64 l 4,0 0,4 -4,0 z M 120,64 l 4,0 0,4 -4,0 z M 124,64 l 4,0 0,4 -4,0 z M 140,64 l 4,0 0,4 -4,0 z M 144,64 l 4,0 0,4 -4,0 z M 160,64 l 4,0 0,4 -4,0 z M 164,64 l 4,0 0,4 -4,0 z M 180,64 l 4,0 0,4 -4,0 z M 184,64 l 4,0 0,4 -4,0 z M 188,64 l 4,0 0,4 -4,0 z M 200,64 l 4,0 0,4 -4,0 z M 204,64 l 4,0 0,4 -4,0 z M 8,68 l 4,0 0,4 -4,0 z M 20,68 l 4,0 0,4 -4,0 z M 24,68 l 4,0 0,4 -4,0 z M 28,68 l 4,0 0,4 -4,0 z M 32,68 l 4,0 0,4 -4,0 z M 72,68 l 4,0 0,4 -4,0 z M 88,68 l 4,0 0,4 -4,0 z M 92,68 l 4,0 0,4 -4,0 z M 96,68 l 4,0 0,4 -4,0 z M 100,68 l 4,0 0,4 -4,0 z M 104,68 l 4,0 0,4 -4,0 z M 108,68 l 4,0 0,4 -4,0 z M 112,68 l 4,0 0,4 -4,0 z M 124,68 l 4,0 0,4 -4,0 z M 136,68 l 4,0 0,4 -4,0 z M 144,68 l 4,0 0,4 -4,0 z M 148,68 l 4,0 0,4 -4,0 z M 152,68 l 4,0 0,4 -4,0 z M 188,68 l 4,0 0,4 -4,0 z M 192,68 l 4,0 0,4 -4,0 z M 196,68 l 4,0 0,4 -4,0 z M 200,68 l 4,0 0,4 -4,0 z M 204,68 l 4,0 0,4 -4,0 z M 208,68 l 4,0 0,4 -4,0 z M 16,72 l 4,0 0,4 -4,0 z M 20,72 l 4,0 0,4 -4,0 z M 24,72 l 4,0 0,4 -4,0 z M 32,72 l 4,0 0,4 -4,0 z M 36,72 l 4,0 0,4 -4,0 z M 48,72 l 4,0 0,4 -4,0 z M 52,72 l 4,0 0,4 -4,0 z M 56,72 l 4,0 0,4 -4,0 z M 64,72 l 4,0 0,4 -4,0 z M 76,72 l 4,0 0,4 -4,0 z M 80,72 l 4,0 0,4 -4,0 z M 84,72 l 4,0 0,4 -4,0 z M 88,72 l 4,0 0,4 -4,0 z M 92,72 l 4,0 0,4 -4,0 z M 104,72 l 4,0 0,4 -4,0 z M 108,72 l 4,0 0,4 -4,0 z M 116,72 l 4,0 0,4 -4,0 z M 120,72 l 4,0 0,4 -4,0 z M 124,72 l 4,0 0,4 -4,0 z M 128,72 l 4,0 0,4 -4,0 z M 144,72 l 4,0 0,4 -4,0 z M 148,72 l 4,0 0,4 -4,0 z M 152,72 l 4,0 0,4 -4,0 z M 160,72 l 4,0 0,4 -4,0 z M 168,72 l 4,0 0,4 -4,0 z M 172,72 l 4,0 0,4 -4,0 z M 176,72 l 4,0 0,4 -4,0 z M 196,72 l 4,0 0,4 -4,0 z M 200,72 l 4,0 0,4 -4,0 z M 208,72 l 4,0 0,4 -4,0 z M 12,76 l 4,0 0,4 -4,0 z M 16,76 l 4,0 0,4 -4,0 z M 28,76 l 4,0 0,4 -4,0 z M 40,76 l 4,0 0,4 -4,0 z M 44,76 l 4,0 0,4 -4,0 z M 48,76 l 4,0 0,4 -4,0 z M 52,76 l 4,0 0,4 -4,0 z M 60,76 l 4,0 0,4 -4,0 z M 84,76 l 4,0 0,4 -4,0 z M 88,76 l 4,0 0,4 -4,0 z M 100,76 l 4,0 0,4 -4,0 z M 108,76 l 4,0 0,4 -4,0 z M 112,76 l 4,0 0,4 -4,0 z M 124,76 l 4,0 0,4 -4,0 z M 132,76 l 4,0 0,4 -4,0 z M 136,76 l 4,0 0,4 -4,0 z M 140,76 l 4,0 0,4 -4,0 z M 148,76 l 4,0 0,4 -4,0 z M 152,76 l 4,0 0,4 -4,0 z M 156,76 l 4,0 0,4 -4,0 z M 172,76 l 4,0 0,4 -4,0 z M 180,76 l 4,0 0,4 -4,0 z M 184,76 l 4,0 0,4 -4,0 z M 196,76 l 4,0 0,4 -4,0 z M 200,76 l 4,0 0,4 -4,0 z M 208,76 l 4,0 0,4 -4,0 z M 8,80 l 4,0 0,4 -4,0 z M 12,80 l 4,0 0,4 -4,0 z M 32,80 l 4,0 0,4 -4,0 z M 36,80 l 4,0 0,4 -4,0 z M 48,80 l 4,0 0,4 -4,0 z M 56,80 l 4,0 0,4 -4,0 z M 64,80 l 4,0 0,4 -4,0 z M 72,80 l 4,0 0,4 -4,0 z M 80,80 l 4,0 0,4 -4,0 z M 84,80 l 4,0 0,4 -4,0 z M 88,80 l 4,0 0,4 -4,0 z M 92,80 l 4,0 0,4 -4,0 z M 104,80 l 4,0 0,4 -4,0 z M 112,80 l 4,0 0,4 -4,0 z M 116,80 l 4,0 0,4 -4,0 z M 120,80 l 4,0 0,4 -4,0 z M 124,80 l 4,0 0,4 -4,0 z M 128,80 l 4,0 0,4 -4,0 z M 132,80 l 4,0 0,4 -4,0 z M 136,80 l 4,0 0,4 -4,0 z M 140,80 l 4,0 0,4 -4,0 z M 144,80 l 4,0 0,4 -4,0 z M 148,80 l 4,0 0,4 -4,0 z M 156,80 l 4,0 0,4 -4,0 z M 164,80 l 4,0 0,4 -4,0 z M 180,80 l 4,0 0,4 -4,0 z M 184,80 l 4,0 0,4 -4,0 z M 4,84 l 4,0 0,4 -4,0 z M 8,84 l 4,0 0,4 -4,0 z M 16,84 l 4,0 0,4 -4,0 z M 20,84 l 4,0 0,4 -4,0 z M 28,84 l 4,0 0,4 -4,0 z M 40,84 l 4,0 0,4 -4,0 z M 44,84 l 4,0 0,4 -4,0 z M 52,84 l 4,0 0,4 -4,0 z M 72,84 l 4,0 0,4 -4,0 z M 76,84 l 4,0 0,4 -4,0 z M 88,84 l 4,0 0,4 -4,0 z M 96,84 l 4,0 0,4 -4,0 z M 100,84 l 4,0 0,4 -4,0 z M 108,84 l 4,0 0,4 -4,0 z M 112,84 l 4,0 0,4 -4,0 z M 116,84 l 4,0 0,4 -4,0 z M 132,84 l 4,0 0,4 -4,0 z M 136,84 l 4,0 0,4 -4,0 z M 140,84 l 4,0 0,4 -4,0 z M 156,84 l 4,0 0,4 -4,0 z M 160,84 l 4,0 0,4 -4,0 z M 176,84 l 4,0 0,4 -4,0 z M 180,84 l 4,0 0,4 -4,0 z M 184,84 l 4,0 0,4 -4,0 z M 188,84 l 4,0 0,4 -4,0 z M 192,84 l 4,0 0,4 -4,0 z M 196,84 l 4,0 0,4 -4,0 z M 200,84 l 4,0 0,4 -4,0 z M 8,88 l 4,0 0,4 -4,0 z M 12,88 l 4,0 0,4 -4,0 z M 20,88 l 4,0 0,4 -4,0 z M 36,88 l 4,0 0,4 -4,0 z M 52,88 l 4,0 0,4 -4,0 z M 56,88 l 4,0 0,4 -4,0 z M 64,88 l 4,0 0,4 -4,0 z M 68,88 l 4,0 0,4 -4,0 z M 80,88 l 4,0 0,4 -4,0 z M 88,88 l 4,0 0,4 -4,0 z M 96,88 l 4,0 0,4 -4,0 z M 100,88 l 4,0 0,4 -4,0 z M 108,88 l 4,0 0,4 -4,0 z M 116,88 l 4,0 0,4 -4,0 z M 128,88 l 4,0 0,4 -4,0 z M 136,88 l 4,0 0,4 -4,0 z M 144,88 l 4,0 0,4 -4,0 z M 148,88 l 4,0 0,4 -4,0 z M 156,88 l 4,0 0,4 -4,0 z M 164,88 l 4,0 0,4 -4,0 z M 172,88 l 4,0 0,4 -4,0 z M 184,88 l 4,0 0,4 -4,0 z M 192,88 l 4,0 0,4 -4,0 z M 196,88 l 4,0 0,4 -4,0 z M 204,88 l 4,0 0,4 -4,0 z M 208,88 l 4,0 0,4 -4,0 z M 212,88 l 4,0 0,4 -4,0 z M 4,92 l 4,0 0,4 -4,0 z M 8,92 l 4,0 0,4 -4,0 z M 16,92 l 4,0 0,4 -4,0 z M 28,92 l 4,0 0,4 -4,0 z M 48,92 l 4,0 0,4 -4,0 z M 52,92 l 4,0 0,4 -4,0 z M 56,92 l 4,0 0,4 -4,0 z M 60,92 l 4,0 0,4 -4,0 z M 64,92 l 4,0 0,4 -4,0 z M 76,92 l 4,0 0,4 -4,0 z M 80,92 l 4,0 0,4 -4,0 z M 104,92 l 4,0 0,4 -4,0 z M 124,92 l 4,0 0,4 -4,0 z M 140,92 l 4,0 0,4 -4,0 z M 156,92 l 4,0 0,4 -4,0 z M 168,92 l 4,0 0,4 -4,0 z M 184,92 l 4,0 0,4 -4,0 z M 188,92 l 4,0 0,4 -4,0 z M 192,92 l 4,0 0,4 -4,0 z M 200,92 l 4,0 0,4 -4,0 z M 208,92 l 4,0 0,4 -4,0 z M 4,96 l 4,0 0,4 -4,0 z M 8,96 l 4,0 0,4 -4,0 z M 20,96 l 4,0 0,4 -4,0 z M 32,96 l 4,0 0,4 -4,0 z M 36,96 l 4,0 0,4 -4,0 z M 48,96 l 4,0 0,4 -4,0 z M 60,96 l 4,0 0,4 -4,0 z M 64,96 l 4,0 0,4 -4,0 z M 68,96 l 4,0 0,4 -4,0 z M 72,96 l 4,0 0,4 -4,0 z M 76,96 l 4,0 0,4 -4,0 z M 80,96 l 4,0 0,4 -4,0 z M 84,96 l 4,0 0,4 -4,0 z M 92,96 l 4,0 0,4 -4,0 z M 96,96 l 4,0 0,4 -4,0 z M 100,96 l 4,0 0,4 -4,0 z M 108,96 l 4,0 0,4 -4,0 z M 120,96 l 4,0 0,4 -4,0 z M 132,96 l 4,0 0,4 -4,0 z M 136,96 l 4,0 0,4 -4,0 z M 152,96 l 4,0 0,4 -4,0 z M 164,96 l 4,0 0,4 -4,0 z M 184,96 l 4,0 0,4 -4,0 z M 200,96 l 4,0 0,4 -4,0 z M 204,96 l 4,0 0,4 -4,0 z M 4,100 l 4,0 0,4 -4,0 z M 12,100 l 4,0 0,4 -4,0 z M 20,100 l 4,0 0,4 -4,0 z M 24,100 l 4,0 0,4 -4,0 z M 28,100 l 4,0 0,4 -4,0 z M 32,100 l 4,0 0,4 -4,0 z M 36,100 l 4,0 0,4 -4,0 z M 52,100 l 4,0 0,4 -4,0 z M 56,100 l 4,0 0,4 -4,0 z M 60,100 l 4,0 0,4 -4,0 z M 64,100 l 4,0 0,4 -4,0 z M 76,100 l 4,0 0,4 -4,0 z M 96,100 l 4,0 0,4 -4,0 z M 100,100 l 4,0 0,4 -4,0 z M 104,100 l 4,0 0,4 -4,0 z M 108,100 l 4,0 0,4 -4,0 z M 112,100 l 4,0 0,4 -4,0 z M 116,100 l 4,0 0,4 -4,0 z M 124,100 l 4,0 0,4 -4,0 z M 128,100 l 4,0 0,4 -4,0 z M 144,100 l 4,0 0,4 -4,0 z M 148,100 l 4,0 0,4 -4,0 z M 156,100 l 4,0 0,4 -4,0 z M 180,100 l 4,0 0,4 -4,0 z M 184,100 l 4,0 0,4 -4,0 z M 188,100 l 4,0 0,4 -4,0 z M 192,100 l 4,0 0,4 -4,0 z M 196,100 l 4,0 0,4 -4,0 z M 200,100 l 4,0 0,4 -4,0 z M 212,100 l 4,0 0,4 -4,0 z M 12,104 l 4,0 0,4 -4,0 z M 16,104 l 4,0 0,4 -4,0 z M 20,104 l 4,0 0,4 -4,0 z M 36,104 l 4,0 0,4 -4,0 z M 40,104 l 4,0 0,4 -4,0 z M 48,104 l 4,0 0,4 -4,0 z M 68,104 l 4,0 0,4 -4,0 z M 72,104 l 4,0 0,4 -4,0 z M 76,104 l 4,0 0,4 -4,0 z M 96,104 l 4,0 0,4 -4,0 z M 100,104 l 4,0 0,4 -4,0 z M 116,104 l 4,0 0,4 -4,0 z M 120,104 l 4,0 0,4 -4,0 z M 124,104 l 4,0 0,4 -4,0 z M 132,104 l 4,0 0,4 -4,0 z M 148,104 l 4,0 0,4 -4,0 z M 152,104 l 4,0 0,4 -4,0 z M 168,104 l 4,0 0,4 -4,0 z M 172,104 l 4,0 0,4 -4,0 z M 180,104 l 4,0 0,4 -4,0 z M 196,104 l 4,0 0,4 -4,0 z M 200,104 l 4,0 0,4 -4,0 z M 208,104 l 4,0 0,4 -4,0 z M 8,108 l 4,0 0,4 -4,0 z M 16,108 l 4,0 0,4 -4,0 z M 20,108 l 4,0 0,4 -4,0 z M 28,108 l 4,0 0,4 -4,0 z M 36,108 l 4,0 0,4 -4,0 z M 40,108 l 4,0 0,4 -4,0 z M 56,108 l 4,0 0,4 -4,0 z M 64,108 l 4,0 0,4 -4,0 z M 68,108 l 4,0 0,4 -4,0 z M 72,108 l 4,0 0,4 -4,0 z M 76,108 l 4,0 0,4 -4,0 z M 88,108 l 4,0 0,4 -4,0 z M 92,108 l 4,0 0,4 -4,0 z M 100,108 l 4,0 0,4 -4,0 z M 108,108 l 4,0 0,4 -4,0 z M 116,108 l 4,0 0,4 -4,0 z M 124,108 l 4,0 0,4 -4,0 z M 140,108 l 4,0 0,4 -4,0 z M 144,108 l 4,0 0,4 -4,0 z M 156,108 l 4,0 0,4 -4,0 z M 160,108 l 4,0 0,4 -4,0 z M 180,108 l 4,0 0,4 -4,0 z M 188,108 l 4,0 0,4 -4,0 z M 196,108 l 4,0 0,4 -4,0 z M 212,108 l 4,0 0,4 -4,0 z M 8,112 l 4,0 0,4 -4,0 z M 12,112 l 4,0 0,4 -4,0 z M 20,112 l 4,0 0,4 -4,0 z M 36,112 l 4,0 0,4 -4,0 z M 40,112 l 4,0 0,4 -4,0 z M 44,112 l 4,0 0,4 -4,0 z M 52,112 l 4,0 0,4 -4,0 z M 56,112 l 4,0 0,4 -4,0 z M 68,112 l 4,0 0,4 -4,0 z M 88,112 l 4,0 0,4 -4,0 z M 92,112 l 4,0 0,4 -4,0 z M 100,112 l 4,0 0,4 -4,0 z M 116,112 l 4,0 0,4 -4,0 z M 120,112 l 4,0 0,4 -4,0 z M 124,112 l 4,0 0,4 -4,0 z M 128,112 l 4,0 0,4 -4,0 z M 132,112 l 4,0 0,4 -4,0 z M 136,112 l 4,0 0,4 -4,0 z M 144,112 l 4,0 0,4 -4,0 z M 156,112 l 4,0 0,4 -4,0 z M 180,112 l 4,0 0,4 -4,0 z M 196,112 l 4,0 0,4 -4,0 z M 200,112 l 4,0 0,4 -4,0 z M 204,112 l 4,0 0,4 -4,0 z M 4,116 l 4,0 0,4 -4,0 z M 8,116 l 4,0 0,4 -4,0 z M 20,116 l 4,0 0,4 -4,0 z M 24,116 l 4,0 0,4 -4,0 z M 28,116 l 4,0 0,4 -4,0 z M 32,116 l 4,0 0,4 -4,0 z M 36,116 l 4,0 0,4 -4,0 z M 40,116 l 4,0 0,4 -4,0 z M 44,116 l 4,0 0,4 -4,0 z M 48,116 l 4,0 0,4 -4,0 z M 52,116 l 4,0 0,4 -4,0 z M 64,116 l 4,0 0,4 -4,0 z M 68,116 l 4,0 0,4 -4,0 z M 72,116 l 4,0 0,4 -4,0 z M 96,116 l 4,0 0,4 -4,0 z M 100,116 l 4,0 0,4 -4,0 z M 104,116 l 4,0 0,4 -4,0 z M 108,116 l 4,0 0,4 -4,0 z M 112,116 l 4,0 0,4 -4,0 z M 116,116 l 4,0 0,4 -4,0 z M 120,116 l 4,0 0,4 -4,0 z M 124,116 l 4,0 0,4 -4,0 z M 132,116 l 4,0 0,4 -4,0 z M 136,116 l 4,0 0,4 -4,0 z M 148,116 l 4,0 0,4 -4,0 z M 152,116 l 4,0 0,4 -4,0 z M 160,116 l 4,0 0,4 -4,0 z M 164,116 l 4,0 0,4 -4,0 z M 176,116 l 4,0 0,4 -4,0 z M 180,116 l 4,0 0,4 -4,0 z M 184,116 l 4,0 0,4 -4,0 z M 188,116 l 4,0 0,4 -4,0 z M 192,116 l 4,0 0,4 -4,0 z M 196,116 l 4,0 0,4 -4,0 z M 204,116 l 4,0 0,4 -4,0 z M 4,120 l 4,0 0,4 -4,0 z M 8,120 l 4,0 0,4 -4,0 z M 12,120 l 4,0 0,4 -4,0 z M 20,120 l 4,0 0,4 -4,0 z M 24,120 l 4,0 0,4 -4,0 z M 32,120 l 4,0 0,4 -4,0 z M 44,120 l 4,0 0,4 -4,0 z M 52,120 l 4,0 0,4 -4,0 z M 56,120 l 4,0 0,4 -4,0 z M 60,120 l 4,0 0,4 -4,0 z M 76,120 l 4,0 0,4 -4,0 z M 80,120 l 4,0 0,4 -4,0 z M 96,120 l 4,0 0,4 -4,0 z M 100,120 l 4,0 0,4 -4,0 z M 104,120 l 4,0 0,4 -4,0 z M 124,120 l 4,0 0,4 -4,0 z M 136,120 l 4,0 0,4 -4,0 z M 140,120 l 4,0 0,4 -4,0 z M 148,120 l 4,0 0,4 -4,0 z M 176,120 l 4,0 0,4 -4,0 z M 184,120 l 4,0 0,4 -4,0 z M 188,120 l 4,0 0,4 -4,0 z M 192,120 l 4,0 0,4 -4,0 z M 196,120 l 4,0 0,4 -4,0 z M 200,120 l 4,0 0,4 -4,0 z M 204,120 l 4,0 0,4 -4,0 z M 208,120 l 4,0 0,4 -4,0 z M 212,120 l 4,0 0,4 -4,0 z M 4,124 l 4,0 0,4 -4,0 z M 8,124 l 4,0 0,4 -4,0 z M 16,124 l 4,0 0,4 -4,0 z M 28,124 l 4,0 0,4 -4,0 z M 32,124 l 4,0 0,4 -4,0 z M 40,124 l 4,0 0,4 -4,0 z M 72,124 l 4,0 0,4 -4,0 z M 80,124 l 4,0 0,4 -4,0 z M 84,124 l 4,0 0,4 -4,0 z M 88,124 l 4,0 0,4 -4,0 z M 92,124 l 4,0 0,4 -4,0 z M 96,124 l 4,0 0,4 -4,0 z M 116,124 l 4,0 0,4 -4,0 z M 140,124 l 4,0 0,4 -4,0 z M 156,124 l 4,0 0,4 -4,0 z M 168,124 l 4,0 0,4 -4,0 z M 176,124 l 4,0 0,4 -4,0 z M 184,124 l 4,0 0,4 -4,0 z M 188,124 l 4,0 0,4 -4,0 z M 192,124 l 4,0 0,4 -4,0 z M 200,124 l 4,0 0,4 -4,0 z M 212,124 l 4,0 0,4 -4,0 z M 8,128 l 4,0 0,4 -4,0 z M 16,128 l 4,0 0,4 -4,0 z M 20,128 l 4,0 0,4 -4,0 z M 24,128 l 4,0 0,4 -4,0 z M 32,128 l 4,0 0,4 -4,0 z M 40,128 l 4,0 0,4 -4,0 z M 52,128 l 4,0 0,4 -4,0 z M 56,128 l 4,0 0,4 -4,0 z M 64,128 l 4,0 0,4 -4,0 z M 68,128 l 4,0 0,4 -4,0 z M 80,128 l 4,0 0,4 -4,0 z M 84,128 l 4,0 0,4 -4,0 z M 88,128 l 4,0 0,4 -4,0 z M 92,128 l 4,0 0,4 -4,0 z M 100,128 l 4,0 0,4 -4,0 z M 104,128 l 4,0 0,4 -4,0 z M 108,128 l 4,0 0,4 -4,0 z M 112,128 l 4,0 0,4 -4,0 z M 116,128 l 4,0 0,4 -4,0 z M 120,128 l 4,0 0,4 -4,0 z M 124,128 l 4,0 0,4 -4,0 z M 128,128 l 4,0 0,4 -4,0 z M 132,128 l 4,0 0,4 -4,0 z M 152,128 l 4,0 0,4 -4,0 z M 160,128 l 4,0 0,4 -4,0 z M 164,128 l 4,0 0,4 -4,0 z M 176,128 l 4,0 0,4 -4,0 z M 184,128 l 4,0 0,4 -4,0 z M 192,128 l 4,0 0,4 -4,0 z M 196,128 l 4,0 0,4 -4,0 z M 208,128 l 4,0 0,4 -4,0 z M 4,132 l 4,0 0,4 -4,0 z M 8,132 l 4,0 0,4 -4,0 z M 24,132 l 4,0 0,4 -4,0 z M 28,132 l 4,0 0,4 -4,0 z M 32,132 l 4,0 0,4 -4,0 z M 36,132 l 4,0 0,4 -4,0 z M 40,132 l 4,0 0,4 -4,0 z M 48,132 l 4,0 0,4 -4,0 z M 72,132 l 4,0 0,4 -4,0 z M 84,132 l 4,0 0,4 -4,0 z M 92,132 l 4,0 0,4 -4,0 z M 104,132 l 4,0 0,4 -4,0 z M 120,132 l 4,0 0,4 -4,0 z M 124,132 l 4,0 0,4 -4,0 z M 128,132 l 4,0 0,4 -4,0 z M 136,132 l 4,0 0,4 -4,0 z M 140,132 l 4,0 0,4 -4,0 z M 144,132 l 4,0 0,4 -4,0 z M 148,132 l 4,0 0,4 -4,0 z M 152,132 l 4,0 0,4 -4,0 z M 168,132 l 4,0 0,4 -4,0 z M 172,132 l 4,0 0,4 -4,0 z M 176,132 l 4,0 0,4 -4,0 z M 184,132 l 4,0 0,4 -4,0 z M 196,132 l 4,0 0,4 -4,0 z M 200,132 l 4,0 0,4 -4,0 z M 204,132 l 4,0 0,4 -4,0 z M 208,132 l 4,0 0,4 -4,0 z M 4,136 l 4,0 0,4 -4,0 z M 8,136 l 4,0 0,4 -4,0 z M 24,136 l 4,0 0,4 -4,0 z M 36,136 l 4,0 0,4 -4,0 z M 48,136 l 4,0 0,4 -4,0 z M 56,136 l 4,0 0,4 -4,0 z M 64,136 l 4,0 0,4 -4,0 z M 76,136 l 4,0 0,4 -4,0 z M 84,136 l 4,0 0,4 -4,0 z M 92,136 l 4,0 0,4 -4,0 z M 96,136 l 4,0 0,4 -4,0 z M 108,136 l 4,0 0,4 -4,0 z M 112,136 l 4,0 0,4 -4,0 z M 116,136 l 4,0 0,4 -4,0 z M 124,136 l 4,0 0,4 -4,0 z M 128,136 l 4,0 0,4 -4,0 z M 152,136 l 4,0 0,4 -4,0 z M 160,136 l 4,0 0,4 -4,0 z M 168,136 l 4,0 0,4 -4,0 z M 172,136 l 4,0 0,4 -4,0 z M 180,136 l 4,0 0,4 -4,0 z M 192,136 l 4,0 0,4 -4,0 z M 200,136 l 4,0 0,4 -4,0 z M 204,136 l 4,0 0,4 -4,0 z M 12,140 l 4,0 0,4 -4,0 z M 16,140 l 4,0 0,4 -4,0 z M 20,140 l 4,0 0,4 -4,0 z M 28,140 l 4,0 0,4 -4,0 z M 40,140 l 4,0 0,4 -4,0 z M 44,140 l 4,0 0,4 -4,0 z M 48,140 l 4,0 0,4 -4,0 z M 52,140 l 4,0 0,4 -4,0 z M 56,140 l 4,0 0,4 -4,0 z M 112,140 l 4,0 0,4 -4,0 z M 116,140 l 4,0 0,4 -4,0 z M 120,140 l 4,0 0,4 -4,0 z M 132,140 l 4,0 0,4 -4,0 z M 136,140 l 4,0 0,4 -4,0 z M 140,140 l 4,0 0,4 -4,0 z M 156,140 l 4,0 0,4 -4,0 z M 164,140 l 4,0 0,4 -4,0 z M 168,140 l 4,0 0,4 -4,0 z M 184,140 l 4,0 0,4 -4,0 z M 192,140 l 4,0 0,4 -4,0 z M 212,140 l 4,0 0,4 -4,0 z M 8,144 l 4,0 0,4 -4,0 z M 16,144 l 4,0 0,4 -4,0 z M 36,144 l 4,0 0,4 -4,0 z M 48,144 l 4,0 0,4 -4,0 z M 56,144 l 4,0 0,4 -4,0 z M 64,144 l 4,0 0,4 -4,0 z M 88,144 l 4,0 0,4 -4,0 z M 120,144 l 4,0 0,4 -4,0 z M 124,144 l 4,0 0,4 -4,0 z M 128,144 l 4,0 0,4 -4,0 z M 132,144 l 4,0 0,4 -4,0 z M 136,144 l 4,0 0,4 -4,0 z M 140,144 l 4,0 0,4 -4,0 z M 144,144 l 4,0 0,4 -4,0 z M 152,144 l 4,0 0,4 -4,0 z M 164,144 l 4,0 0,4 -4,0 z M 180,144 l 4,0 0,4 -4,0 z M 188,144 l 4,0 0,4 -4,0 z M 196,144 l 4,0 0,4 -4,0 z M 204,144 l 4,0 0,4 -4,0 z M 212,144 l 4,0 0,4 -4,0 z M 4,148 l 4,0 0,4 -4,0 z M 8,148 l 4,0 0,4 -4,0 z M 12,148 l 4,0 0,4 -4,0 z M 28,148 l 4,0 0,4 -4,0 z M 32,148 l 4,0 0,4 -4,0 z M 44,148 l 4,0 0,4 -4,0 z M 52,148 l 4,0 0,4 -4,0 z M 64,148 l 4,0 0,4 -4,0 z M 112,148 l 4,0 0,4 -4,0 z M 120,148 l 4,0 0,4 -4,0 z M 132,148 l 4,0 0,4 -4,0 z M 136,148 l 4,0 0,4 -4,0 z M 140,148 l 4,0 0,4 -4,0 z M 148,148 l 4,0 0,4 -4,0 z M 156,148 l 4,0 0,4 -4,0 z M 160,148 l 4,0 0,4 -4,0 z M 164,148 l 4,0 0,4 -4,0 z M 168,148 l 4,0 0,4 -4,0 z M 172,148 l 4,0 0,4 -4,0 z M 192,148 l 4,0 0,4 -4,0 z M 196,148 l 4,0 0,4 -4,0 z M 212,148 l 4,0 0,4 -4,0 z M 20,152 l 4,0 0,4 -4,0 z M 24,152 l 4,0 0,4 -4,0 z M 32,152 l 4,0 0,4 -4,0 z M 44,152 l 4,0 0,4 -4,0 z M 52,152 l 4,0 0,4 -4,0 z M 76,152 l 4,0 0,4 -4,0 z M 80,152 l 4,0 0,4 -4,0 z M 88,152 l 4,0 0,4 -4,0 z M 96,152 l 4,0 0,4 -4,0 z M 100,152 l 4,0 0,4 -4,0 z M 108,152 l 4,0 0,4 -4,0 z M 112,152 l 4,0 0,4 -4,0 z M 132,152 l 4,0 0,4 -4,0 z M 136,152 l 4,0 0,4 -4,0 z M 180,152 l 4,0 0,4 -4,0 z M 184,152 l 4,0 0,4 -4,0 z M 188,152 l 4,0 0,4 -4,0 z M 196,152 l 4,0 0,4 -4,0 z M 200,152 l 4,0 0,4 -4,0 z M 212,152 l 4,0 0,4 -4,0 z M 4,156 l 4,0 0,4 -4,0 z M 8,156 l 4,0 0,4 -4,0 z M 12,156 l 4,0 0,4 -4,0 z M 16,156 l 4,0 0,4 -4,0 z M 28,156 l 4,0 0,4 -4,0 z M 48,156 l 4,0 0,4 -4,0 z M 56,156 l 4,0 0,4 -4,0 z M 60,156 l 4,0 0,4 -4,0 z M 64,156 l 4,0 0,4 -4,0 z M 68,156 l 4,0 0,4 -4,0 z M 76,156 l 4,0 0,4 -4,0 z M 92,156 l 4,0 0,4 -4,0 z M 96,156 l 4,0 0,4 -4,0 z M 100,156 l 4,0 0,4 -4,0 z M 104,156 l 4,0 0,4 -4,0 z M 112,156 l 4,0 0,4 -4,0 z M 116,156 l 4,0 0,4 -4,0 z M 132,156 l 4,0 0,4 -4,0 z M 140,156 l 4,0 0,4 -4,0 z M 152,156 l 4,0 0,4 -4,0 z M 160,156 l 4,0 0,4 -4,0 z M 168,156 l 4,0 0,4 -4,0 z M 180,156 l 4,0 0,4 -4,0 z M 188,156 l 4,0 0,4 -4,0 z M 196,156 l 4,0 0,4 -4,0 z M 200,156 l 4,0 0,4 -4,0 z M 208,156 l 4,0 0,4 -4,0 z M 8,160 l 4,0 0,4 -4,0 z M 12,160 l 4,0 0,4 -4,0 z M 24,160 l 4,0 0,4 -4,0 z M 32,160 l 4,0 0,4 -4,0 z M 40,160 l 4,0 0,4 -4,0 z M 60,160 l 4,0 0,4 -4,0 z M 64,160 l 4,0 0,4 -4,0 z M 68,160 l 4,0 0,4 -4,0 z M 72,160 l 4,0 0,4 -4,0 z M 76,160 l 4,0 0,4 -4,0 z M 84,160 l 4,0 0,4 -4,0 z M 88,160 l 4,0 0,4 -4,0 z M 92,160 l 4,0 0,4 -4,0 z M 100,160 l 4,0 0,4 -4,0 z M 104,160 l 4,0 0,4 -4,0 z M 112,160 l 4,0 0,4 -4,0 z M 132,160 l 4,0 0,4 -4,0 z M 144,160 l 4,0 0,4 -4,0 z M 148,160 l 4,0 0,4 -4,0 z M 156,160 l 4,0 0,4 -4,0 z M 160,160 l 4,0 0,4 -4,0 z M 164,160 l 4,0 0,4 -4,0 z M 172,160 l 4,0 0,4 -4,0 z M 176,160 l 4,0 0,4 -4,0 z M 184,160 l 4,0 0,4 -4,0 z M 188,160 l 4,0 0,4 -4,0 z M 4,164 l 4,0 0,4 -4,0 z M 16,164 l 4,0 0,4 -4,0 z M 24,164 l 4,0 0,4 -4,0 z M 28,164 l 4,0 0,4 -4,0 z M 56,164 l 4,0 0,4 -4,0 z M 60,164 l 4,0 0,4 -4,0 z M 64,164 l 4,0 0,4 -4,0 z M 76,164 l 4,0 0,4 -4,0 z M 80,164 l 4,0 0,4 -4,0 z M 100,164 l 4,0 0,4 -4,0 z M 128,164 l 4,0 0,4 -4,0 z M 144,164 l 4,0 0,4 -4,0 z M 148,164 l 4,0 0,4 -4,0 z M 152,164 l 4,0 0,4 -4,0 z M 156,164 l 4,0 0,4 -4,0 z M 180,164 l 4,0 0,4 -4,0 z M 192,164 l 4,0 0,4 -4,0 z M 196,164 l 4,0 0,4 -4,0 z M 12,168 l 4,0 0,4 -4,0 z M 16,168 l 4,0 0,4 -4,0 z M 20,168 l 4,0 0,4 -4,0 z M 32,168 l 4,0 0,4 -4,0 z M 48,168 l 4,0 0,4 -4,0 z M 52,168 l 4,0 0,4 -4,0 z M 68,168 l 4,0 0,4 -4,0 z M 72,168 l 4,0 0,4 -4,0 z M 76,168 l 4,0 0,4 -4,0 z M 92,168 l 4,0 0,4 -4,0 z M 96,168 l 4,0 0,4 -4,0 z M 108,168 l 4,0 0,4 -4,0 z M 116,168 l 4,0 0,4 -4,0 z M 120,168 l 4,0 0,4 -4,0 z M 124,168 l 4,0 0,4 -4,0 z M 132,168 l 4,0 0,4 -4,0 z M 160,168 l 4,0 0,4 -4,0 z M 164,168 l 4,0 0,4 -4,0 z M 168,168 l 4,0 0,4 -4,0 z M 172,168 l 4,0 0,4 -4,0 z M 4,172 l 4,0 0,4 -4,0 z M 8,172 l 4,0 0,4 -4,0 z M 16,172 l 4,0 0,4 -4,0 z M 20,172 l 4,0 0,4 -4,0 z M 24,172 l 4,0 0,4 -4,0 z M 28,172 l 4,0 0,4 -4,0 z M 32,172 l 4,0 0,4 -4,0 z M 44,172 l 4,0 0,4 -4,0 z M 48,172 l 4,0 0,4 -4,0 z M 60,172 l 4,0 0,4 -4,0 z M 64,172 l 4,0 0,4 -4,0 z M 68,172 l 4,0 0,4 -4,0 z M 100,172 l 4,0 0,4 -4,0 z M 108,172 l 4,0 0,4 -4,0 z M 116,172 l 4,0 0,4 -4,0 z M 124,172 l 4,0 0,4 -4,0 z M 132,172 l 4,0 0,4 -4,0 z M 136,172 l 4,0 0,4 -4,0 z M 140,172 l 4,0 0,4 -4,0 z M 160,172 l 4,0 0,4 -4,0 z M 164,172 l 4,0 0,4 -4,0 z M 176,172 l 4,0 0,4 -4,0 z M 180,172 l 4,0 0,4 -4,0 z M 184,172 l 4,0 0,4 -4,0 z M 200,172 l 4,0 0,4 -4,0 z M 208,172 l 4,0 0,4 -4,0 z M 212,172 l 4,0 0,4 -4,0 z M 8,176 l 4,0 0,4 -4,0 z M 12,176 l 4,0 0,4 -4,0 z M 40,176 l 4,0 0,4 -4,0 z M 52,176 l 4,0 0,4 -4,0 z M 60,176 l 4,0 0,4 -4,0 z M 68,176 l 4,0 0,4 -4,0 z M 128,176 l 4,0 0,4 -4,0 z M 132,176 l 4,0 0,4 -4,0 z M 136,176 l 4,0 0,4 -4,0 z M 140,176 l 4,0 0,4 -4,0 z M 144,176 l 4,0 0,4 -4,0 z M 152,176 l 4,0 0,4 -4,0 z M 156,176 l 4,0 0,4 -4,0 z M 164,176 l 4,0 0,4 -4,0 z M 188,176 l 4,0 0,4 -4,0 z M 192,176 l 4,0 0,4 -4,0 z M 196,176 l 4,0 0,4 -4,0 z M 16,180 l 4,0 0,4 -4,0 z M 28,180 l 4,0 0,4 -4,0 z M 32,180 l 4,0 0,4 -4,0 z M 40,180 l 4,0 0,4 -4,0 z M 44,180 l 4,0 0,4 -4,0 z M 48,180 l 4,0 0,4 -4,0 z M 52,180 l 4,0 0,4 -4,0 z M 60,180 l 4,0 0,4 -4,0 z M 100,180 l 4,0 0,4 -4,0 z M 104,180 l 4,0 0,4 -4,0 z M 108,180 l 4,0 0,4 -4,0 z M 112,180 l 4,0 0,4 -4,0 z M 116,180 l 4,0 0,4 -4,0 z M 120,180 l 4,0 0,4 -4,0 z M 124,180 l 4,0 0,4 -4,0 z M 132,180 l 4,0 0,4 -4,0 z M 136,180 l 4,0 0,4 -4,0 z M 140,180 l 4,0 0,4 -4,0 z M 148,180 l 4,0 0,4 -4,0 z M 152,180 l 4,0 0,4 -4,0 z M 160,180 l 4,0 0,4 -4,0 z M 164,180 l 4,0 0,4 -4,0 z M 172,180 l 4,0 0,4 -4,0 z M 180,180 l 4,0 0,4 -4,0 z M 184,180 l 4,0 0,4 -4,0 z M 188,180 l 4,0 0,4 -4,0 z M 192,180 l 4,0 0,4 -4,0 z M 196,180 l 4,0 0,4 -4,0 z M 204,180 l 4,0 0,4 -4,0 z M 36,184 l 4,0 0,4 -4,0 z M 40,184 l 4,0 0,4 -4,0 z M 44,184 l 4,0 0,4 -4,0 z M 48,184 l 4,0 0,4 -4,0 z M 52,184 l 4,0 0,4 -4,0 z M 56,184 l 4,0 0,4 -4,0 z M 60,184 l 4,0 0,4 -4,0 z M 64,184 l 4,0 0,4 -4,0 z M 76,184 l 4,0 0,4 -4,0 z M 80,184 l 4,0 0,4 -4,0 z M 88,184 l 4,0 0,4 -4,0 z M 96,184 l 4,0 0,4 -4,0 z M 100,184 l 4,0 0,4 -4,0 z M 116,184 l 4,0 0,4 -4,0 z M 124,184 l 4,0 0,4 -4,0 z M 136,184 l 4,0 0,4 -4,0 z M 140,184 l 4,0 0,4 -4,0 z M 160,184 l 4,0 0,4 -4,0 z M 180,184 l 4,0 0,4 -4,0 z M 196,184 l 4,0 0,4 -4,0 z M 208,184 l 4,0 0,4 -4,0 z M 212,184 l 4,0 0,4 -4,0 z M 4,188 l 4,0 0,4 -4,0 z M 8,188 l 4,0 0,4 -4,0 z M 12,188 l 4,0 0,4 -4,0 z M 16,188 l 4,0 0,4 -4,0 z M 20,188 l 4,0 0,4 -4,0 z M 24,188 l 4,0 0,4 -4,0 z M 28,188 l 4,0 0,4 -4,0 z M 36,188 l 4,0 0,4 -4,0 z M 44,188 l 4,0 0,4 -4,0 z M 52,188 l 4,0 0,4 -4,0 z M 56,188 l 4,0 0,4 -4,0 z M 68,188 l 4,0 0,4 -4,0 z M 72,188 l 4,0 0,4 -4,0 z M 80,188 l 4,0 0,4 -4,0 z M 84,188 l 4,0 0,4 -4,0 z M 96,188 l 4,0 0,4 -4,0 z M 100,188 l 4,0 0,4 -4,0 z M 108,188 l 4,0 0,4 -4,0 z M 116,188 l 4,0 0,4 -4,0 z M 132,188 l 4,0 0,4 -4,0 z M 140,188 l 4,0 0,4 -4,0 z M 152,188 l 4,0 0,4 -4,0 z M 156,188 l 4,0 0,4 -4,0 z M 160,188 l 4,0 0,4 -4,0 z M 168,188 l 4,0 0,4 -4,0 z M 180,188 l 4,0 0,4 -4,0 z M 188,188 l 4,0 0,4 -4,0 z M 196,188 l 4,0 0,4 -4,0 z M 208,188 l 4,0 0,4 -4,0 z M 4,192 l 4,0 0,4 -4,0 z M 28,192 l 4,0 0,4 -4,0 z M 40,192 l 4,0 0,4 -4,0 z M 48,192 l 4,0 0,4 -4,0 z M 52,192 l 4,0 0,4 -4,0 z M 56,192 l 4,0 0,4 -4,0 z M 64,192 l 4,0 0,4 -4,0 z M 84,192 l 4,0 0,4 -4,0 z M 92,192 l 4,0 0,4 -4,0 z M 100,192 l 4,0 0,4 -4,0 z M 116,192 l 4,0 0,4 -4,0 z M 120,192 l 4,0 0,4 -4,0 z M 124,192 l 4,0 0,4 -4,0 z M 136,192 l 4,0 0,4 -4,0 z M 140,192 l 4,0 0,4 -4,0 z M 144,192 l 4,0 0,4 -4,0 z M 156,192 l 4,0 0,4 -4,0 z M 180,192 l 4,0 0,4 -4,0 z M 196,192 l 4,0 0,4 -4,0 z M 200,192 l 4,0 0,4 -4,0 z M 4,196 l 4,0 0,4 -4,0 z M 12,196 l 4,0 0,4 -4,0 z M 16,196 l 4,0 0,4 -4,0 z M 20,196 l 4,0 0,4 -4,0 z M 28,196 l 4,0 0,4 -4,0 z M 36,196 l 4,0 0,4 -4,0 z M 40,196 l 4,0 0,4 -4,0 z M 44,196 l 4,0 0,4 -4,0 z M 60,196 l 4,0 0,4 -4,0 z M 72,196 l 4,0 0,4 -4,0 z M 96,196 l 4,0 0,4 -4,0 z M 100,196 l 4,0 0,4 -4,0 z M 104,196 l 4,0 0,4 -4,0 z M 108,196 l 4,0 0,4 -4,0 z M 112,196 l 4,0 0,4 -4,0 z M 116,196 l 4,0 0,4 -4,0 z M 120,196 l 4,0 0,4 -4,0 z M 124,196 l 4,0 0,4 -4,0 z M 128,196 l 4,0 0,4 -4,0 z M 140,196 l 4,0 0,4 -4,0 z M 148,196 l 4,0 0,4 -4,0 z M 156,196 l 4,0 0,4 -4,0 z M 168,196 l 4,0 0,4 -4,0 z M 172,196 l 4,0 0,4 -4,0 z M 180,196 l 4,0 0,4 -4,0 z M 184,196 l 4,0 0,4 -4,0 z M 188,196 l 4,0 0,4 -4,0 z M 192,196 l 4,0 0,4 -4,0 z M 196,196 l 4,0 0,4 -4,0 z M 4,200 l 4,0 0,4 -4,0 z M 12,200 l 4,0 0,4 -4,0 z M 16,200 l 4,0 0,4 -4,0 z M 20,200 l 4,0 0,4 -4,0 z M 28,200 l 4,0 0,4 -4,0 z M 36,200 l 4,0 0,4 -4,0 z M 40,200 l 4,0 0,4 -4,0 z M 44,200 l 4,0 0,4 -4,0 z M 52,200 l 4,0 0,4 -4,0 z M 56,200 l 4,0 0,4 -4,0 z M 60,200 l 4,0 0,4 -4,0 z M 64,200 l 4,0 0,4 -4,0 z M 76,200 l 4,0 0,4 -4,0 z M 80,200 l 4,0 0,4 -4,0 z M 88,200 l 4,0 0,4 -4,0 z M 108,200 l 4,0 0,4 -4,0 z M 112,200 l 4,0 0,4 -4,0 z M 120,200 l 4,0 0,4 -4,0 z M 124,200 l 4,0 0,4 -4,0 z M 128,200 l 4,0 0,4 -4,0 z M 132,200 l 4,0 0,4 -4,0 z M 136,200 l 4,0 0,4 -4,0 z M 152,200 l 4,0 0,4 -4,0 z M 160,200 l 4,0 0,4 -4,0 z M 172,200 l 4,0 0,4 -4,0 z M 176,200 l 4,0 0,4 -4,0 z M 180,200 l 4,0 0,4 -4,0 z M 184,200 l 4,0 0,4 -4,0 z M 196,200 l 4,0 0,4 -4,0 z M 200,200 l 4,0 0,4 -4,0 z M 204,200 l 4,0 0,4 -4,0 z M 208,200 l 4,0 0,4 -4,0 z M 4,204 l 4,0 0,4 -4,0 z M 12,204 l 4,0 0,4 -4,0 z M 16,204 l 4,0 0,4 -4,0 z M 20,204 l 4,0 0,4 -4,0 z M 28,204 l 4,0 0,4 -4,0 z M 36,204 l 4,0 0,4 -4,0 z M 40,204 l 4,0 0,4 -4,0 z M 60,204 l 4,0 0,4 -4,0 z M 76,204 l 4,0 0,4 -4,0 z M 80,204 l 4,0 0,4 -4,0 z M 92,204 l 4,0 0,4 -4,0 z M 104,204 l 4,0 0,4 -4,0 z M 108,204 l 4,0 0,4 -4,0 z M 112,204 l 4,0 0,4 -4,0 z M 116,204 l 4,0 0,4 -4,0 z M 120,204 l 4,0 0,4 -4,0 z M 132,204 l 4,0 0,4 -4,0 z M 140,204 l 4,0 0,4 -4,0 z M 144,204 l 4,0 0,4 -4,0 z M 160,204 l 4,0 0,4 -4,0 z M 180,204 l 4,0 0,4 -4,0 z M 184,204 l 4,0 0,4 -4,0 z M 188,204 l 4,0 0,4 -4,0 z M 200,204 l 4,0 0,4 -4,0 z M 208,204 l 4,0 0,4 -4,0 z M 4,208 l 4,0 0,4 -4,0 z M 28,208 l 4,0 0,4 -4,0 z M 36,208 l 4,0 0,4 -4,0 z M 40,208 l 4,0 0,4 -4,0 z M 44,208 l 4,0 0,4 -4,0 z M 48,208 l 4,0 0,4 -4,0 z M 52,208 l 4,0 0,4 -4,0 z M 56,208 l 4,0 0,4 -4,0 z M 64,208 l 4,0 0,4 -4,0 z M 72,208 l 4,0 0,4 -4,0 z M 76,208 l 4,0 0,4 -4,0 z M 80,208 l 4,0 0,4 -4,0 z M 84,208 l 4,0 0,4 -4,0 z M 88,208 l 4,0 0,4 -4,0 z M 100,208 l 4,0 0,4 -4,0 z M 124,208 l 4,0 0,4 -4,0 z M 128,208 l 4,0 0,4 -4,0 z M 132,208 l 4,0 0,4 -4,0 z M 136,208 l 4,0 0,4 -4,0 z M 140,208 l 4,0 0,4 -4,0 z M 144,208 l 4,0 0,4 -4,0 z M 152,208 l 4,0 0,4 -4,0 z M 164,208 l 4,0 0,4 -4,0 z M 184,208 l 4,0 0,4 -4,0 z M 208,208 l 4,0 0,4 -4,0 z M 212,208 l 4,0 0,4 -4,0 z M 4,212 l 4,0 0,4 -4,0 z M 8,212 l 4,0 0,4 -4,0 z M 12,212 l 4,0 0,4 -4,0 z M 16,212 l 4,0 0,4 -4,0 z M 20,212 l 4,0 0,4 -4,0 z M 24,212 l 4,0 0,4 -4,0 z M 28,212 l 4,0 0,4 -4,0 z M 36,212 l 4,0 0,4 -4,0 z M 40,212 l 4,0 0,4 -4,0 z M 48,212 l 4,0 0,4 -4,0 z M 52,212 l 4,0 0,4 -4,0 z M 64,212 l 4,0 0,4 -4,0 z M 76,212 l 4,0 0,4 -4,0 z M 80,212 l 4,0 0,4 -4,0 z M 84,212 l 4,0 0,4 -4,0 z M 88,212 l 4,0 0,4 -4,0 z M 96,212 l 4,0 0,4 -4,0 z M 100,212 l 4,0 0,4 -4,0 z M 112,212 l 4,0 0,4 -4,0 z M 116,212 l 4,0 0,4 -4,0 z M 120,212 l 4,0 0,4 -4,0 z M 132,212 l 4,0 0,4 -4,0 z M 148,212 l 4,0 0,4 -4,0 z M 160,212 l 4,0 0,4 -4,0 z M 164,212 l 4,0 0,4 -4,0 z M 176,212 l 4,0 0,4 -4,0 z M 196,212 l 4,0 0,4 -4,0 z M 208,212 l 4,0 0,4 -4,0 z " />
	</g>
</svg>
