<svg xmlns="http://www.w3.org/2000/svg" viewBox="0 0 242.17 289.81"><defs><style>.cls-1{fill:#f52;}.cls-2{fill:#0bf;}.cls-3{fill:#b04;}</style></defs><title>Asset 2</title><g id="Layer_2" data-name="Layer 2"><g id="Layer_1-2" data-name="Layer 1"><path class="cls-1" d="M121.08,0A121.09,121.09,0,0,0,89.74,238l31.34-31.34L82.55,168.17a6,6,0,0,1-.92-1.23,60.51,60.51,0,1,1,82.26-3.05h0l38.53,38.53a6.05,6.05,0,0,1,.74,7.66A121.07,121.07,0,0,0,121.08,0Z"/><path class="cls-2" d="M121.08,181.62a60.25,60.25,0,0,1-39.45-14.68,6,6,0,0,1,.92-7.33l34.25-34.25a6.05,6.05,0,0,1,8.56,0l38.53,38.53A60.35,60.35,0,0,1,121.08,181.62Zm0,60.54A121.19,121.19,0,0,1,89.74,238l-7.18,7.18a6.05,6.05,0,0,0,0,8.56L116.8,288a6.05,6.05,0,0,0,8.56,0l38.53-38.53L202.42,211a6.06,6.06,0,0,0,.74-.9A120.63,120.63,0,0,1,121.08,242.17Z"/><path class="cls-3" d="M163.89,163.89h0a60.45,60.45,0,0,1-82.26,3.05,6,6,0,0,0,.92,1.23l38.53,38.53L89.74,238a121.09,121.09,0,0,0,113.42-28,6.05,6.05,0,0,0-.74-7.66Z"/></g></g></svg>