<svg xmlns="http://www.w3.org/2000/svg" viewBox="0 0 636.01 194.86"><defs><style>.cls-1{fill:#0bf;}.cls-2{fill:#b04;}.cls-3{fill:#f52;}</style></defs><title>Asset 1</title><g id="Layer_2" data-name="Layer 2"><g id="Layer_1-2" data-name="Layer 1"><path class="cls-1" d="M215.51,104.63c-3.63,0-5.23-1.6-5.23-5.23V77.16h-6.86c-3.78,0-5.23,1.6-5.23,5.23v66.26c0,3.92-1.74,6.83-12.06,6.83s-11.91-2.91-11.91-6.83V82.39c0-3.63-1.6-5.23-5.23-5.23h-5V99.39c0,3.63-1.6,5.23-5.23,5.23H140.94v49.69c0,17.73,8.86,29.64,44.9,29.64s44.9-11.92,44.9-29.64V104.63Z"/><path class="cls-1" d="M479.81,78.32c3.93,0,6.61-.42,8.43-1.16H471.49A22.55,22.55,0,0,0,479.81,78.32Z"/><path class="cls-1" d="M45.19,75a98.07,98.07,0,0,0-22.46,2.18H44.35A3.47,3.47,0,0,0,47.7,75C46.86,75,46.07,75,45.19,75Z"/><path class="cls-1" d="M81,83c-1.62,13.35-11.61,20.85-27.38,21.55,3.13,1.18,3.77,3.21,3.77,5.59v39.67c0,3.93-1.6,6.83-12.21,6.83S33,153.74,33,149.81V110.14c0-2.33.67-4.33,3.64-5.52H5.26c-3.06,0-4.66-1.15-5.09-3.68-.1,1.24-.17,2.51-.17,3.82V153c0,14.68,6.1,25.28,28.63,28.63v8c0,3.63,1.6,5.23,5.23,5.23H56.24c3.63,0,5.23-1.6,5.23-5.23v-8c22.81-3.2,28.77-13.95,28.77-28.63V104.77C90.24,95.77,88,88.24,81,83Z"/><path class="cls-1" d="M618.1,115.81,625,100.16c-4.92,2.93-11.34,4.47-19,4.47H590.06l-4.94,11.19h-5.81V104.63H560c-3.63,0-5.23-1.6-5.23-5.23v-17c0-3.63,1.6-5.23,5.23-5.23h-8.46c-3.63,0-5.23,1.6-5.23,5.23v94.16c0,3.63,1.6,5.23,5.23,5.23h22.52c3.63,0,5.23-1.6,5.23-5.23V143.27h19.18c3.05,0,4.65,1.74,4.65,4.94v28.33c0,3.63,1.6,5.23,5.23,5.23h22.38c3.63,0,5.23-1.6,5.23-5.23v-41C636,124,629,116.39,618.1,115.81Z"/><path class="cls-1" d="M361.63,104.63h-9.39c-3.63,0-5.23-1.6-5.23-5.23V77.23a12.51,12.51,0,0,0-1.34-.07H306.58c-2.67,0-4.59.7-5.92,2.18V99.39c0,3.63-1.6,5.23-5.23,5.23h-5l-4,10.31c-3.92,10.17-5.67,17.44-5.67,23.25v38.36c0,3.63,1.6,5.23,5.23,5.23h21.36c3.63,0,5.23-1.6,5.23-5.23V156.21h25.72v20.34c0,3.63,1.74,5.23,5.67,5.23H366c3.63,0,5.23-1.6,5.23-5.23V138.19c0-5.81-1.74-13.08-5.67-23.25Zm-47.49,25.14L321,107.67c.73-1.74,1.6-2.47,2.76-2.47h3.63c1.16,0,2,.73,2.76,2.47L337,129.76Z"/><path class="cls-1" d="M491.69,154H462.49c-6.1,0-8.87-2.18-8.87-7V112.47c0-4.38,2.18-6.69,6.92-7.17-18.4-3.36-24.74-12.22-25.75-24.34-9.67,4.49-14.3,13-14.3,26v45.19c0,20.2,11.33,29.64,35.75,29.64h35.46c3.63,0,5.23-1.6,5.23-5.23V159.26C496.93,155.63,495.33,154,491.69,154Z"/><path class="cls-2" d="M456.24,77.16h15.25a22.55,22.55,0,0,0,8.32,1.16c3.93,0,6.61-.42,8.43-1.16h3.45c3.63,0,5.23,1.6,5.23,5.23V100c0,3.63-1.6,5.23-5.23,5.23H462.49a19.39,19.39,0,0,0-1.94.1c-18.4-3.36-24.74-12.22-25.75-24.33C440.29,78.42,447.39,77.16,456.24,77.16Zm173.49,0H607.35c-3.78,0-5.81,1.31-7.27,4.79l-10,22.67h15.87c7.69,0,14.1-1.54,19-4.47l8-18.2C634.23,78.9,633.07,77.16,629.73,77.16ZM347,77.23V99.39c0,3.63,1.6,5.23,5.23,5.23h9.39L352.94,82A6.47,6.47,0,0,0,347,77.23Zm232.3,5.16c0-3.62-1.59-5.21-5.18-5.23H560c-3.63,0-5.23,1.6-5.23,5.23v17c0,3.63,1.6,5.23,5.23,5.23h19.29Zm-420.6,22.24c3.63,0,5.23-1.6,5.23-5.23V77.16H146.17c-3.63,0-5.23,1.6-5.23,5.23v22.24Zm142-5.23V79.34A7.6,7.6,0,0,0,299.17,82l-8.69,22.67h5C299.07,104.62,300.67,103,300.67,99.39ZM81,83c-6.42-4.84-16.91-7.69-33.3-8a3.47,3.47,0,0,1-3.35,2.13H22.73C6.73,81,1.12,89.57.17,100.95c.43,2.53,2,3.68,5.09,3.68H36.63c1.84-.74,4.56-1.16,8.56-1.16a24.75,24.75,0,0,1,8.44,1.09C69.4,103.85,79.39,96.35,81,83Zm149.74-.61c0-3.63-1.6-5.23-5.23-5.23H210.28V99.39c0,3.63,1.6,5.23,5.23,5.23h15.23Z"/><path class="cls-3" d="M36.63,104.63H51.18c.84,0,1.64,0,2.44-.08a24.75,24.75,0,0,0-8.44-1.09C41.19,103.46,38.47,103.89,36.63,104.63Z"/><path class="cls-3" d="M456.24,77.16h15.25c-2.92-1.2-3.59-3.24-3.59-5.66V5.23c0-3.63-1.6-5.23-5.23-5.23H439.85c-3.63,0-5.23,1.6-5.23,5.23V77.16c0,1.3.07,2.57.17,3.81C440.29,78.42,447.39,77.16,456.24,77.16Z"/><path class="cls-3" d="M22.73,77.16H5.26C1.63,77.16,0,78.76,0,82.39v17a9,9,0,0,0,.14,1.55C1.12,89.57,6.73,81,22.73,77.16Z"/><path class="cls-3" d="M22.56,65,44.35,68c2.47.29,3.78,1.6,3.78,4.94A5.09,5.09,0,0,1,47.7,75c16.39.27,26.88,3.13,33.3,8A32.55,32.55,0,0,0,81.26,79V63.79c0-16.28-9-22.09-22.67-24.12L36.94,36.77A4.28,4.28,0,0,1,33,32.12c0-2.62,1.45-4.36,3.92-4.36H70.8c3.63,0,5.23-1.6,5.23-5.23V5.23C76,1.6,74.43,0,70.8,0H30.11C11.22,0,0,9,0,25.58V40.83C0,57.11,8.9,62.92,22.56,65Z"/><path class="cls-3" d="M299.17,82a7.6,7.6,0,0,1,1.49-2.61V61c0-5.81-1.74-13.08-5.67-23.25l-12.64-33C281.19,1.45,278.87,0,275.09,0H236c-3.92,0-6.25,1.45-7.41,4.79l-12.64,33C212,48,210.28,55.22,210.28,61V77.16h15.23c3.63,0,5.23,1.6,5.23,5.23v22.24h6.13c3.63,0,5.23-1.6,5.23-5.23V79h25.72V99.39c0,3.63,1.74,5.23,5.67,5.23h17ZM243.56,52.6l6.83-22.09c.73-1.74,1.6-2.47,2.76-2.47h3.63c1.16,0,2,.73,2.76,2.47l6.83,22.09Z"/><path class="cls-3" d="M519.19,0H497.11c-3.78,0-5.23,1.6-5.23,5.23V71.49c0,2.43-.67,4.46-3.63,5.66h3.45c3.63,0,5.23,1.6,5.23,5.23V100c0,3.63-1.6,5.23-5.23,5.23H462.49a19.39,19.39,0,0,0-1.94.1,106.11,106.11,0,0,0,19,1.5c36,0,44.9-11.92,44.9-29.64V5.23C524.42,1.6,522.83,0,519.19,0Z"/><path class="cls-3" d="M140.94,82.39c0-3.63,1.6-5.23,5.23-5.23h17.76V28H185.3c3.63,0,5.23-1.6,5.23-5.23V5.23c0-3.63-1.6-5.23-5.23-5.23H108.57c-3.63,0-5.23,1.6-5.23,5.23V22.82c0,3.63,1.6,5.23,5.23,5.23h21.36V99.39c0,3.63,1.6,5.23,5.23,5.23h5.78Z"/><path class="cls-3" d="M613.34,39.67l-21.65-2.91a4.28,4.28,0,0,1-3.92-4.65c0-2.62,1.45-4.36,3.92-4.36h33.86c3.63,0,5.23-1.6,5.23-5.23V5.23c0-3.63-1.6-5.23-5.23-5.23H584.86C566,0,554.78,9,554.78,25.58V40.83c0,16.28,8.86,22.09,22.52,24.12L599.1,68c2.47.29,3.78,1.6,3.78,4.94,0,2.32-1.31,4.21-3.78,4.21h-25c3.6,0,5.18,1.61,5.18,5.23v22.24h10.76l10-22.67c1.45-3.49,3.49-4.79,7.27-4.79h22.38c3.34,0,4.51,1.74,3.2,4.79l-8,18.2C632,95.94,636,88.82,636,79V63.79C636,47.52,627,41.7,613.34,39.67Z"/><path class="cls-3" d="M402.37,0H325.65c-3.63,0-5.23,1.6-5.23,5.23V22.82c0,3.63,1.6,5.23,5.23,5.23H347V77.23A6.47,6.47,0,0,1,352.94,82l8.69,22.67h14.16c3.63,0,5.23-1.6,5.23-5.23V28h21.36c3.63,0,5.23-1.6,5.23-5.23V5.23C407.6,1.6,406,0,402.37,0Z"/></g></g></svg>