<?xml version="1.0" encoding="utf-8"?>
<!-- Generator: Adobe Illustrator 16.0.4, SVG Export Plug-In . SVG Version: 6.00 Build 0)  -->
<!DOCTYPE svg PUBLIC "-//W3C//DTD SVG 1.1//EN" "http://www.w3.org/Graphics/SVG/1.1/DTD/svg11.dtd">
<svg version="1.1" id="Layer_1" xmlns="http://www.w3.org/2000/svg" xmlns:xlink="http://www.w3.org/1999/xlink" x="0px" y="0px"
	 width="858.795px" height="289.812px" viewBox="0 0 858.795 289.812" enable-background="new 0 0 858.795 289.812"
	 xml:space="preserve">
<g>
	<path fill="#FF5522" d="M121.083,0C54.21,0,0,54.211,0,121.082c0,56.029,38.064,103.148,89.737,116.963l31.345-31.344
		l-38.528-38.529c-0.374-0.373-0.667-0.792-0.923-1.228c-12.895-11.103-21.09-27.511-21.09-45.862
		c0-33.436,27.105-60.541,60.541-60.541c33.437,0,60.541,27.105,60.541,60.541c0,16.719-6.776,31.854-17.732,42.81h0.001
		l38.528,38.528c2.083,2.084,2.325,5.306,0.736,7.66c23.978-22.123,39.009-53.801,39.009-88.998C242.166,54.211,187.955,0,121.083,0
		z"/>
	<path fill="#00BBFF" d="M121.083,181.624c-15.086,0-28.851-5.553-39.451-14.68c-1.361-2.319-1.067-5.343,0.923-7.333l34.247-34.248
		c2.365-2.364,6.198-2.364,8.562,0l38.527,38.528C152.936,174.848,137.8,181.624,121.083,181.624z M121.083,242.165
		c-10.843,0-21.344-1.446-31.345-4.12l-7.184,7.184c-2.364,2.365-2.364,6.198,0,8.562l34.247,34.247
		c2.365,2.364,6.198,2.364,8.562,0l38.528-38.528l38.528-38.527c0.28-0.281,0.522-0.586,0.736-0.902
		C181.579,229.989,152.757,242.165,121.083,242.165z"/>
	<path fill="#BB0044" d="M163.892,163.892L163.892,163.892c-10.956,10.956-26.092,17.732-42.81,17.732
		c-15.086,0-28.851-5.553-39.451-14.68c0.256,0.436,0.549,0.854,0.923,1.228l38.528,38.529l-31.345,31.344
		c10.001,2.674,20.502,4.12,31.345,4.12c31.675,0,60.496-12.176,82.074-32.085c1.589-2.354,1.347-5.576-0.736-7.66L163.892,163.892z
		"/>
</g>
<g>
	<g>
		<path fill="#00BBFF" d="M501.368,153.658c-3.088,0-4.447-1.359-4.447-4.447v-18.9h-5.828c-3.211,0-4.446,1.359-4.446,4.447v56.322
			c0,3.334-1.482,5.805-10.252,5.805c-8.646,0-10.128-2.471-10.128-5.805v-56.322c0-3.088-1.359-4.447-4.447-4.447h-4.292v18.9
			c0,3.088-1.358,4.447-4.446,4.447h-15.1v42.238c0,15.068,7.535,25.197,38.166,25.197c30.632,0,38.166-10.129,38.166-25.197
			v-42.238H501.368z"/>
		<path fill="#00BBFF" d="M726.024,131.301c3.343,0,5.621-0.361,7.168-0.99h-14.243
			C720.477,130.939,722.727,131.301,726.024,131.301z"/>
		<path fill="#00BBFF" d="M356.594,128.458c-7.752,0-14.029,0.648-19.089,1.854h18.377c1.411,0,2.364-0.732,2.846-1.809
			C358.008,128.492,357.34,128.458,356.594,128.458z"/>
		<path fill="#00BBFF" d="M387.034,135.274c-1.375,11.347-9.863,17.727-23.268,18.319c2.66,1.002,3.205,2.73,3.205,4.756v33.719
			c0,3.336-1.359,5.806-10.377,5.806c-8.892,0-10.374-2.47-10.374-5.806V158.35c0-1.982,0.571-3.682,3.097-4.691h-26.66
			c-2.6,0-3.961-0.979-4.33-3.127c-0.088,1.058-0.145,2.135-0.145,3.248v41.007c0,12.476,5.188,21.491,24.332,24.333v6.791
			c0,3.088,1.358,4.448,4.446,4.448h19.022c3.088,0,4.445-1.36,4.445-4.448v-6.791c19.393-2.719,24.456-11.857,24.456-24.333
			v-41.007C394.884,146.129,392.956,139.73,387.034,135.274z"/>
		<path fill="#00BBFF" d="M843.57,163.166l5.825-13.307c-4.186,2.49-9.637,3.799-16.17,3.799h-13.489l-4.202,9.508h-4.94v-9.508
			h-16.4c-3.088,0-4.445-1.359-4.445-4.447V134.76c0-3.088,1.357-4.447,4.445-4.447h11.995c-0.015,0-0.027-0.002-0.042-0.002
			h-19.145c-3.089,0-4.447,1.359-4.447,4.447v80.037c0,3.088,1.358,4.447,4.447,4.447h19.145c3.088,0,4.447-1.359,4.447-4.447
			V186.51h16.302c2.594,0,3.953,1.482,3.953,4.201v24.084c0,3.088,1.359,4.447,4.447,4.447h19.021c3.088,0,4.445-1.359,4.445-4.447
			v-34.832C858.762,170.084,852.834,163.659,843.57,163.166z"/>
		<path fill="#00BBFF" d="M625.564,153.658h-7.978c-3.088,0-4.446-1.359-4.446-4.447v-18.842c-0.36-0.039-0.739-0.059-1.138-0.059
			h-33.227c-2.271,0-3.9,0.592-5.029,1.855v17.045c0,3.088-1.357,4.447-4.445,4.447h-4.209l-3.36,8.767
			c-3.335,8.646-4.817,14.823-4.817,19.763v32.607c0,3.088,1.358,4.447,4.447,4.447h18.156c3.088,0,4.446-1.359,4.446-4.447v-17.293
			h21.862v17.293c0,3.088,1.481,4.447,4.817,4.447h18.65c3.088,0,4.444-1.359,4.444-4.447v-32.607
			c0-4.939-1.479-11.117-4.814-19.763L625.564,153.658z M585.199,175.023l5.806-18.774c0.619-1.482,1.359-2.101,2.347-2.101h3.089
			c0.986,0,1.729,0.618,2.347,2.101l5.806,18.774H585.199z"/>
		<path fill="#00BBFF" d="M736.122,195.65h-24.826c-5.188,0-7.535-1.852-7.535-5.93v-29.396c0-3.72,1.854-5.689,5.884-6.092
			c-15.645-2.855-21.03-10.386-21.89-20.685c-8.217,3.813-12.153,11.057-12.153,22.083v38.414c0,17.17,9.634,25.197,30.384,25.197
			h30.137c3.088,0,4.448-1.359,4.448-4.447v-14.697C740.57,197.01,739.209,195.65,736.122,195.65z"/>
	</g>
	<path fill="#BB0044" d="M705.986,130.311h12.963c1.528,0.629,3.778,0.99,7.075,0.99c3.343,0,5.621-0.361,7.168-0.99h2.932
		c3.088,0,4.446,1.358,4.446,4.446v14.945c0,3.088-1.358,4.446-4.446,4.446h-24.828c-0.59,0-1.133,0.033-1.651,0.084
		c-15.645-2.855-21.032-10.385-21.89-20.685C692.425,131.381,698.465,130.311,705.986,130.311z M853.452,130.311h-19.02
		c-3.213,0-4.941,1.111-6.178,4.075l-8.519,19.271h13.487c6.535,0,11.988-1.308,16.174-3.799l6.772-15.472
		C857.282,131.793,856.293,130.311,853.452,130.311z M613.14,130.368v18.843c0,3.088,1.358,4.445,4.446,4.445h7.978l-7.386-19.271
		C617.312,131.898,615.688,130.643,613.14,130.368z M810.593,134.757c0-3.073-1.35-4.431-4.405-4.444h-11.995
		c-3.088,0-4.446,1.359-4.446,4.447v14.451c0,3.088,1.358,4.445,4.446,4.445h16.4V134.757z M453.081,153.656
		c3.088,0,4.446-1.357,4.446-4.445v-18.9h-15.1c-3.088,0-4.446,1.358-4.446,4.446v18.899H453.081z M573.747,149.211v-17.046
		c-0.526,0.591-0.955,1.315-1.27,2.221l-7.385,19.271h4.209C572.389,153.656,573.747,152.299,573.747,149.211z M387.036,135.273
		c-5.461-4.109-14.377-6.54-28.308-6.771c-0.481,1.075-1.434,1.81-2.846,1.81H337.5c-13.602,3.244-18.365,10.547-19.174,20.219
		c0.369,2.147,1.729,3.125,4.33,3.125h26.66c1.564-0.625,3.876-0.988,7.277-0.988c3.332,0,5.613,0.338,7.172,0.926
		C377.17,153,385.66,146.621,387.036,135.273z M514.313,134.757c0-3.088-1.358-4.446-4.446-4.446H496.92v18.9
		c0,3.088,1.359,4.445,4.447,4.445h12.945V134.757z"/>
	<g>
		<path fill="#FF5522" d="M349.317,153.658h12.371c0.711,0,1.393-0.033,2.078-0.064c-1.559-0.587-3.84-0.926-7.172-0.926
			C353.193,152.668,350.881,153.031,349.317,153.658z"/>
		<path fill="#FF5522" d="M705.985,130.311h12.964c-2.479-1.021-3.052-2.752-3.052-4.814V69.174c0-3.088-1.359-4.447-4.447-4.447
			h-19.393c-3.088,0-4.445,1.359-4.445,4.447v61.139c0,1.109,0.057,2.182,0.143,3.235
			C692.426,131.381,698.465,130.311,705.985,130.311z"/>
		<path fill="#FF5522" d="M337.505,130.312h-14.849c-3.088,0-4.445,1.359-4.445,4.447v14.451c0,0.488,0.047,0.917,0.115,1.32
			C319.136,140.858,323.899,133.557,337.505,130.312z"/>
		<path fill="#FF5522" d="M337.355,119.938l18.527,2.594c2.101,0.248,3.211,1.359,3.211,4.201c0,0.647-0.132,1.248-0.365,1.771
			c13.931,0.23,22.847,2.661,28.306,6.771c0.132-1.079,0.223-2.187,0.223-3.356V118.95c0-13.835-7.658-18.774-19.27-20.503
			l-18.403-2.471c-2.101-0.248-3.335-1.729-3.335-3.952s1.234-3.706,3.335-3.706h28.778c3.088,0,4.447-1.359,4.447-4.447V69.174
			c0-3.088-1.359-4.447-4.447-4.447h-34.584c-16.057,0-25.566,7.658-25.566,21.739v12.969
			C318.211,113.27,325.746,118.209,337.355,119.938z"/>
		<path fill="#FF5522" d="M572.477,134.386c0.314-0.904,0.743-1.629,1.27-2.22v-15.562c0-4.939-1.482-11.116-4.816-19.762
			l-10.745-28.04c-0.989-2.839-2.966-4.075-6.177-4.075h-33.225c-3.334,0-5.311,1.236-6.3,4.075l-10.745,28.04
			c-3.336,8.646-4.818,14.822-4.818,19.762v13.707h12.946c3.088,0,4.446,1.359,4.446,4.447v18.9h5.211
			c3.089,0,4.447-1.359,4.447-4.447v-17.293h21.863v17.293c0,3.088,1.48,4.447,4.816,4.447h14.441L572.477,134.386z
			 M525.206,109.439l5.806-18.775c0.618-1.482,1.358-2.1,2.347-2.1h3.088c0.988,0,1.729,0.617,2.348,2.1l5.804,18.775H525.206z"/>
		<path fill="#FF5522" d="M759.497,64.727h-18.774c-3.21,0-4.447,1.359-4.447,4.447v56.322c0,2.062-0.573,3.793-3.083,4.814h2.93
			c3.088,0,4.448,1.359,4.448,4.447v14.945c0,3.088-1.36,4.445-4.448,4.445h-24.826c-0.59,0-1.133,0.033-1.651,0.084
			c4.497,0.821,9.796,1.277,16.133,1.277c30.632,0,38.165-10.128,38.165-25.197V69.174
			C763.942,66.086,762.586,64.727,759.497,64.727z"/>
		<path fill="#FF5522" d="M437.981,134.758c0-3.088,1.358-4.447,4.446-4.447h15.1V88.564h18.157c3.088,0,4.445-1.357,4.445-4.445
			V69.174c0-3.088-1.357-4.447-4.445-4.447h-65.216c-3.088,0-4.446,1.359-4.446,4.447v14.945c0,3.088,1.358,4.445,4.446,4.445
			h18.157v60.646c0,3.088,1.357,4.447,4.445,4.447h4.91V134.758z"/>
		<path fill="#FF5522" d="M839.524,98.447l-18.405-2.471c-2.098-0.248-3.335-1.729-3.335-3.952s1.237-3.706,3.335-3.706h28.78
			c3.088,0,4.445-1.359,4.445-4.447V69.174c0-3.088-1.357-4.447-4.445-4.447h-34.584c-16.057,0-25.567,7.658-25.567,21.739v12.969
			c0,13.835,7.533,18.774,19.146,20.503l18.525,2.594c2.101,0.248,3.211,1.359,3.211,4.201c0,1.975-1.11,3.58-3.211,3.58h-21.23
			c3.056,0.014,4.405,1.372,4.405,4.445v18.9h9.143l8.519-19.272c1.234-2.963,2.965-4.075,6.178-4.075h19.02
			c2.84,0,3.83,1.482,2.717,4.075l-6.773,15.474c6.021-3.582,9.396-9.633,9.396-17.941V118.95
			C858.792,105.115,851.133,100.176,839.524,98.447z"/>
		<path fill="#FF5522" d="M660.201,64.727h-65.218c-3.088,0-4.445,1.359-4.445,4.447v14.945c0,3.088,1.357,4.445,4.445,4.445h18.157
			v41.805c2.548,0.273,4.172,1.529,5.038,4.017l7.386,19.272h12.032c3.088,0,4.447-1.359,4.447-4.447V88.564h18.157
			c3.088,0,4.444-1.357,4.444-4.445V69.174C664.645,66.086,663.289,64.727,660.201,64.727z"/>
	</g>
</g>
</svg>
