<?xml version="1.0" standalone="no"?>
<svg xmlns="http://www.w3.org/2000/svg" version="1.1" width="255" height="255">
	<!-- Created with https://api.qrserver.com (QR Code API, see goQR.me/api for information) -->
	<title>QR Code</title>
	<desc>BEGIN:VCARD
VERSION:2.1
FN:Vladimír Mokrý
N:Mokrý;Vladimír
TEL;HOME;VOICE:+420608404989
EMAIL;WORK;INTERNET:vladimir@statusquack.com
URL:www.statusquack.com
ORG:Status Quack
END:VCARD
</desc>
	<rect style="fill:rgb(255, 255, 255);fill-opacity:1" x="0" y="0" width="255" height="255" />
	<g id="elements">
		<path style="fill:rgb(0, 0, 0)" d="M 5,5 l 5,0 0,5 -5,0 z M 10,5 l 5,0 0,5 -5,0 z M 15,5 l 5,0 0,5 -5,0 z M 20,5 l 5,0 0,5 -5,0 z M 25,5 l 5,0 0,5 -5,0 z M 30,5 l 5,0 0,5 -5,0 z M 35,5 l 5,0 0,5 -5,0 z M 50,5 l 5,0 0,5 -5,0 z M 65,5 l 5,0 0,5 -5,0 z M 80,5 l 5,0 0,5 -5,0 z M 95,5 l 5,0 0,5 -5,0 z M 105,5 l 5,0 0,5 -5,0 z M 120,5 l 5,0 0,5 -5,0 z M 135,5 l 5,0 0,5 -5,0 z M 145,5 l 5,0 0,5 -5,0 z M 155,5 l 5,0 0,5 -5,0 z M 165,5 l 5,0 0,5 -5,0 z M 170,5 l 5,0 0,5 -5,0 z M 175,5 l 5,0 0,5 -5,0 z M 180,5 l 5,0 0,5 -5,0 z M 205,5 l 5,0 0,5 -5,0 z M 215,5 l 5,0 0,5 -5,0 z M 220,5 l 5,0 0,5 -5,0 z M 225,5 l 5,0 0,5 -5,0 z M 230,5 l 5,0 0,5 -5,0 z M 235,5 l 5,0 0,5 -5,0 z M 240,5 l 5,0 0,5 -5,0 z M 245,5 l 5,0 0,5 -5,0 z M 5,10 l 5,0 0,5 -5,0 z M 35,10 l 5,0 0,5 -5,0 z M 45,10 l 5,0 0,5 -5,0 z M 60,10 l 5,0 0,5 -5,0 z M 65,10 l 5,0 0,5 -5,0 z M 95,10 l 5,0 0,5 -5,0 z M 105,10 l 5,0 0,5 -5,0 z M 110,10 l 5,0 0,5 -5,0 z M 130,10 l 5,0 0,5 -5,0 z M 135,10 l 5,0 0,5 -5,0 z M 150,10 l 5,0 0,5 -5,0 z M 165,10 l 5,0 0,5 -5,0 z M 175,10 l 5,0 0,5 -5,0 z M 180,10 l 5,0 0,5 -5,0 z M 185,10 l 5,0 0,5 -5,0 z M 190,10 l 5,0 0,5 -5,0 z M 195,10 l 5,0 0,5 -5,0 z M 200,10 l 5,0 0,5 -5,0 z M 205,10 l 5,0 0,5 -5,0 z M 215,10 l 5,0 0,5 -5,0 z M 245,10 l 5,0 0,5 -5,0 z M 5,15 l 5,0 0,5 -5,0 z M 15,15 l 5,0 0,5 -5,0 z M 20,15 l 5,0 0,5 -5,0 z M 25,15 l 5,0 0,5 -5,0 z M 35,15 l 5,0 0,5 -5,0 z M 50,15 l 5,0 0,5 -5,0 z M 70,15 l 5,0 0,5 -5,0 z M 95,15 l 5,0 0,5 -5,0 z M 105,15 l 5,0 0,5 -5,0 z M 110,15 l 5,0 0,5 -5,0 z M 120,15 l 5,0 0,5 -5,0 z M 130,15 l 5,0 0,5 -5,0 z M 135,15 l 5,0 0,5 -5,0 z M 140,15 l 5,0 0,5 -5,0 z M 145,15 l 5,0 0,5 -5,0 z M 150,15 l 5,0 0,5 -5,0 z M 175,15 l 5,0 0,5 -5,0 z M 200,15 l 5,0 0,5 -5,0 z M 205,15 l 5,0 0,5 -5,0 z M 215,15 l 5,0 0,5 -5,0 z M 225,15 l 5,0 0,5 -5,0 z M 230,15 l 5,0 0,5 -5,0 z M 235,15 l 5,0 0,5 -5,0 z M 245,15 l 5,0 0,5 -5,0 z M 5,20 l 5,0 0,5 -5,0 z M 15,20 l 5,0 0,5 -5,0 z M 20,20 l 5,0 0,5 -5,0 z M 25,20 l 5,0 0,5 -5,0 z M 35,20 l 5,0 0,5 -5,0 z M 45,20 l 5,0 0,5 -5,0 z M 50,20 l 5,0 0,5 -5,0 z M 65,20 l 5,0 0,5 -5,0 z M 80,20 l 5,0 0,5 -5,0 z M 95,20 l 5,0 0,5 -5,0 z M 100,20 l 5,0 0,5 -5,0 z M 110,20 l 5,0 0,5 -5,0 z M 125,20 l 5,0 0,5 -5,0 z M 130,20 l 5,0 0,5 -5,0 z M 150,20 l 5,0 0,5 -5,0 z M 155,20 l 5,0 0,5 -5,0 z M 160,20 l 5,0 0,5 -5,0 z M 200,20 l 5,0 0,5 -5,0 z M 215,20 l 5,0 0,5 -5,0 z M 225,20 l 5,0 0,5 -5,0 z M 230,20 l 5,0 0,5 -5,0 z M 235,20 l 5,0 0,5 -5,0 z M 245,20 l 5,0 0,5 -5,0 z M 5,25 l 5,0 0,5 -5,0 z M 15,25 l 5,0 0,5 -5,0 z M 20,25 l 5,0 0,5 -5,0 z M 25,25 l 5,0 0,5 -5,0 z M 35,25 l 5,0 0,5 -5,0 z M 55,25 l 5,0 0,5 -5,0 z M 60,25 l 5,0 0,5 -5,0 z M 65,25 l 5,0 0,5 -5,0 z M 70,25 l 5,0 0,5 -5,0 z M 85,25 l 5,0 0,5 -5,0 z M 115,25 l 5,0 0,5 -5,0 z M 120,25 l 5,0 0,5 -5,0 z M 125,25 l 5,0 0,5 -5,0 z M 130,25 l 5,0 0,5 -5,0 z M 135,25 l 5,0 0,5 -5,0 z M 150,25 l 5,0 0,5 -5,0 z M 155,25 l 5,0 0,5 -5,0 z M 165,25 l 5,0 0,5 -5,0 z M 180,25 l 5,0 0,5 -5,0 z M 215,25 l 5,0 0,5 -5,0 z M 225,25 l 5,0 0,5 -5,0 z M 230,25 l 5,0 0,5 -5,0 z M 235,25 l 5,0 0,5 -5,0 z M 245,25 l 5,0 0,5 -5,0 z M 5,30 l 5,0 0,5 -5,0 z M 35,30 l 5,0 0,5 -5,0 z M 45,30 l 5,0 0,5 -5,0 z M 55,30 l 5,0 0,5 -5,0 z M 70,30 l 5,0 0,5 -5,0 z M 80,30 l 5,0 0,5 -5,0 z M 85,30 l 5,0 0,5 -5,0 z M 95,30 l 5,0 0,5 -5,0 z M 100,30 l 5,0 0,5 -5,0 z M 110,30 l 5,0 0,5 -5,0 z M 115,30 l 5,0 0,5 -5,0 z M 135,30 l 5,0 0,5 -5,0 z M 140,30 l 5,0 0,5 -5,0 z M 145,30 l 5,0 0,5 -5,0 z M 165,30 l 5,0 0,5 -5,0 z M 175,30 l 5,0 0,5 -5,0 z M 185,30 l 5,0 0,5 -5,0 z M 195,30 l 5,0 0,5 -5,0 z M 215,30 l 5,0 0,5 -5,0 z M 245,30 l 5,0 0,5 -5,0 z M 5,35 l 5,0 0,5 -5,0 z M 10,35 l 5,0 0,5 -5,0 z M 15,35 l 5,0 0,5 -5,0 z M 20,35 l 5,0 0,5 -5,0 z M 25,35 l 5,0 0,5 -5,0 z M 30,35 l 5,0 0,5 -5,0 z M 35,35 l 5,0 0,5 -5,0 z M 45,35 l 5,0 0,5 -5,0 z M 55,35 l 5,0 0,5 -5,0 z M 65,35 l 5,0 0,5 -5,0 z M 75,35 l 5,0 0,5 -5,0 z M 85,35 l 5,0 0,5 -5,0 z M 95,35 l 5,0 0,5 -5,0 z M 105,35 l 5,0 0,5 -5,0 z M 115,35 l 5,0 0,5 -5,0 z M 125,35 l 5,0 0,5 -5,0 z M 135,35 l 5,0 0,5 -5,0 z M 145,35 l 5,0 0,5 -5,0 z M 155,35 l 5,0 0,5 -5,0 z M 165,35 l 5,0 0,5 -5,0 z M 175,35 l 5,0 0,5 -5,0 z M 185,35 l 5,0 0,5 -5,0 z M 195,35 l 5,0 0,5 -5,0 z M 205,35 l 5,0 0,5 -5,0 z M 215,35 l 5,0 0,5 -5,0 z M 220,35 l 5,0 0,5 -5,0 z M 225,35 l 5,0 0,5 -5,0 z M 230,35 l 5,0 0,5 -5,0 z M 235,35 l 5,0 0,5 -5,0 z M 240,35 l 5,0 0,5 -5,0 z M 245,35 l 5,0 0,5 -5,0 z M 60,40 l 5,0 0,5 -5,0 z M 65,40 l 5,0 0,5 -5,0 z M 70,40 l 5,0 0,5 -5,0 z M 85,40 l 5,0 0,5 -5,0 z M 90,40 l 5,0 0,5 -5,0 z M 95,40 l 5,0 0,5 -5,0 z M 100,40 l 5,0 0,5 -5,0 z M 115,40 l 5,0 0,5 -5,0 z M 135,40 l 5,0 0,5 -5,0 z M 145,40 l 5,0 0,5 -5,0 z M 155,40 l 5,0 0,5 -5,0 z M 160,40 l 5,0 0,5 -5,0 z M 165,40 l 5,0 0,5 -5,0 z M 180,40 l 5,0 0,5 -5,0 z M 200,40 l 5,0 0,5 -5,0 z M 5,45 l 5,0 0,5 -5,0 z M 10,45 l 5,0 0,5 -5,0 z M 15,45 l 5,0 0,5 -5,0 z M 20,45 l 5,0 0,5 -5,0 z M 25,45 l 5,0 0,5 -5,0 z M 35,45 l 5,0 0,5 -5,0 z M 40,45 l 5,0 0,5 -5,0 z M 45,45 l 5,0 0,5 -5,0 z M 50,45 l 5,0 0,5 -5,0 z M 55,45 l 5,0 0,5 -5,0 z M 60,45 l 5,0 0,5 -5,0 z M 85,45 l 5,0 0,5 -5,0 z M 95,45 l 5,0 0,5 -5,0 z M 115,45 l 5,0 0,5 -5,0 z M 120,45 l 5,0 0,5 -5,0 z M 125,45 l 5,0 0,5 -5,0 z M 130,45 l 5,0 0,5 -5,0 z M 135,45 l 5,0 0,5 -5,0 z M 140,45 l 5,0 0,5 -5,0 z M 145,45 l 5,0 0,5 -5,0 z M 155,45 l 5,0 0,5 -5,0 z M 165,45 l 5,0 0,5 -5,0 z M 170,45 l 5,0 0,5 -5,0 z M 175,45 l 5,0 0,5 -5,0 z M 205,45 l 5,0 0,5 -5,0 z M 210,45 l 5,0 0,5 -5,0 z M 220,45 l 5,0 0,5 -5,0 z M 230,45 l 5,0 0,5 -5,0 z M 240,45 l 5,0 0,5 -5,0 z M 5,50 l 5,0 0,5 -5,0 z M 10,50 l 5,0 0,5 -5,0 z M 25,50 l 5,0 0,5 -5,0 z M 45,50 l 5,0 0,5 -5,0 z M 60,50 l 5,0 0,5 -5,0 z M 65,50 l 5,0 0,5 -5,0 z M 75,50 l 5,0 0,5 -5,0 z M 80,50 l 5,0 0,5 -5,0 z M 95,50 l 5,0 0,5 -5,0 z M 105,50 l 5,0 0,5 -5,0 z M 110,50 l 5,0 0,5 -5,0 z M 115,50 l 5,0 0,5 -5,0 z M 130,50 l 5,0 0,5 -5,0 z M 135,50 l 5,0 0,5 -5,0 z M 160,50 l 5,0 0,5 -5,0 z M 170,50 l 5,0 0,5 -5,0 z M 175,50 l 5,0 0,5 -5,0 z M 180,50 l 5,0 0,5 -5,0 z M 185,50 l 5,0 0,5 -5,0 z M 195,50 l 5,0 0,5 -5,0 z M 200,50 l 5,0 0,5 -5,0 z M 235,50 l 5,0 0,5 -5,0 z M 240,50 l 5,0 0,5 -5,0 z M 245,50 l 5,0 0,5 -5,0 z M 5,55 l 5,0 0,5 -5,0 z M 10,55 l 5,0 0,5 -5,0 z M 20,55 l 5,0 0,5 -5,0 z M 30,55 l 5,0 0,5 -5,0 z M 35,55 l 5,0 0,5 -5,0 z M 40,55 l 5,0 0,5 -5,0 z M 50,55 l 5,0 0,5 -5,0 z M 65,55 l 5,0 0,5 -5,0 z M 70,55 l 5,0 0,5 -5,0 z M 75,55 l 5,0 0,5 -5,0 z M 90,55 l 5,0 0,5 -5,0 z M 95,55 l 5,0 0,5 -5,0 z M 105,55 l 5,0 0,5 -5,0 z M 110,55 l 5,0 0,5 -5,0 z M 140,55 l 5,0 0,5 -5,0 z M 150,55 l 5,0 0,5 -5,0 z M 165,55 l 5,0 0,5 -5,0 z M 170,55 l 5,0 0,5 -5,0 z M 185,55 l 5,0 0,5 -5,0 z M 190,55 l 5,0 0,5 -5,0 z M 195,55 l 5,0 0,5 -5,0 z M 200,55 l 5,0 0,5 -5,0 z M 205,55 l 5,0 0,5 -5,0 z M 210,55 l 5,0 0,5 -5,0 z M 15,60 l 5,0 0,5 -5,0 z M 20,60 l 5,0 0,5 -5,0 z M 25,60 l 5,0 0,5 -5,0 z M 55,60 l 5,0 0,5 -5,0 z M 60,60 l 5,0 0,5 -5,0 z M 75,60 l 5,0 0,5 -5,0 z M 90,60 l 5,0 0,5 -5,0 z M 95,60 l 5,0 0,5 -5,0 z M 105,60 l 5,0 0,5 -5,0 z M 120,60 l 5,0 0,5 -5,0 z M 130,60 l 5,0 0,5 -5,0 z M 140,60 l 5,0 0,5 -5,0 z M 145,60 l 5,0 0,5 -5,0 z M 150,60 l 5,0 0,5 -5,0 z M 160,60 l 5,0 0,5 -5,0 z M 165,60 l 5,0 0,5 -5,0 z M 170,60 l 5,0 0,5 -5,0 z M 185,60 l 5,0 0,5 -5,0 z M 195,60 l 5,0 0,5 -5,0 z M 200,60 l 5,0 0,5 -5,0 z M 205,60 l 5,0 0,5 -5,0 z M 215,60 l 5,0 0,5 -5,0 z M 225,60 l 5,0 0,5 -5,0 z M 235,60 l 5,0 0,5 -5,0 z M 5,65 l 5,0 0,5 -5,0 z M 15,65 l 5,0 0,5 -5,0 z M 30,65 l 5,0 0,5 -5,0 z M 35,65 l 5,0 0,5 -5,0 z M 40,65 l 5,0 0,5 -5,0 z M 55,65 l 5,0 0,5 -5,0 z M 70,65 l 5,0 0,5 -5,0 z M 75,65 l 5,0 0,5 -5,0 z M 80,65 l 5,0 0,5 -5,0 z M 90,65 l 5,0 0,5 -5,0 z M 95,65 l 5,0 0,5 -5,0 z M 110,65 l 5,0 0,5 -5,0 z M 125,65 l 5,0 0,5 -5,0 z M 135,65 l 5,0 0,5 -5,0 z M 150,65 l 5,0 0,5 -5,0 z M 170,65 l 5,0 0,5 -5,0 z M 175,65 l 5,0 0,5 -5,0 z M 180,65 l 5,0 0,5 -5,0 z M 195,65 l 5,0 0,5 -5,0 z M 205,65 l 5,0 0,5 -5,0 z M 215,65 l 5,0 0,5 -5,0 z M 220,65 l 5,0 0,5 -5,0 z M 230,65 l 5,0 0,5 -5,0 z M 235,65 l 5,0 0,5 -5,0 z M 240,65 l 5,0 0,5 -5,0 z M 245,65 l 5,0 0,5 -5,0 z M 15,70 l 5,0 0,5 -5,0 z M 50,70 l 5,0 0,5 -5,0 z M 55,70 l 5,0 0,5 -5,0 z M 60,70 l 5,0 0,5 -5,0 z M 65,70 l 5,0 0,5 -5,0 z M 80,70 l 5,0 0,5 -5,0 z M 95,70 l 5,0 0,5 -5,0 z M 105,70 l 5,0 0,5 -5,0 z M 110,70 l 5,0 0,5 -5,0 z M 115,70 l 5,0 0,5 -5,0 z M 125,70 l 5,0 0,5 -5,0 z M 135,70 l 5,0 0,5 -5,0 z M 140,70 l 5,0 0,5 -5,0 z M 150,70 l 5,0 0,5 -5,0 z M 155,70 l 5,0 0,5 -5,0 z M 165,70 l 5,0 0,5 -5,0 z M 170,70 l 5,0 0,5 -5,0 z M 180,70 l 5,0 0,5 -5,0 z M 185,70 l 5,0 0,5 -5,0 z M 190,70 l 5,0 0,5 -5,0 z M 200,70 l 5,0 0,5 -5,0 z M 210,70 l 5,0 0,5 -5,0 z M 215,70 l 5,0 0,5 -5,0 z M 220,70 l 5,0 0,5 -5,0 z M 225,70 l 5,0 0,5 -5,0 z M 230,70 l 5,0 0,5 -5,0 z M 245,70 l 5,0 0,5 -5,0 z M 5,75 l 5,0 0,5 -5,0 z M 10,75 l 5,0 0,5 -5,0 z M 15,75 l 5,0 0,5 -5,0 z M 30,75 l 5,0 0,5 -5,0 z M 35,75 l 5,0 0,5 -5,0 z M 45,75 l 5,0 0,5 -5,0 z M 60,75 l 5,0 0,5 -5,0 z M 70,75 l 5,0 0,5 -5,0 z M 80,75 l 5,0 0,5 -5,0 z M 95,75 l 5,0 0,5 -5,0 z M 100,75 l 5,0 0,5 -5,0 z M 110,75 l 5,0 0,5 -5,0 z M 115,75 l 5,0 0,5 -5,0 z M 120,75 l 5,0 0,5 -5,0 z M 160,75 l 5,0 0,5 -5,0 z M 165,75 l 5,0 0,5 -5,0 z M 170,75 l 5,0 0,5 -5,0 z M 175,75 l 5,0 0,5 -5,0 z M 180,75 l 5,0 0,5 -5,0 z M 200,75 l 5,0 0,5 -5,0 z M 220,75 l 5,0 0,5 -5,0 z M 235,75 l 5,0 0,5 -5,0 z M 245,75 l 5,0 0,5 -5,0 z M 20,80 l 5,0 0,5 -5,0 z M 25,80 l 5,0 0,5 -5,0 z M 30,80 l 5,0 0,5 -5,0 z M 60,80 l 5,0 0,5 -5,0 z M 70,80 l 5,0 0,5 -5,0 z M 80,80 l 5,0 0,5 -5,0 z M 90,80 l 5,0 0,5 -5,0 z M 100,80 l 5,0 0,5 -5,0 z M 110,80 l 5,0 0,5 -5,0 z M 120,80 l 5,0 0,5 -5,0 z M 145,80 l 5,0 0,5 -5,0 z M 160,80 l 5,0 0,5 -5,0 z M 165,80 l 5,0 0,5 -5,0 z M 180,80 l 5,0 0,5 -5,0 z M 195,80 l 5,0 0,5 -5,0 z M 215,80 l 5,0 0,5 -5,0 z M 220,80 l 5,0 0,5 -5,0 z M 225,80 l 5,0 0,5 -5,0 z M 235,80 l 5,0 0,5 -5,0 z M 240,80 l 5,0 0,5 -5,0 z M 245,80 l 5,0 0,5 -5,0 z M 15,85 l 5,0 0,5 -5,0 z M 25,85 l 5,0 0,5 -5,0 z M 35,85 l 5,0 0,5 -5,0 z M 45,85 l 5,0 0,5 -5,0 z M 95,85 l 5,0 0,5 -5,0 z M 115,85 l 5,0 0,5 -5,0 z M 130,85 l 5,0 0,5 -5,0 z M 135,85 l 5,0 0,5 -5,0 z M 140,85 l 5,0 0,5 -5,0 z M 185,85 l 5,0 0,5 -5,0 z M 195,85 l 5,0 0,5 -5,0 z M 205,85 l 5,0 0,5 -5,0 z M 230,85 l 5,0 0,5 -5,0 z M 240,85 l 5,0 0,5 -5,0 z M 245,85 l 5,0 0,5 -5,0 z M 5,90 l 5,0 0,5 -5,0 z M 20,90 l 5,0 0,5 -5,0 z M 30,90 l 5,0 0,5 -5,0 z M 45,90 l 5,0 0,5 -5,0 z M 70,90 l 5,0 0,5 -5,0 z M 75,90 l 5,0 0,5 -5,0 z M 80,90 l 5,0 0,5 -5,0 z M 90,90 l 5,0 0,5 -5,0 z M 95,90 l 5,0 0,5 -5,0 z M 100,90 l 5,0 0,5 -5,0 z M 105,90 l 5,0 0,5 -5,0 z M 115,90 l 5,0 0,5 -5,0 z M 120,90 l 5,0 0,5 -5,0 z M 125,90 l 5,0 0,5 -5,0 z M 135,90 l 5,0 0,5 -5,0 z M 145,90 l 5,0 0,5 -5,0 z M 155,90 l 5,0 0,5 -5,0 z M 160,90 l 5,0 0,5 -5,0 z M 165,90 l 5,0 0,5 -5,0 z M 170,90 l 5,0 0,5 -5,0 z M 180,90 l 5,0 0,5 -5,0 z M 200,90 l 5,0 0,5 -5,0 z M 205,90 l 5,0 0,5 -5,0 z M 215,90 l 5,0 0,5 -5,0 z M 225,90 l 5,0 0,5 -5,0 z M 230,90 l 5,0 0,5 -5,0 z M 235,90 l 5,0 0,5 -5,0 z M 245,90 l 5,0 0,5 -5,0 z M 5,95 l 5,0 0,5 -5,0 z M 15,95 l 5,0 0,5 -5,0 z M 20,95 l 5,0 0,5 -5,0 z M 25,95 l 5,0 0,5 -5,0 z M 30,95 l 5,0 0,5 -5,0 z M 35,95 l 5,0 0,5 -5,0 z M 45,95 l 5,0 0,5 -5,0 z M 50,95 l 5,0 0,5 -5,0 z M 60,95 l 5,0 0,5 -5,0 z M 65,95 l 5,0 0,5 -5,0 z M 90,95 l 5,0 0,5 -5,0 z M 95,95 l 5,0 0,5 -5,0 z M 105,95 l 5,0 0,5 -5,0 z M 115,95 l 5,0 0,5 -5,0 z M 135,95 l 5,0 0,5 -5,0 z M 150,95 l 5,0 0,5 -5,0 z M 160,95 l 5,0 0,5 -5,0 z M 170,95 l 5,0 0,5 -5,0 z M 175,95 l 5,0 0,5 -5,0 z M 180,95 l 5,0 0,5 -5,0 z M 185,95 l 5,0 0,5 -5,0 z M 190,95 l 5,0 0,5 -5,0 z M 195,95 l 5,0 0,5 -5,0 z M 210,95 l 5,0 0,5 -5,0 z M 220,95 l 5,0 0,5 -5,0 z M 235,95 l 5,0 0,5 -5,0 z M 245,95 l 5,0 0,5 -5,0 z M 10,100 l 5,0 0,5 -5,0 z M 20,100 l 5,0 0,5 -5,0 z M 40,100 l 5,0 0,5 -5,0 z M 45,100 l 5,0 0,5 -5,0 z M 50,100 l 5,0 0,5 -5,0 z M 55,100 l 5,0 0,5 -5,0 z M 60,100 l 5,0 0,5 -5,0 z M 65,100 l 5,0 0,5 -5,0 z M 70,100 l 5,0 0,5 -5,0 z M 80,100 l 5,0 0,5 -5,0 z M 85,100 l 5,0 0,5 -5,0 z M 100,100 l 5,0 0,5 -5,0 z M 125,100 l 5,0 0,5 -5,0 z M 130,100 l 5,0 0,5 -5,0 z M 140,100 l 5,0 0,5 -5,0 z M 145,100 l 5,0 0,5 -5,0 z M 170,100 l 5,0 0,5 -5,0 z M 190,100 l 5,0 0,5 -5,0 z M 200,100 l 5,0 0,5 -5,0 z M 205,100 l 5,0 0,5 -5,0 z M 210,100 l 5,0 0,5 -5,0 z M 215,100 l 5,0 0,5 -5,0 z M 220,100 l 5,0 0,5 -5,0 z M 235,100 l 5,0 0,5 -5,0 z M 240,100 l 5,0 0,5 -5,0 z M 245,100 l 5,0 0,5 -5,0 z M 5,105 l 5,0 0,5 -5,0 z M 20,105 l 5,0 0,5 -5,0 z M 35,105 l 5,0 0,5 -5,0 z M 40,105 l 5,0 0,5 -5,0 z M 45,105 l 5,0 0,5 -5,0 z M 50,105 l 5,0 0,5 -5,0 z M 60,105 l 5,0 0,5 -5,0 z M 65,105 l 5,0 0,5 -5,0 z M 80,105 l 5,0 0,5 -5,0 z M 85,105 l 5,0 0,5 -5,0 z M 100,105 l 5,0 0,5 -5,0 z M 105,105 l 5,0 0,5 -5,0 z M 110,105 l 5,0 0,5 -5,0 z M 120,105 l 5,0 0,5 -5,0 z M 125,105 l 5,0 0,5 -5,0 z M 130,105 l 5,0 0,5 -5,0 z M 150,105 l 5,0 0,5 -5,0 z M 160,105 l 5,0 0,5 -5,0 z M 170,105 l 5,0 0,5 -5,0 z M 180,105 l 5,0 0,5 -5,0 z M 185,105 l 5,0 0,5 -5,0 z M 195,105 l 5,0 0,5 -5,0 z M 235,105 l 5,0 0,5 -5,0 z M 240,105 l 5,0 0,5 -5,0 z M 5,110 l 5,0 0,5 -5,0 z M 50,110 l 5,0 0,5 -5,0 z M 55,110 l 5,0 0,5 -5,0 z M 70,110 l 5,0 0,5 -5,0 z M 80,110 l 5,0 0,5 -5,0 z M 85,110 l 5,0 0,5 -5,0 z M 105,110 l 5,0 0,5 -5,0 z M 110,110 l 5,0 0,5 -5,0 z M 115,110 l 5,0 0,5 -5,0 z M 120,110 l 5,0 0,5 -5,0 z M 125,110 l 5,0 0,5 -5,0 z M 150,110 l 5,0 0,5 -5,0 z M 155,110 l 5,0 0,5 -5,0 z M 165,110 l 5,0 0,5 -5,0 z M 180,110 l 5,0 0,5 -5,0 z M 185,110 l 5,0 0,5 -5,0 z M 190,110 l 5,0 0,5 -5,0 z M 200,110 l 5,0 0,5 -5,0 z M 210,110 l 5,0 0,5 -5,0 z M 235,110 l 5,0 0,5 -5,0 z M 245,110 l 5,0 0,5 -5,0 z M 5,115 l 5,0 0,5 -5,0 z M 15,115 l 5,0 0,5 -5,0 z M 20,115 l 5,0 0,5 -5,0 z M 25,115 l 5,0 0,5 -5,0 z M 30,115 l 5,0 0,5 -5,0 z M 35,115 l 5,0 0,5 -5,0 z M 40,115 l 5,0 0,5 -5,0 z M 45,115 l 5,0 0,5 -5,0 z M 65,115 l 5,0 0,5 -5,0 z M 80,115 l 5,0 0,5 -5,0 z M 100,115 l 5,0 0,5 -5,0 z M 115,115 l 5,0 0,5 -5,0 z M 120,115 l 5,0 0,5 -5,0 z M 125,115 l 5,0 0,5 -5,0 z M 130,115 l 5,0 0,5 -5,0 z M 135,115 l 5,0 0,5 -5,0 z M 140,115 l 5,0 0,5 -5,0 z M 150,115 l 5,0 0,5 -5,0 z M 165,115 l 5,0 0,5 -5,0 z M 170,115 l 5,0 0,5 -5,0 z M 200,115 l 5,0 0,5 -5,0 z M 205,115 l 5,0 0,5 -5,0 z M 210,115 l 5,0 0,5 -5,0 z M 215,115 l 5,0 0,5 -5,0 z M 220,115 l 5,0 0,5 -5,0 z M 225,115 l 5,0 0,5 -5,0 z M 240,115 l 5,0 0,5 -5,0 z M 5,120 l 5,0 0,5 -5,0 z M 10,120 l 5,0 0,5 -5,0 z M 25,120 l 5,0 0,5 -5,0 z M 45,120 l 5,0 0,5 -5,0 z M 80,120 l 5,0 0,5 -5,0 z M 110,120 l 5,0 0,5 -5,0 z M 115,120 l 5,0 0,5 -5,0 z M 135,120 l 5,0 0,5 -5,0 z M 160,120 l 5,0 0,5 -5,0 z M 170,120 l 5,0 0,5 -5,0 z M 175,120 l 5,0 0,5 -5,0 z M 180,120 l 5,0 0,5 -5,0 z M 185,120 l 5,0 0,5 -5,0 z M 195,120 l 5,0 0,5 -5,0 z M 200,120 l 5,0 0,5 -5,0 z M 205,120 l 5,0 0,5 -5,0 z M 225,120 l 5,0 0,5 -5,0 z M 240,120 l 5,0 0,5 -5,0 z M 245,120 l 5,0 0,5 -5,0 z M 5,125 l 5,0 0,5 -5,0 z M 25,125 l 5,0 0,5 -5,0 z M 35,125 l 5,0 0,5 -5,0 z M 45,125 l 5,0 0,5 -5,0 z M 50,125 l 5,0 0,5 -5,0 z M 60,125 l 5,0 0,5 -5,0 z M 65,125 l 5,0 0,5 -5,0 z M 70,125 l 5,0 0,5 -5,0 z M 75,125 l 5,0 0,5 -5,0 z M 80,125 l 5,0 0,5 -5,0 z M 85,125 l 5,0 0,5 -5,0 z M 90,125 l 5,0 0,5 -5,0 z M 95,125 l 5,0 0,5 -5,0 z M 105,125 l 5,0 0,5 -5,0 z M 115,125 l 5,0 0,5 -5,0 z M 125,125 l 5,0 0,5 -5,0 z M 135,125 l 5,0 0,5 -5,0 z M 140,125 l 5,0 0,5 -5,0 z M 145,125 l 5,0 0,5 -5,0 z M 165,125 l 5,0 0,5 -5,0 z M 170,125 l 5,0 0,5 -5,0 z M 175,125 l 5,0 0,5 -5,0 z M 195,125 l 5,0 0,5 -5,0 z M 200,125 l 5,0 0,5 -5,0 z M 205,125 l 5,0 0,5 -5,0 z M 215,125 l 5,0 0,5 -5,0 z M 225,125 l 5,0 0,5 -5,0 z M 230,125 l 5,0 0,5 -5,0 z M 235,125 l 5,0 0,5 -5,0 z M 240,125 l 5,0 0,5 -5,0 z M 245,125 l 5,0 0,5 -5,0 z M 5,130 l 5,0 0,5 -5,0 z M 20,130 l 5,0 0,5 -5,0 z M 25,130 l 5,0 0,5 -5,0 z M 45,130 l 5,0 0,5 -5,0 z M 60,130 l 5,0 0,5 -5,0 z M 75,130 l 5,0 0,5 -5,0 z M 80,130 l 5,0 0,5 -5,0 z M 95,130 l 5,0 0,5 -5,0 z M 100,130 l 5,0 0,5 -5,0 z M 110,130 l 5,0 0,5 -5,0 z M 115,130 l 5,0 0,5 -5,0 z M 135,130 l 5,0 0,5 -5,0 z M 160,130 l 5,0 0,5 -5,0 z M 165,130 l 5,0 0,5 -5,0 z M 170,130 l 5,0 0,5 -5,0 z M 175,130 l 5,0 0,5 -5,0 z M 180,130 l 5,0 0,5 -5,0 z M 185,130 l 5,0 0,5 -5,0 z M 195,130 l 5,0 0,5 -5,0 z M 200,130 l 5,0 0,5 -5,0 z M 205,130 l 5,0 0,5 -5,0 z M 225,130 l 5,0 0,5 -5,0 z M 230,130 l 5,0 0,5 -5,0 z M 235,130 l 5,0 0,5 -5,0 z M 15,135 l 5,0 0,5 -5,0 z M 20,135 l 5,0 0,5 -5,0 z M 25,135 l 5,0 0,5 -5,0 z M 30,135 l 5,0 0,5 -5,0 z M 35,135 l 5,0 0,5 -5,0 z M 40,135 l 5,0 0,5 -5,0 z M 45,135 l 5,0 0,5 -5,0 z M 50,135 l 5,0 0,5 -5,0 z M 55,135 l 5,0 0,5 -5,0 z M 65,135 l 5,0 0,5 -5,0 z M 70,135 l 5,0 0,5 -5,0 z M 75,135 l 5,0 0,5 -5,0 z M 80,135 l 5,0 0,5 -5,0 z M 90,135 l 5,0 0,5 -5,0 z M 95,135 l 5,0 0,5 -5,0 z M 100,135 l 5,0 0,5 -5,0 z M 105,135 l 5,0 0,5 -5,0 z M 115,135 l 5,0 0,5 -5,0 z M 120,135 l 5,0 0,5 -5,0 z M 125,135 l 5,0 0,5 -5,0 z M 130,135 l 5,0 0,5 -5,0 z M 135,135 l 5,0 0,5 -5,0 z M 150,135 l 5,0 0,5 -5,0 z M 165,135 l 5,0 0,5 -5,0 z M 170,135 l 5,0 0,5 -5,0 z M 175,135 l 5,0 0,5 -5,0 z M 180,135 l 5,0 0,5 -5,0 z M 185,135 l 5,0 0,5 -5,0 z M 190,135 l 5,0 0,5 -5,0 z M 195,135 l 5,0 0,5 -5,0 z M 205,135 l 5,0 0,5 -5,0 z M 210,135 l 5,0 0,5 -5,0 z M 215,135 l 5,0 0,5 -5,0 z M 220,135 l 5,0 0,5 -5,0 z M 225,135 l 5,0 0,5 -5,0 z M 245,135 l 5,0 0,5 -5,0 z M 10,140 l 5,0 0,5 -5,0 z M 15,140 l 5,0 0,5 -5,0 z M 25,140 l 5,0 0,5 -5,0 z M 30,140 l 5,0 0,5 -5,0 z M 65,140 l 5,0 0,5 -5,0 z M 75,140 l 5,0 0,5 -5,0 z M 80,140 l 5,0 0,5 -5,0 z M 90,140 l 5,0 0,5 -5,0 z M 105,140 l 5,0 0,5 -5,0 z M 115,140 l 5,0 0,5 -5,0 z M 120,140 l 5,0 0,5 -5,0 z M 125,140 l 5,0 0,5 -5,0 z M 135,140 l 5,0 0,5 -5,0 z M 140,140 l 5,0 0,5 -5,0 z M 145,140 l 5,0 0,5 -5,0 z M 155,140 l 5,0 0,5 -5,0 z M 175,140 l 5,0 0,5 -5,0 z M 190,140 l 5,0 0,5 -5,0 z M 195,140 l 5,0 0,5 -5,0 z M 210,140 l 5,0 0,5 -5,0 z M 215,140 l 5,0 0,5 -5,0 z M 225,140 l 5,0 0,5 -5,0 z M 235,140 l 5,0 0,5 -5,0 z M 240,140 l 5,0 0,5 -5,0 z M 245,140 l 5,0 0,5 -5,0 z M 25,145 l 5,0 0,5 -5,0 z M 30,145 l 5,0 0,5 -5,0 z M 35,145 l 5,0 0,5 -5,0 z M 40,145 l 5,0 0,5 -5,0 z M 45,145 l 5,0 0,5 -5,0 z M 55,145 l 5,0 0,5 -5,0 z M 60,145 l 5,0 0,5 -5,0 z M 65,145 l 5,0 0,5 -5,0 z M 70,145 l 5,0 0,5 -5,0 z M 75,145 l 5,0 0,5 -5,0 z M 90,145 l 5,0 0,5 -5,0 z M 95,145 l 5,0 0,5 -5,0 z M 100,145 l 5,0 0,5 -5,0 z M 105,145 l 5,0 0,5 -5,0 z M 110,145 l 5,0 0,5 -5,0 z M 115,145 l 5,0 0,5 -5,0 z M 130,145 l 5,0 0,5 -5,0 z M 135,145 l 5,0 0,5 -5,0 z M 180,145 l 5,0 0,5 -5,0 z M 185,145 l 5,0 0,5 -5,0 z M 195,145 l 5,0 0,5 -5,0 z M 200,145 l 5,0 0,5 -5,0 z M 210,145 l 5,0 0,5 -5,0 z M 215,145 l 5,0 0,5 -5,0 z M 220,145 l 5,0 0,5 -5,0 z M 225,145 l 5,0 0,5 -5,0 z M 245,145 l 5,0 0,5 -5,0 z M 10,150 l 5,0 0,5 -5,0 z M 15,150 l 5,0 0,5 -5,0 z M 40,150 l 5,0 0,5 -5,0 z M 45,150 l 5,0 0,5 -5,0 z M 50,150 l 5,0 0,5 -5,0 z M 55,150 l 5,0 0,5 -5,0 z M 65,150 l 5,0 0,5 -5,0 z M 80,150 l 5,0 0,5 -5,0 z M 90,150 l 5,0 0,5 -5,0 z M 95,150 l 5,0 0,5 -5,0 z M 105,150 l 5,0 0,5 -5,0 z M 110,150 l 5,0 0,5 -5,0 z M 115,150 l 5,0 0,5 -5,0 z M 125,150 l 5,0 0,5 -5,0 z M 130,150 l 5,0 0,5 -5,0 z M 140,150 l 5,0 0,5 -5,0 z M 150,150 l 5,0 0,5 -5,0 z M 160,150 l 5,0 0,5 -5,0 z M 185,150 l 5,0 0,5 -5,0 z M 200,150 l 5,0 0,5 -5,0 z M 215,150 l 5,0 0,5 -5,0 z M 240,150 l 5,0 0,5 -5,0 z M 245,150 l 5,0 0,5 -5,0 z M 15,155 l 5,0 0,5 -5,0 z M 30,155 l 5,0 0,5 -5,0 z M 35,155 l 5,0 0,5 -5,0 z M 50,155 l 5,0 0,5 -5,0 z M 60,155 l 5,0 0,5 -5,0 z M 65,155 l 5,0 0,5 -5,0 z M 70,155 l 5,0 0,5 -5,0 z M 75,155 l 5,0 0,5 -5,0 z M 80,155 l 5,0 0,5 -5,0 z M 110,155 l 5,0 0,5 -5,0 z M 115,155 l 5,0 0,5 -5,0 z M 120,155 l 5,0 0,5 -5,0 z M 125,155 l 5,0 0,5 -5,0 z M 130,155 l 5,0 0,5 -5,0 z M 145,155 l 5,0 0,5 -5,0 z M 155,155 l 5,0 0,5 -5,0 z M 160,155 l 5,0 0,5 -5,0 z M 165,155 l 5,0 0,5 -5,0 z M 170,155 l 5,0 0,5 -5,0 z M 175,155 l 5,0 0,5 -5,0 z M 180,155 l 5,0 0,5 -5,0 z M 185,155 l 5,0 0,5 -5,0 z M 190,155 l 5,0 0,5 -5,0 z M 195,155 l 5,0 0,5 -5,0 z M 200,155 l 5,0 0,5 -5,0 z M 205,155 l 5,0 0,5 -5,0 z M 220,155 l 5,0 0,5 -5,0 z M 225,155 l 5,0 0,5 -5,0 z M 240,155 l 5,0 0,5 -5,0 z M 10,160 l 5,0 0,5 -5,0 z M 15,160 l 5,0 0,5 -5,0 z M 20,160 l 5,0 0,5 -5,0 z M 25,160 l 5,0 0,5 -5,0 z M 45,160 l 5,0 0,5 -5,0 z M 50,160 l 5,0 0,5 -5,0 z M 55,160 l 5,0 0,5 -5,0 z M 60,160 l 5,0 0,5 -5,0 z M 70,160 l 5,0 0,5 -5,0 z M 80,160 l 5,0 0,5 -5,0 z M 90,160 l 5,0 0,5 -5,0 z M 95,160 l 5,0 0,5 -5,0 z M 120,160 l 5,0 0,5 -5,0 z M 130,160 l 5,0 0,5 -5,0 z M 135,160 l 5,0 0,5 -5,0 z M 145,160 l 5,0 0,5 -5,0 z M 160,160 l 5,0 0,5 -5,0 z M 165,160 l 5,0 0,5 -5,0 z M 170,160 l 5,0 0,5 -5,0 z M 175,160 l 5,0 0,5 -5,0 z M 180,160 l 5,0 0,5 -5,0 z M 195,160 l 5,0 0,5 -5,0 z M 200,160 l 5,0 0,5 -5,0 z M 210,160 l 5,0 0,5 -5,0 z M 225,160 l 5,0 0,5 -5,0 z M 230,160 l 5,0 0,5 -5,0 z M 240,160 l 5,0 0,5 -5,0 z M 5,165 l 5,0 0,5 -5,0 z M 10,165 l 5,0 0,5 -5,0 z M 15,165 l 5,0 0,5 -5,0 z M 30,165 l 5,0 0,5 -5,0 z M 35,165 l 5,0 0,5 -5,0 z M 40,165 l 5,0 0,5 -5,0 z M 45,165 l 5,0 0,5 -5,0 z M 50,165 l 5,0 0,5 -5,0 z M 65,165 l 5,0 0,5 -5,0 z M 70,165 l 5,0 0,5 -5,0 z M 85,165 l 5,0 0,5 -5,0 z M 110,165 l 5,0 0,5 -5,0 z M 125,165 l 5,0 0,5 -5,0 z M 130,165 l 5,0 0,5 -5,0 z M 140,165 l 5,0 0,5 -5,0 z M 145,165 l 5,0 0,5 -5,0 z M 150,165 l 5,0 0,5 -5,0 z M 155,165 l 5,0 0,5 -5,0 z M 165,165 l 5,0 0,5 -5,0 z M 190,165 l 5,0 0,5 -5,0 z M 200,165 l 5,0 0,5 -5,0 z M 230,165 l 5,0 0,5 -5,0 z M 235,165 l 5,0 0,5 -5,0 z M 240,165 l 5,0 0,5 -5,0 z M 5,170 l 5,0 0,5 -5,0 z M 20,170 l 5,0 0,5 -5,0 z M 25,170 l 5,0 0,5 -5,0 z M 40,170 l 5,0 0,5 -5,0 z M 50,170 l 5,0 0,5 -5,0 z M 55,170 l 5,0 0,5 -5,0 z M 60,170 l 5,0 0,5 -5,0 z M 70,170 l 5,0 0,5 -5,0 z M 80,170 l 5,0 0,5 -5,0 z M 95,170 l 5,0 0,5 -5,0 z M 105,170 l 5,0 0,5 -5,0 z M 115,170 l 5,0 0,5 -5,0 z M 120,170 l 5,0 0,5 -5,0 z M 125,170 l 5,0 0,5 -5,0 z M 130,170 l 5,0 0,5 -5,0 z M 135,170 l 5,0 0,5 -5,0 z M 160,170 l 5,0 0,5 -5,0 z M 165,170 l 5,0 0,5 -5,0 z M 170,170 l 5,0 0,5 -5,0 z M 180,170 l 5,0 0,5 -5,0 z M 185,170 l 5,0 0,5 -5,0 z M 195,170 l 5,0 0,5 -5,0 z M 210,170 l 5,0 0,5 -5,0 z M 225,170 l 5,0 0,5 -5,0 z M 235,170 l 5,0 0,5 -5,0 z M 245,170 l 5,0 0,5 -5,0 z M 15,175 l 5,0 0,5 -5,0 z M 20,175 l 5,0 0,5 -5,0 z M 25,175 l 5,0 0,5 -5,0 z M 30,175 l 5,0 0,5 -5,0 z M 35,175 l 5,0 0,5 -5,0 z M 40,175 l 5,0 0,5 -5,0 z M 45,175 l 5,0 0,5 -5,0 z M 60,175 l 5,0 0,5 -5,0 z M 65,175 l 5,0 0,5 -5,0 z M 80,175 l 5,0 0,5 -5,0 z M 100,175 l 5,0 0,5 -5,0 z M 110,175 l 5,0 0,5 -5,0 z M 125,175 l 5,0 0,5 -5,0 z M 135,175 l 5,0 0,5 -5,0 z M 140,175 l 5,0 0,5 -5,0 z M 150,175 l 5,0 0,5 -5,0 z M 165,175 l 5,0 0,5 -5,0 z M 170,175 l 5,0 0,5 -5,0 z M 175,175 l 5,0 0,5 -5,0 z M 185,175 l 5,0 0,5 -5,0 z M 190,175 l 5,0 0,5 -5,0 z M 195,175 l 5,0 0,5 -5,0 z M 200,175 l 5,0 0,5 -5,0 z M 210,175 l 5,0 0,5 -5,0 z M 215,175 l 5,0 0,5 -5,0 z M 225,175 l 5,0 0,5 -5,0 z M 15,180 l 5,0 0,5 -5,0 z M 25,180 l 5,0 0,5 -5,0 z M 45,180 l 5,0 0,5 -5,0 z M 50,180 l 5,0 0,5 -5,0 z M 60,180 l 5,0 0,5 -5,0 z M 65,180 l 5,0 0,5 -5,0 z M 70,180 l 5,0 0,5 -5,0 z M 80,180 l 5,0 0,5 -5,0 z M 100,180 l 5,0 0,5 -5,0 z M 105,180 l 5,0 0,5 -5,0 z M 110,180 l 5,0 0,5 -5,0 z M 115,180 l 5,0 0,5 -5,0 z M 120,180 l 5,0 0,5 -5,0 z M 125,180 l 5,0 0,5 -5,0 z M 135,180 l 5,0 0,5 -5,0 z M 140,180 l 5,0 0,5 -5,0 z M 145,180 l 5,0 0,5 -5,0 z M 155,180 l 5,0 0,5 -5,0 z M 160,180 l 5,0 0,5 -5,0 z M 165,180 l 5,0 0,5 -5,0 z M 175,180 l 5,0 0,5 -5,0 z M 195,180 l 5,0 0,5 -5,0 z M 215,180 l 5,0 0,5 -5,0 z M 230,180 l 5,0 0,5 -5,0 z M 245,180 l 5,0 0,5 -5,0 z M 5,185 l 5,0 0,5 -5,0 z M 10,185 l 5,0 0,5 -5,0 z M 15,185 l 5,0 0,5 -5,0 z M 20,185 l 5,0 0,5 -5,0 z M 35,185 l 5,0 0,5 -5,0 z M 40,185 l 5,0 0,5 -5,0 z M 55,185 l 5,0 0,5 -5,0 z M 65,185 l 5,0 0,5 -5,0 z M 80,185 l 5,0 0,5 -5,0 z M 90,185 l 5,0 0,5 -5,0 z M 100,185 l 5,0 0,5 -5,0 z M 105,185 l 5,0 0,5 -5,0 z M 110,185 l 5,0 0,5 -5,0 z M 115,185 l 5,0 0,5 -5,0 z M 120,185 l 5,0 0,5 -5,0 z M 125,185 l 5,0 0,5 -5,0 z M 150,185 l 5,0 0,5 -5,0 z M 165,185 l 5,0 0,5 -5,0 z M 175,185 l 5,0 0,5 -5,0 z M 180,185 l 5,0 0,5 -5,0 z M 185,185 l 5,0 0,5 -5,0 z M 195,185 l 5,0 0,5 -5,0 z M 200,185 l 5,0 0,5 -5,0 z M 205,185 l 5,0 0,5 -5,0 z M 210,185 l 5,0 0,5 -5,0 z M 215,185 l 5,0 0,5 -5,0 z M 220,185 l 5,0 0,5 -5,0 z M 225,185 l 5,0 0,5 -5,0 z M 235,185 l 5,0 0,5 -5,0 z M 240,185 l 5,0 0,5 -5,0 z M 5,190 l 5,0 0,5 -5,0 z M 15,190 l 5,0 0,5 -5,0 z M 40,190 l 5,0 0,5 -5,0 z M 45,190 l 5,0 0,5 -5,0 z M 50,190 l 5,0 0,5 -5,0 z M 55,190 l 5,0 0,5 -5,0 z M 60,190 l 5,0 0,5 -5,0 z M 70,190 l 5,0 0,5 -5,0 z M 90,190 l 5,0 0,5 -5,0 z M 105,190 l 5,0 0,5 -5,0 z M 110,190 l 5,0 0,5 -5,0 z M 115,190 l 5,0 0,5 -5,0 z M 135,190 l 5,0 0,5 -5,0 z M 140,190 l 5,0 0,5 -5,0 z M 145,190 l 5,0 0,5 -5,0 z M 160,190 l 5,0 0,5 -5,0 z M 165,190 l 5,0 0,5 -5,0 z M 180,190 l 5,0 0,5 -5,0 z M 185,190 l 5,0 0,5 -5,0 z M 190,190 l 5,0 0,5 -5,0 z M 200,190 l 5,0 0,5 -5,0 z M 240,190 l 5,0 0,5 -5,0 z M 245,190 l 5,0 0,5 -5,0 z M 10,195 l 5,0 0,5 -5,0 z M 30,195 l 5,0 0,5 -5,0 z M 35,195 l 5,0 0,5 -5,0 z M 40,195 l 5,0 0,5 -5,0 z M 45,195 l 5,0 0,5 -5,0 z M 50,195 l 5,0 0,5 -5,0 z M 70,195 l 5,0 0,5 -5,0 z M 75,195 l 5,0 0,5 -5,0 z M 95,195 l 5,0 0,5 -5,0 z M 105,195 l 5,0 0,5 -5,0 z M 120,195 l 5,0 0,5 -5,0 z M 150,195 l 5,0 0,5 -5,0 z M 170,195 l 5,0 0,5 -5,0 z M 175,195 l 5,0 0,5 -5,0 z M 185,195 l 5,0 0,5 -5,0 z M 190,195 l 5,0 0,5 -5,0 z M 220,195 l 5,0 0,5 -5,0 z M 235,195 l 5,0 0,5 -5,0 z M 10,200 l 5,0 0,5 -5,0 z M 15,200 l 5,0 0,5 -5,0 z M 20,200 l 5,0 0,5 -5,0 z M 50,200 l 5,0 0,5 -5,0 z M 60,200 l 5,0 0,5 -5,0 z M 70,200 l 5,0 0,5 -5,0 z M 85,200 l 5,0 0,5 -5,0 z M 90,200 l 5,0 0,5 -5,0 z M 95,200 l 5,0 0,5 -5,0 z M 105,200 l 5,0 0,5 -5,0 z M 110,200 l 5,0 0,5 -5,0 z M 115,200 l 5,0 0,5 -5,0 z M 125,200 l 5,0 0,5 -5,0 z M 145,200 l 5,0 0,5 -5,0 z M 160,200 l 5,0 0,5 -5,0 z M 165,200 l 5,0 0,5 -5,0 z M 180,200 l 5,0 0,5 -5,0 z M 195,200 l 5,0 0,5 -5,0 z M 205,200 l 5,0 0,5 -5,0 z M 210,200 l 5,0 0,5 -5,0 z M 240,200 l 5,0 0,5 -5,0 z M 245,200 l 5,0 0,5 -5,0 z M 5,205 l 5,0 0,5 -5,0 z M 10,205 l 5,0 0,5 -5,0 z M 15,205 l 5,0 0,5 -5,0 z M 35,205 l 5,0 0,5 -5,0 z M 55,205 l 5,0 0,5 -5,0 z M 100,205 l 5,0 0,5 -5,0 z M 105,205 l 5,0 0,5 -5,0 z M 110,205 l 5,0 0,5 -5,0 z M 115,205 l 5,0 0,5 -5,0 z M 120,205 l 5,0 0,5 -5,0 z M 125,205 l 5,0 0,5 -5,0 z M 130,205 l 5,0 0,5 -5,0 z M 135,205 l 5,0 0,5 -5,0 z M 140,205 l 5,0 0,5 -5,0 z M 145,205 l 5,0 0,5 -5,0 z M 155,205 l 5,0 0,5 -5,0 z M 165,205 l 5,0 0,5 -5,0 z M 170,205 l 5,0 0,5 -5,0 z M 175,205 l 5,0 0,5 -5,0 z M 205,205 l 5,0 0,5 -5,0 z M 210,205 l 5,0 0,5 -5,0 z M 215,205 l 5,0 0,5 -5,0 z M 220,205 l 5,0 0,5 -5,0 z M 225,205 l 5,0 0,5 -5,0 z M 230,205 l 5,0 0,5 -5,0 z M 235,205 l 5,0 0,5 -5,0 z M 240,205 l 5,0 0,5 -5,0 z M 245,205 l 5,0 0,5 -5,0 z M 45,210 l 5,0 0,5 -5,0 z M 50,210 l 5,0 0,5 -5,0 z M 65,210 l 5,0 0,5 -5,0 z M 70,210 l 5,0 0,5 -5,0 z M 75,210 l 5,0 0,5 -5,0 z M 90,210 l 5,0 0,5 -5,0 z M 95,210 l 5,0 0,5 -5,0 z M 110,210 l 5,0 0,5 -5,0 z M 115,210 l 5,0 0,5 -5,0 z M 135,210 l 5,0 0,5 -5,0 z M 140,210 l 5,0 0,5 -5,0 z M 160,210 l 5,0 0,5 -5,0 z M 165,210 l 5,0 0,5 -5,0 z M 170,210 l 5,0 0,5 -5,0 z M 185,210 l 5,0 0,5 -5,0 z M 195,210 l 5,0 0,5 -5,0 z M 200,210 l 5,0 0,5 -5,0 z M 205,210 l 5,0 0,5 -5,0 z M 225,210 l 5,0 0,5 -5,0 z M 5,215 l 5,0 0,5 -5,0 z M 10,215 l 5,0 0,5 -5,0 z M 15,215 l 5,0 0,5 -5,0 z M 20,215 l 5,0 0,5 -5,0 z M 25,215 l 5,0 0,5 -5,0 z M 30,215 l 5,0 0,5 -5,0 z M 35,215 l 5,0 0,5 -5,0 z M 45,215 l 5,0 0,5 -5,0 z M 50,215 l 5,0 0,5 -5,0 z M 55,215 l 5,0 0,5 -5,0 z M 60,215 l 5,0 0,5 -5,0 z M 65,215 l 5,0 0,5 -5,0 z M 70,215 l 5,0 0,5 -5,0 z M 75,215 l 5,0 0,5 -5,0 z M 85,215 l 5,0 0,5 -5,0 z M 90,215 l 5,0 0,5 -5,0 z M 110,215 l 5,0 0,5 -5,0 z M 115,215 l 5,0 0,5 -5,0 z M 125,215 l 5,0 0,5 -5,0 z M 135,215 l 5,0 0,5 -5,0 z M 140,215 l 5,0 0,5 -5,0 z M 150,215 l 5,0 0,5 -5,0 z M 165,215 l 5,0 0,5 -5,0 z M 185,215 l 5,0 0,5 -5,0 z M 190,215 l 5,0 0,5 -5,0 z M 195,215 l 5,0 0,5 -5,0 z M 205,215 l 5,0 0,5 -5,0 z M 215,215 l 5,0 0,5 -5,0 z M 225,215 l 5,0 0,5 -5,0 z M 240,215 l 5,0 0,5 -5,0 z M 5,220 l 5,0 0,5 -5,0 z M 35,220 l 5,0 0,5 -5,0 z M 55,220 l 5,0 0,5 -5,0 z M 75,220 l 5,0 0,5 -5,0 z M 110,220 l 5,0 0,5 -5,0 z M 115,220 l 5,0 0,5 -5,0 z M 135,220 l 5,0 0,5 -5,0 z M 150,220 l 5,0 0,5 -5,0 z M 170,220 l 5,0 0,5 -5,0 z M 175,220 l 5,0 0,5 -5,0 z M 190,220 l 5,0 0,5 -5,0 z M 205,220 l 5,0 0,5 -5,0 z M 225,220 l 5,0 0,5 -5,0 z M 230,220 l 5,0 0,5 -5,0 z M 245,220 l 5,0 0,5 -5,0 z M 5,225 l 5,0 0,5 -5,0 z M 15,225 l 5,0 0,5 -5,0 z M 20,225 l 5,0 0,5 -5,0 z M 25,225 l 5,0 0,5 -5,0 z M 35,225 l 5,0 0,5 -5,0 z M 45,225 l 5,0 0,5 -5,0 z M 55,225 l 5,0 0,5 -5,0 z M 60,225 l 5,0 0,5 -5,0 z M 65,225 l 5,0 0,5 -5,0 z M 70,225 l 5,0 0,5 -5,0 z M 75,225 l 5,0 0,5 -5,0 z M 80,225 l 5,0 0,5 -5,0 z M 90,225 l 5,0 0,5 -5,0 z M 95,225 l 5,0 0,5 -5,0 z M 100,225 l 5,0 0,5 -5,0 z M 105,225 l 5,0 0,5 -5,0 z M 110,225 l 5,0 0,5 -5,0 z M 115,225 l 5,0 0,5 -5,0 z M 120,225 l 5,0 0,5 -5,0 z M 125,225 l 5,0 0,5 -5,0 z M 130,225 l 5,0 0,5 -5,0 z M 135,225 l 5,0 0,5 -5,0 z M 150,225 l 5,0 0,5 -5,0 z M 155,225 l 5,0 0,5 -5,0 z M 160,225 l 5,0 0,5 -5,0 z M 165,225 l 5,0 0,5 -5,0 z M 175,225 l 5,0 0,5 -5,0 z M 180,225 l 5,0 0,5 -5,0 z M 185,225 l 5,0 0,5 -5,0 z M 195,225 l 5,0 0,5 -5,0 z M 200,225 l 5,0 0,5 -5,0 z M 205,225 l 5,0 0,5 -5,0 z M 210,225 l 5,0 0,5 -5,0 z M 215,225 l 5,0 0,5 -5,0 z M 220,225 l 5,0 0,5 -5,0 z M 225,225 l 5,0 0,5 -5,0 z M 230,225 l 5,0 0,5 -5,0 z M 240,225 l 5,0 0,5 -5,0 z M 5,230 l 5,0 0,5 -5,0 z M 15,230 l 5,0 0,5 -5,0 z M 20,230 l 5,0 0,5 -5,0 z M 25,230 l 5,0 0,5 -5,0 z M 35,230 l 5,0 0,5 -5,0 z M 45,230 l 5,0 0,5 -5,0 z M 65,230 l 5,0 0,5 -5,0 z M 90,230 l 5,0 0,5 -5,0 z M 105,230 l 5,0 0,5 -5,0 z M 110,230 l 5,0 0,5 -5,0 z M 115,230 l 5,0 0,5 -5,0 z M 120,230 l 5,0 0,5 -5,0 z M 125,230 l 5,0 0,5 -5,0 z M 135,230 l 5,0 0,5 -5,0 z M 145,230 l 5,0 0,5 -5,0 z M 155,230 l 5,0 0,5 -5,0 z M 165,230 l 5,0 0,5 -5,0 z M 185,230 l 5,0 0,5 -5,0 z M 190,230 l 5,0 0,5 -5,0 z M 205,230 l 5,0 0,5 -5,0 z M 215,230 l 5,0 0,5 -5,0 z M 230,230 l 5,0 0,5 -5,0 z M 245,230 l 5,0 0,5 -5,0 z M 5,235 l 5,0 0,5 -5,0 z M 15,235 l 5,0 0,5 -5,0 z M 20,235 l 5,0 0,5 -5,0 z M 25,235 l 5,0 0,5 -5,0 z M 35,235 l 5,0 0,5 -5,0 z M 45,235 l 5,0 0,5 -5,0 z M 50,235 l 5,0 0,5 -5,0 z M 55,235 l 5,0 0,5 -5,0 z M 60,235 l 5,0 0,5 -5,0 z M 65,235 l 5,0 0,5 -5,0 z M 70,235 l 5,0 0,5 -5,0 z M 75,235 l 5,0 0,5 -5,0 z M 85,235 l 5,0 0,5 -5,0 z M 90,235 l 5,0 0,5 -5,0 z M 95,235 l 5,0 0,5 -5,0 z M 110,235 l 5,0 0,5 -5,0 z M 115,235 l 5,0 0,5 -5,0 z M 120,235 l 5,0 0,5 -5,0 z M 125,235 l 5,0 0,5 -5,0 z M 130,235 l 5,0 0,5 -5,0 z M 140,235 l 5,0 0,5 -5,0 z M 145,235 l 5,0 0,5 -5,0 z M 150,235 l 5,0 0,5 -5,0 z M 175,235 l 5,0 0,5 -5,0 z M 180,235 l 5,0 0,5 -5,0 z M 195,235 l 5,0 0,5 -5,0 z M 200,235 l 5,0 0,5 -5,0 z M 205,235 l 5,0 0,5 -5,0 z M 220,235 l 5,0 0,5 -5,0 z M 230,235 l 5,0 0,5 -5,0 z M 235,235 l 5,0 0,5 -5,0 z M 245,235 l 5,0 0,5 -5,0 z M 5,240 l 5,0 0,5 -5,0 z M 35,240 l 5,0 0,5 -5,0 z M 45,240 l 5,0 0,5 -5,0 z M 50,240 l 5,0 0,5 -5,0 z M 65,240 l 5,0 0,5 -5,0 z M 70,240 l 5,0 0,5 -5,0 z M 95,240 l 5,0 0,5 -5,0 z M 105,240 l 5,0 0,5 -5,0 z M 115,240 l 5,0 0,5 -5,0 z M 145,240 l 5,0 0,5 -5,0 z M 160,240 l 5,0 0,5 -5,0 z M 165,240 l 5,0 0,5 -5,0 z M 175,240 l 5,0 0,5 -5,0 z M 180,240 l 5,0 0,5 -5,0 z M 195,240 l 5,0 0,5 -5,0 z M 200,240 l 5,0 0,5 -5,0 z M 230,240 l 5,0 0,5 -5,0 z M 5,245 l 5,0 0,5 -5,0 z M 10,245 l 5,0 0,5 -5,0 z M 15,245 l 5,0 0,5 -5,0 z M 20,245 l 5,0 0,5 -5,0 z M 25,245 l 5,0 0,5 -5,0 z M 30,245 l 5,0 0,5 -5,0 z M 35,245 l 5,0 0,5 -5,0 z M 45,245 l 5,0 0,5 -5,0 z M 55,245 l 5,0 0,5 -5,0 z M 65,245 l 5,0 0,5 -5,0 z M 70,245 l 5,0 0,5 -5,0 z M 85,245 l 5,0 0,5 -5,0 z M 90,245 l 5,0 0,5 -5,0 z M 105,245 l 5,0 0,5 -5,0 z M 110,245 l 5,0 0,5 -5,0 z M 135,245 l 5,0 0,5 -5,0 z M 140,245 l 5,0 0,5 -5,0 z M 145,245 l 5,0 0,5 -5,0 z M 195,245 l 5,0 0,5 -5,0 z M 215,245 l 5,0 0,5 -5,0 z M 230,245 l 5,0 0,5 -5,0 z M 235,245 l 5,0 0,5 -5,0 z M 245,245 l 5,0 0,5 -5,0 z " />
	</g>
</svg>
